<svg width="65" height="65" viewBox="0 0 65 65" fill="none" xmlns="http://www.w3.org/2000/svg">
<g clip-path="url(#clip0_348_2708)">
<path d="M62.6813 47.6704C62.5981 47.5872 62.51 47.5092 62.4173 47.4368C62.7376 46.9802 62.9264 46.4445 62.9633 45.888C63.0001 45.3315 62.8834 44.7755 62.626 44.2807C62.3686 43.7859 61.9804 43.3713 61.5035 43.082C61.0267 42.7927 60.4796 42.6398 59.9219 42.64H59.7492C59.8623 41.6283 59.9199 40.6111 59.9219 39.5931C59.9258 37.716 59.7317 35.8436 59.343 34.0072L63.5883 35.8272C63.7729 35.9057 63.9765 35.9277 64.1736 35.8906C64.3707 35.8535 64.5524 35.7588 64.6958 35.6186C64.8392 35.4784 64.9378 35.2988 64.9793 35.1026C65.0208 34.9064 65.0033 34.7023 64.9289 34.516L60.843 24.2328C60.9731 24.1 61.0638 23.9337 61.105 23.7524C61.1463 23.5712 61.1364 23.382 61.0766 23.206L59.2384 17.6871L64.4384 15.0861C64.6052 15.0011 64.7454 14.8715 64.8432 14.7118C64.9411 14.5521 64.9929 14.3685 64.9929 14.1812C64.9929 13.9939 64.9411 13.8102 64.8432 13.6505C64.7454 13.4908 64.6052 13.3613 64.4384 13.2762L59.2384 10.6742L61.0766 5.15531C61.1347 4.97713 61.1424 4.78634 61.0988 4.60407C61.0552 4.4218 60.962 4.25515 60.8295 4.12257C60.697 3.98999 60.5305 3.89666 60.3482 3.85289C60.166 3.80913 59.9752 3.81664 59.797 3.87461L54.2821 5.71492L51.6831 0.507811C51.5893 0.351987 51.4567 0.223075 51.2983 0.133586C51.14 0.0440969 50.9611 -0.00292969 50.7792 -0.00292969C50.5973 -0.00292969 50.4185 0.0440969 50.2601 0.133586C50.1017 0.223075 49.9692 0.351987 49.8753 0.507811L47.2753 5.71187L41.7605 3.87156C41.5822 3.8136 41.3914 3.80608 41.2092 3.84985C41.027 3.89361 40.8604 3.98695 40.7279 4.11952C40.5955 4.2521 40.5023 4.41875 40.4586 4.60102C40.415 4.78329 40.4227 4.97408 40.4808 5.15226L42.3191 10.6712L38.1753 12.7451C37.6472 12.6232 37.0988 12.5318 36.5605 12.4505V8.00109C36.5605 6.92365 36.1325 5.89034 35.3706 5.12847C34.6087 4.3666 33.5754 3.93859 32.498 3.93859C31.4205 3.93859 30.3872 4.3666 29.6253 5.12847C28.8635 5.89034 28.4355 6.92365 28.4355 8.00109V12.4536C21.9401 13.4356 16.012 16.7133 11.7265 21.6921C7.44109 26.6709 5.0823 33.0209 5.07812 39.5901C5.08006 40.6081 5.1377 41.6252 5.25078 42.637H5.07812C4.27087 42.6396 3.49744 42.9615 2.92662 43.5323C2.3558 44.1031 2.03393 44.8766 2.03125 45.6838C2.0293 46.0307 2.09127 46.375 2.21406 46.6995H1.01562C0.746265 46.6995 0.487936 46.8065 0.29747 46.9969C0.107003 47.1874 0 47.4457 0 47.7151L0 63.9844C0 64.2537 0.107003 64.5121 0.29747 64.7025C0.487936 64.893 0.746265 65 1.01562 65H19.2969C19.5662 65 19.8246 64.893 20.015 64.7025C20.2055 64.5121 20.3125 64.2537 20.3125 63.9844H25.3906C25.59 63.9842 25.7849 63.9254 25.951 63.8152C26.1172 63.705 26.2472 63.5484 26.325 63.3648C27.6791 64.4234 29.3482 64.9989 31.067 65H50.6167C51.449 65.0009 52.2495 64.6803 52.8511 64.1052L63.8503 53.7184C64.1916 53.4413 64.4704 53.0952 64.6686 52.7028C64.8667 52.3104 64.9797 51.8805 65 51.4414C65.0166 50.9941 64.9403 50.5482 64.776 50.1318C64.6117 49.7155 64.3629 49.3376 64.0453 49.0222L62.6813 47.6704ZM62.1329 32.9845L58.9134 31.6123C58.8483 31.5842 58.7801 31.5637 58.7102 31.5514C58.4948 31.5065 58.2705 31.5339 58.0722 31.6294C57.8739 31.7249 57.7126 31.8831 57.6134 32.0795L57.0649 33.1673L56.0798 35.0878L52.5251 26.1503L53.1751 24.8595L54.1907 22.8363L54.2821 22.6434L58.6016 24.0906L62.1329 32.9845ZM42.9609 24.0906L47.2773 22.6474L49.0344 26.1544L45.4797 35.0919L43.9461 32.0836C43.8612 31.9173 43.7317 31.7778 43.572 31.681C43.4124 31.5841 43.2289 31.5336 43.0422 31.5352C42.9058 31.5326 42.7705 31.5604 42.6461 31.6164L39.4266 32.9885L42.9609 24.0906ZM44.0172 12.0971C44.2357 11.9875 44.4073 11.8028 44.5006 11.5769C44.5938 11.351 44.6025 11.099 44.525 10.8672L43.0523 6.44617L47.4683 7.92187C47.6999 7.99912 47.9517 7.9903 48.1774 7.89703C48.4031 7.80377 48.5876 7.63231 48.6972 7.41406L50.7812 3.25L52.8623 7.41406C52.9718 7.63231 53.1564 7.80377 53.3821 7.89703C53.6078 7.9903 53.8595 7.99912 54.0912 7.92187L58.5091 6.4482L57.0345 10.8672C56.9569 11.099 56.9656 11.351 57.0589 11.5769C57.1522 11.8028 57.3238 11.9875 57.5423 12.0971L61.7063 14.1812L57.5423 16.2642C57.3238 16.3738 57.1522 16.5585 57.0589 16.7844C56.9656 17.0104 56.9569 17.2623 57.0345 17.4941L57.3188 18.3483L58.5071 21.9162L57.6134 21.6206L55.7751 21.0011L54.0891 20.4415C53.8575 20.3642 53.6057 20.3731 53.38 20.4663C53.1543 20.5596 52.9698 20.731 52.8602 20.9493L52.7698 21.1423L52.648 21.386L52.2417 22.1894L51.7847 23.0933L51.5206 23.6224L50.7812 25.1174L50.0398 23.6234L49.3188 22.1904L48.9125 21.387L48.6992 20.9503C48.615 20.7826 48.4859 20.6416 48.3263 20.5428C48.1668 20.444 47.983 20.3914 47.7953 20.3907C47.6851 20.3919 47.5756 20.409 47.4703 20.4415L45.7844 21.0011L43.9461 21.6206L43.0523 21.9162L44.2406 18.3483L44.525 17.4941C44.5516 17.4117 44.5687 17.3265 44.5758 17.2402C44.5884 17.0407 44.5421 16.8419 44.4428 16.6685C44.3436 16.495 44.1956 16.3544 44.0172 16.2642L39.8531 14.1812L41.1227 13.5505L44.0172 12.0971ZM30.4688 8.00109C30.4688 7.46237 30.6828 6.94572 31.0637 6.56478C31.4446 6.18385 31.9613 5.96984 32.5 5.96984C33.0387 5.96984 33.5554 6.18385 33.9363 6.56478C34.3172 6.94572 34.5312 7.46237 34.5312 8.00109V12.1377C33.8508 12.087 33.1703 12.0666 32.5 12.0666C31.8297 12.0666 31.1502 12.087 30.4688 12.1377V8.00109ZM7.10938 39.5901C7.1126 32.8554 9.78813 26.3972 14.5486 21.6333C19.309 16.8694 25.7653 14.1892 32.5 14.1812C33.8852 14.1771 35.2682 14.2927 36.6336 14.5265C36.6715 14.6485 36.7344 14.7613 36.8184 14.8577C36.9023 14.954 37.0054 15.0318 37.1211 15.0861L42.3211 17.6871L40.4828 23.206C40.423 23.382 40.4132 23.5712 40.4544 23.7524C40.4957 23.9337 40.5864 24.1 40.7164 24.2328L36.6336 34.5089C36.5592 34.6952 36.5417 34.8993 36.5832 35.0955C36.6247 35.2917 36.7233 35.4713 36.8667 35.6115C37.0101 35.7517 37.1918 35.8464 37.3889 35.8835C37.586 35.9206 37.7896 35.8985 37.9742 35.8201L42.575 33.8477L44.6875 38.0148C44.7718 38.1825 44.9008 38.3236 45.0604 38.4224C45.2199 38.5211 45.4037 38.5738 45.5914 38.5745H45.6422C45.837 38.5647 46.0248 38.4991 46.1833 38.3855C46.3418 38.2718 46.4642 38.1149 46.5359 37.9336L50.3547 28.3085C50.487 28.3753 50.6331 28.4101 50.7812 28.4101C50.9294 28.4101 51.0755 28.3753 51.2078 28.3085L55.0255 37.9336C55.0973 38.1149 55.2197 38.2718 55.3782 38.3855C55.5367 38.4991 55.7245 38.5647 55.9193 38.5745H55.9701C56.1579 38.574 56.3419 38.5214 56.5017 38.4226C56.6614 38.3238 56.7907 38.1827 56.875 38.0148L57.6875 36.4193C57.8221 37.4709 57.89 38.5299 57.8906 39.5901C57.8903 40.6084 57.8293 41.6259 57.7078 42.637H7.29219C7.17071 41.6259 7.10966 40.6084 7.10938 39.5901ZM4.0625 45.6838C4.0625 45.4145 4.1695 45.1561 4.35997 44.9657C4.55044 44.7752 4.80876 44.6682 5.07812 44.6682H59.9219C60.1912 44.6682 60.4496 44.7752 60.64 44.9657C60.8305 45.1561 60.9375 45.4145 60.9375 45.6838C60.9375 45.9532 60.8305 46.2115 60.64 46.402C60.4496 46.5924 60.1912 46.6995 59.9219 46.6995H5.07812C4.80964 46.6995 4.55208 46.5932 4.36176 46.4038C4.17144 46.2144 4.06384 45.9574 4.0625 45.6889V45.6838ZM56.7805 48.7307L52.3839 52.5728C52.1873 51.8882 51.7743 51.2855 51.2068 50.855C50.6394 50.4244 49.9478 50.189 49.2355 50.1841H37.9316C37.7389 50.1833 37.5492 50.1369 37.3779 50.0486C37.2067 49.9604 37.0588 49.8327 36.9464 49.6762C36.6894 49.3404 36.4077 49.0244 36.1034 48.7307H56.7805ZM2.03125 62.9688V48.7378H18.2812V62.9688H2.03125ZM24.375 61.9531H20.3125V49.7545H24.375V61.9531ZM62.4995 52.196L51.4495 62.6417C51.2221 62.8502 50.9252 62.9664 50.6167 62.9677H31.067C30.1548 62.9638 29.2567 62.7434 28.4464 62.3246C27.6362 61.9058 26.9369 61.3005 26.4062 60.5587V51.1469C26.937 50.4049 27.6364 49.7996 28.4469 49.3807C29.2573 48.9619 30.1557 48.7415 31.068 48.7378C31.9024 48.7401 32.7244 48.9392 33.4674 49.319C34.2104 49.6988 34.8532 50.2485 35.3438 50.9234C35.6453 51.3259 36.0362 51.6529 36.4856 51.8786C36.935 52.1044 37.4307 52.2228 37.9336 52.2245H49.2375C49.405 52.2276 49.5703 52.2638 49.7238 52.331C49.8773 52.3981 50.016 52.4949 50.1321 52.6157C50.2481 52.7366 50.3392 52.8792 50.4001 53.0353C50.4609 53.1914 50.4904 53.358 50.4867 53.5255V54.6934C50.4904 54.861 50.4609 55.0275 50.4001 55.1836C50.3392 55.3398 50.2481 55.4823 50.1321 55.6032C50.016 55.724 49.8773 55.8208 49.7238 55.888C49.5703 55.9551 49.405 55.9913 49.2375 55.9945H37.8828V58.0257H49.2375C50.03 58.0195 50.7939 57.729 51.3904 57.2071C51.9868 56.6852 52.3761 55.9666 52.4875 55.182L59.4344 49.1136C59.6785 48.8744 60.0067 48.7404 60.3484 48.7404C60.6902 48.7404 61.0184 48.8744 61.2625 49.1136L62.6133 50.4654C62.7289 50.5814 62.82 50.7195 62.8811 50.8715C62.9422 51.0235 62.972 51.1862 62.9688 51.35C62.9582 51.5168 62.9105 51.6792 62.8291 51.8252C62.7477 51.9712 62.6348 52.0972 62.4985 52.194L62.4995 52.196Z" fill="#FFB936"/>
<path d="M16.249 50.771H14.2178V52.8033H16.249V50.771Z" fill="#FFB936"/>
<path d="M12.1875 50.771H10.1562V52.8033H12.1875V50.771Z" fill="#FFB936"/>
<path d="M50.7814 8.08447C49.1652 8.08447 47.6152 8.72649 46.4724 9.86929C45.3296 11.0121 44.6876 12.5621 44.6876 14.1782C44.6856 14.4709 44.7094 14.7632 44.7587 15.0517C44.9152 16.2393 45.4288 17.3514 46.2314 18.2407C46.7201 18.781 47.297 19.2344 47.9376 19.5813C48.09 19.6626 48.2423 19.7337 48.4048 19.8048C48.847 19.9913 49.3112 20.121 49.7861 20.1907C50.444 20.3126 51.1187 20.3126 51.7767 20.1907C51.804 20.1982 51.8332 20.1945 51.8579 20.1806C52.4756 20.078 53.0725 19.8757 53.6251 19.5813C54.8295 18.9449 55.7863 17.9238 56.3432 16.6806C56.9 15.4374 57.0248 14.0436 56.6977 12.7212C56.3706 11.3988 55.6105 10.2239 54.5383 9.38366C53.4661 8.54338 52.1436 8.08604 50.7814 8.08447ZM54.8236 14.5946C54.7328 15.5779 54.2865 16.4944 53.5684 17.1721C52.8502 17.8499 51.9094 18.2424 50.9225 18.276C49.9356 18.3097 48.9703 17.9822 48.2076 17.3549C47.4449 16.7276 46.9373 15.8437 46.7798 14.8688C46.7389 14.6409 46.7185 14.4098 46.7189 14.1782C46.7189 14.0563 46.729 13.9243 46.7392 13.8024C46.8398 12.8003 47.3091 11.8712 48.056 11.1955C48.8029 10.5198 49.7742 10.1457 50.7814 10.1457C51.7886 10.1457 52.7598 10.5198 53.5068 11.1955C54.2537 11.8712 54.723 12.8003 54.8236 13.8024C54.8337 13.9243 54.8439 14.0563 54.8439 14.1782C54.8439 14.3204 54.8337 14.4524 54.8236 14.5946Z" fill="#FFB936"/>
</g>
<defs>
<clipPath id="clip0_348_2708">
<rect width="65" height="65" fill="white"/>
</clipPath>
</defs>
</svg>
