<svg width="75" height="66" viewBox="0 0 75 66" fill="none" xmlns="http://www.w3.org/2000/svg">
<path d="M64.9991 45.4392H64.5944L60.1671 35.1129C60.9177 35.4419 61.7268 35.617 62.5463 35.628C62.8715 35.628 63.1835 35.4988 63.4135 35.2688C63.6435 35.0388 63.7727 34.7268 63.7727 34.4016V24.5904C63.7727 24.2651 63.6435 23.9532 63.4135 23.7232C63.1835 23.4932 62.8715 23.364 62.5463 23.364C61.2691 23.3709 60.026 23.7765 58.9905 24.524C57.9549 25.2715 57.1786 26.3237 56.7699 27.5338C56.4091 27.0299 55.9485 26.6056 55.4169 26.287C54.8853 25.9685 54.2939 25.7625 53.6794 25.6819C52.9004 25.5813 52.1094 25.6312 51.3493 25.8291H50.2823C48.2097 25.8291 47.2899 24.6027 45.8427 22.6036L45.1192 21.5857C45.8613 21.5479 46.5804 21.3152 47.204 20.9112C47.6773 20.5677 48.078 20.1341 48.3831 19.6353C48.6883 19.1365 48.8919 18.5824 48.9823 18.0046C49.3809 17.775 49.7295 17.4679 50.0075 17.1014C50.2856 16.7349 50.4874 16.3165 50.6012 15.8707C50.653 15.5191 50.6187 15.1603 50.5012 14.8249C50.3837 14.4895 50.1865 14.1876 49.9266 13.9453C49.4259 13.0879 49.1515 12.1172 49.1295 11.1246C49.4461 11.1056 49.7431 10.9647 49.958 10.7315C50.173 10.4982 50.2892 10.1907 50.2823 9.87363C50.2824 8.57378 50.0243 7.28686 49.5228 6.08763C49.0213 4.88841 48.2865 3.80078 47.3611 2.88794C46.4358 1.97511 45.3382 1.25525 44.1322 0.770204C42.9263 0.285155 41.6359 0.044578 40.3362 0.062451C37.7856 0.112661 35.3535 1.14824 33.5496 2.95213C31.7457 4.75601 30.7102 7.18815 30.6599 9.73873C30.637 11.0391 30.8748 12.3308 31.3592 13.5378C31.8437 14.7447 32.565 15.8424 33.4807 16.766C33.752 17.0357 34.0386 17.2896 34.3391 17.5264C29.6052 18.6792 27.1157 23.1187 25.8402 26.9696C25.4773 26.6039 25.0455 26.3137 24.5697 26.1159C24.094 25.918 23.5838 25.8163 23.0685 25.8168H10.0442C9.39015 25.8157 8.74634 25.9791 8.17199 26.292C7.59764 26.6049 7.11121 27.0572 6.75745 27.6073C6.58018 27.8806 6.51871 28.213 6.58656 28.5316C6.65441 28.8501 6.84602 29.1286 7.11924 29.3059C7.39246 29.4832 7.72491 29.5446 8.04345 29.4768C8.36199 29.4089 8.64053 29.2173 8.8178 28.9441C8.94994 28.7394 9.13163 28.5714 9.34602 28.4556C9.56041 28.3398 9.80055 28.2801 10.0442 28.2819H12.264V31.9611C12.264 32.2863 12.3932 32.5983 12.6232 32.8282C12.8532 33.0582 13.1651 33.1875 13.4904 33.1875H19.6224C19.9476 33.1875 20.2596 33.0582 20.4896 32.8282C20.7196 32.5983 20.8488 32.2863 20.8488 31.9611V28.2696H23.0685C23.2602 28.2696 23.45 28.3073 23.627 28.3807C23.8041 28.454 23.965 28.5615 24.1005 28.6971C24.236 28.8326 24.3435 28.9935 24.4169 29.1705C24.4902 29.3476 24.528 29.5374 24.528 29.729V39.0864C24.5247 39.4714 24.3695 39.8394 24.0962 40.1105C23.8228 40.3815 23.4535 40.5336 23.0685 40.5336H10.0442C9.69297 40.5433 9.35039 40.4238 9.0814 40.1978C8.81241 39.9717 8.6357 39.6548 8.58478 39.3072H11.0376C11.3628 39.3072 11.6748 39.178 11.9048 38.948C12.1348 38.718 12.264 38.406 12.264 38.0808C12.264 37.7555 12.1348 37.4436 11.9048 37.2136C11.6748 36.9836 11.3628 36.8544 11.0376 36.8544H8.58478V34.4016H9.81118C10.1364 34.4016 10.4484 34.2724 10.6784 34.0424C10.9084 33.8124 11.0376 33.5005 11.0376 33.1752C11.0376 32.8499 10.9084 32.538 10.6784 32.308C10.4484 32.078 10.1364 31.9488 9.81118 31.9488H3.67919C3.35393 31.9488 3.04199 32.078 2.812 32.308C2.582 32.538 2.4528 32.8499 2.4528 33.1752C2.4528 33.5005 2.582 33.8124 2.812 34.0424C3.04199 34.2724 3.35393 34.4016 3.67919 34.4016H6.13199V36.8544H1.2264C0.901137 36.8544 0.589198 36.9836 0.359203 37.2136C0.129209 37.4436 0 37.7555 0 38.0808C0 38.406 0.129209 38.718 0.359203 38.948C0.589198 39.178 0.901137 39.3072 1.2264 39.3072H6.13199C6.18831 40.3007 6.62226 41.235 7.345 41.919C8.06774 42.603 9.02459 42.9848 10.0197 42.9864H16.1517C15.5841 43.5429 15.1008 44.1791 14.7168 44.875C13.079 48.0867 12.2378 51.6453 12.264 55.2503C12.264 55.5756 12.3932 55.8875 12.6232 56.1175C12.8532 56.3475 13.1651 56.4767 13.4904 56.4767H17.2554C17.5693 58.8337 18.7284 60.9965 20.5173 62.5629C22.3061 64.1294 24.603 64.9929 26.9807 64.9929C29.3585 64.9929 31.6554 64.1294 33.4442 62.5629C35.2331 60.9965 36.3922 58.8337 36.7061 56.4767H55.2737C55.5098 58.3504 56.2816 60.1162 57.4965 61.562C58.7115 63.0079 60.3178 64.0724 62.1229 64.6277C63.9279 65.1831 65.8548 65.2057 67.6723 64.6928C69.4899 64.18 71.1208 63.1534 72.3693 61.7365C73.6178 60.3195 74.4308 58.5724 74.7108 56.7047C74.9907 54.8371 74.7257 52.9283 73.9475 51.2076C73.1693 49.4868 71.9111 48.0272 70.3238 47.004C68.7365 45.9808 66.8876 45.4375 64.9991 45.4392ZM18.396 30.7224H14.7168V28.2696H18.396V30.7224ZM61.3199 26.0253V32.9667C60.6012 32.7139 59.9788 32.2442 59.5384 31.6225C59.0981 31.0009 58.8616 30.2578 58.8616 29.496C58.8616 28.7342 59.0981 27.9911 59.5384 27.3694C59.9788 26.7478 60.6012 26.2781 61.3199 26.0253ZM53.3238 28.0979C53.8045 28.1699 54.2512 28.3889 54.6026 28.7248C54.9539 29.0608 55.1926 29.4972 55.286 29.9743L55.6049 30.7224C53.8974 31.6001 51.9923 32.0226 50.0738 31.9488C49.9049 31.2203 49.9934 30.4557 50.3242 29.785C50.6551 29.1143 51.208 28.5789 51.8889 28.2696C52.3514 28.1196 52.8396 28.0653 53.3238 28.1102V28.0979ZM47.2776 16.1283C47.0735 16.2311 46.9022 16.3889 46.783 16.584C46.6638 16.779 46.6015 17.0035 46.6031 17.232C46.594 17.5408 46.5206 17.8442 46.3876 18.123C46.2546 18.4017 46.0648 18.6496 45.8305 18.8509C45.1314 19.3169 43.8315 19.2065 42.1513 18.5443C42.0616 18.5343 41.9711 18.5343 41.8815 18.5443L41.6975 18.3848V13.6877C41.6975 13.0014 41.9701 12.3432 42.4554 11.8579C42.9407 11.3727 43.5989 11.1 44.2852 11.1H46.6031C46.6417 12.6876 47.1401 14.2298 48.038 15.5396C47.8161 15.7769 47.5598 15.9795 47.2776 16.1405V16.1283ZM33.1127 9.76326C33.1741 7.86043 33.9574 6.05229 35.3036 4.70609C36.6498 3.35989 38.4579 2.57658 40.3607 2.51525H40.4711C42.2109 2.51411 43.8948 3.12944 45.2239 4.25202C46.553 5.3746 47.4414 6.9318 47.7314 8.64723H44.2852C42.9494 8.65047 41.6692 9.18256 40.7246 10.1271C39.7801 11.0717 39.248 12.3519 39.2447 13.6877V17.1339C37.5125 16.8413 35.9422 15.9386 34.8175 14.589C33.6929 13.2395 33.0882 11.5321 33.1127 9.77552V9.76326ZM36.7919 19.6848C40.8022 19.6848 42.2739 21.782 43.8315 23.9895C44.9597 25.6083 46.2842 27.3743 48.4918 27.9998C47.7973 29.1218 47.4834 30.4379 47.5965 31.7526C46.0743 31.42 44.6386 30.7725 43.3819 29.8515C42.1251 28.9306 41.0751 27.7567 40.2994 26.4055C40.2326 26.2434 40.1318 26.0975 40.0038 25.9777C39.8759 25.8578 39.7237 25.7668 39.5576 25.7108C39.3914 25.6547 39.2152 25.635 39.0408 25.6528C38.8664 25.6706 38.6978 25.7257 38.5465 25.8142C38.3951 25.9027 38.2645 26.0226 38.1635 26.1659C38.0624 26.3091 37.9932 26.4724 37.9606 26.6447C37.928 26.8169 37.9327 26.9942 37.9744 27.1645C38.0161 27.3348 38.0938 27.4942 38.2023 27.6319C38.6469 28.3779 39.1557 29.0837 39.723 29.7413L39.6126 29.8149C38.4694 31.1298 37.6652 32.7045 37.2702 34.4016H26.9807V33.1752C27.0666 32.4271 28.4647 19.6848 36.7919 19.6848ZM26.9807 39.0742V36.8544H38.0183C38.2636 36.8544 44.1503 36.928 44.1503 42.9864V49.1184H39.2447V46.6656C39.2757 45.852 39.1383 45.0408 38.8411 44.2828C38.5439 43.5248 38.0934 42.8364 37.5177 42.2607C36.9419 41.6849 36.2535 41.2344 35.4955 40.9372C34.7375 40.64 33.9263 40.5026 33.1127 40.5336H26.6987C26.886 40.0699 26.9818 39.5743 26.9807 39.0742ZM26.9807 62.6087C25.2431 62.607 23.5621 61.9903 22.2355 60.868C20.909 59.7457 20.0223 58.1901 19.7327 56.4767H22.2469C22.5293 57.516 23.1458 58.4334 24.0013 59.0874C24.8569 59.7415 25.9038 60.0958 26.9807 60.0958C28.0577 60.0958 29.1046 59.7415 29.9602 59.0874C30.8157 58.4334 31.4322 57.516 31.7146 56.4767H34.2288C33.9391 58.1901 33.0525 59.7457 31.726 60.868C30.3994 61.9903 28.7184 62.607 26.9807 62.6087ZM24.8713 56.4767H29.0902C28.873 56.8428 28.5643 57.146 28.1945 57.3566C27.8246 57.5672 27.4063 57.6779 26.9807 57.6779C26.5552 57.6779 26.1369 57.5672 25.767 57.3566C25.3972 57.146 25.0885 56.8428 24.8713 56.4767ZM14.7168 54.0239C14.8732 51.2012 15.6344 48.445 16.9488 45.942C17.437 45.0343 18.1654 44.2785 19.0545 43.7572C19.9435 43.2358 20.9588 42.9692 21.9893 42.9864H33.1127C33.6029 42.9598 34.0931 43.0368 34.5515 43.2123C35.0099 43.3878 35.4262 43.6579 35.7733 44.005C36.1204 44.3521 36.3905 44.7684 36.566 45.2268C36.7415 45.6852 36.8185 46.1754 36.7919 46.6656V50.3448C36.7919 51.6715 37.2223 52.9625 38.0183 54.0239H14.7168ZM42.9239 54.0239C42.1648 54.0218 41.425 53.785 40.8058 53.3458C40.1867 52.9067 39.7185 52.2868 39.4655 51.5712H45.3767C45.6969 51.5505 46.0178 51.597 46.319 51.7075C46.6202 51.818 46.895 51.9901 47.1259 52.2129C47.3567 52.4357 47.5385 52.7042 47.6597 53.0013C47.7809 53.2983 47.8387 53.6174 47.8295 53.9381C47.4229 53.9923 47.0133 54.021 46.6031 54.0239H42.9239ZM50.7851 52.5891C50.6079 52.7895 50.406 52.9667 50.1842 53.1164C50.0495 52.1892 49.6342 51.3255 48.9939 50.6414C48.3537 49.9573 47.5194 49.4857 46.6031 49.2901V42.9864C46.7137 40.9853 46.0735 39.015 44.8078 37.4612C43.542 35.9073 41.7419 34.8819 39.7598 34.5855C40.0742 33.4856 40.6128 32.4625 41.3419 31.5809C41.3736 31.5379 41.4023 31.4929 41.4277 31.446C43.3313 32.9901 45.6219 33.9826 48.0503 34.3157L51.5087 49.3514C51.7029 50.4838 51.4429 51.6471 50.7851 52.5891ZM53.9615 48.8485L50.5889 34.4016C52.6641 34.4207 54.7145 33.9501 56.5737 33.028L62.3623 46.5184L57.0152 54.0239H52.7351C53.2734 53.2862 53.6591 52.4484 53.8696 51.5598C54.0802 50.6711 54.1114 49.7494 53.9615 48.8485ZM64.9991 54.0239H62.8897C63.1596 53.5563 63.5764 53.1909 64.0752 52.9843C64.5741 52.7776 65.1271 52.7414 65.6487 52.8811C66.1702 53.0209 66.6311 53.3288 66.9598 53.7572C67.2885 54.1855 67.4667 54.7104 67.4667 55.2503C67.4667 55.7903 67.2885 56.3151 66.9598 56.7435C66.6311 57.1719 66.1702 57.4798 65.6487 57.6196C65.1271 57.7593 64.5741 57.7231 64.0752 57.5164C63.5764 57.3098 63.1596 56.9443 62.8897 56.4767H64.9991C65.3243 56.4767 65.6363 56.3475 65.8663 56.1175C66.0963 55.8875 66.2255 55.5756 66.2255 55.2503C66.2255 54.9251 66.0963 54.6131 65.8663 54.3831C65.6363 54.1532 65.3243 54.0239 64.9991 54.0239ZM60.0199 54.0239L60.4491 53.423C60.375 53.6192 60.3136 53.8199 60.2652 54.0239H60.0199ZM64.9991 62.6087C63.2614 62.607 61.5805 61.9903 60.2539 60.868C58.9273 59.7457 58.0407 58.1901 57.7511 56.4767H60.2652C60.5338 57.5112 61.1328 58.4297 61.9713 59.0924C62.8098 59.7552 63.8418 60.126 64.9103 60.1485C65.9788 60.1709 67.0255 59.8438 67.8911 59.2168C68.7566 58.5899 69.3937 57.6974 69.7055 56.6751C70.0173 55.6528 69.9867 54.5567 69.6184 53.5533C69.2501 52.55 68.5642 51.6945 67.665 51.1168C66.7658 50.5391 65.7025 50.2708 64.6369 50.3528C63.5713 50.4349 62.5616 50.8626 61.7614 51.5712L64.3736 47.892C64.5821 47.892 64.7906 47.892 64.9991 47.892C66.9506 47.892 68.8223 48.6672 70.2022 50.0472C71.5822 51.4271 72.3575 53.2988 72.3575 55.2503C72.3575 57.2019 71.5822 59.0735 70.2022 60.4535C68.8223 61.8335 66.9506 62.6087 64.9991 62.6087Z" fill="#FFB936"/>
</svg>
