<svg width="65" height="65" viewBox="0 0 65 65" fill="none" xmlns="http://www.w3.org/2000/svg">
<path d="M62.0014 48.3437C61.6319 47.3716 60.9424 46.5544 60.0464 46.0266C59.1504 45.4987 58.1014 45.2917 57.0721 45.4396L43.2804 47.4822C43.3973 46.4823 43.1714 45.4725 42.6397 44.6177C42.1079 43.763 41.3018 43.1141 40.3533 42.7772L29.0022 39.0584C27.0345 38.4187 24.914 38.424 22.9495 39.0737L14.7991 41.7905C14.6011 40.8857 14.1001 40.0757 13.3791 39.4943C12.6581 38.913 11.7602 38.5953 10.834 38.5937H6.77148C5.6944 38.5948 4.66177 39.0232 3.90016 39.7848C3.13855 40.5465 2.71016 41.5791 2.70898 42.6562V57.552C2.71016 58.629 3.13855 59.6617 3.90016 60.4233C4.66177 61.1849 5.6944 61.6133 6.77148 61.6145H10.834C11.7213 61.6116 12.5832 61.3178 13.2876 60.7782C13.992 60.2385 14.5 59.4828 14.7339 58.6269L20.503 57.6656C21.2289 57.5434 21.9748 57.6555 22.6328 57.9856L29.2079 61.2737C30.3398 61.8431 31.5733 62.1826 32.8371 62.2725C34.101 62.3623 35.3701 62.2009 36.5712 61.7974L59.1787 54.2608C59.7594 54.0674 60.295 53.7588 60.7537 53.3535C61.2123 52.9483 61.5845 52.4547 61.848 51.9023C62.1115 51.3499 62.2609 50.7501 62.2873 50.1386C62.3136 49.5272 62.2164 48.9167 62.0014 48.3437ZM12.1882 57.552C12.1877 57.911 12.0449 58.2551 11.791 58.509C11.5372 58.7629 11.193 58.9057 10.834 58.9062H6.77148C6.41247 58.9057 6.0683 58.7629 5.81443 58.509C5.56057 58.2551 5.41775 57.911 5.41728 57.552V42.6562C5.41775 42.2972 5.56057 41.953 5.81443 41.6991C6.0683 41.4453 6.41247 41.3024 6.77148 41.302H10.834C11.193 41.3024 11.5372 41.4453 11.791 41.6991C12.0449 41.953 12.1877 42.2972 12.1882 42.6562V57.552ZM59.4035 50.7355C59.2974 50.9598 59.1468 51.1602 58.9609 51.3245C58.7749 51.4887 58.5574 51.6134 58.3217 51.6909L35.7149 59.2275C34.8511 59.5181 33.9383 59.6344 33.0293 59.5697C32.1202 59.505 31.2331 59.2605 30.4192 58.8506L23.844 55.5625C22.6747 54.9748 21.3483 54.7756 20.0579 54.9939L14.8965 55.8538V44.6129L23.8063 41.6431C25.2187 41.1752 26.7436 41.1713 28.1584 41.6318L39.4685 45.3365C39.8797 45.4858 40.2198 45.7841 40.4214 46.1722C40.6231 46.5604 40.6716 47.0101 40.5573 47.4324C40.443 47.8546 40.1743 48.2185 39.8044 48.452C39.4345 48.6854 38.9904 48.7714 38.56 48.6929L26.2192 46.4495C25.8671 46.3884 25.5052 46.469 25.2123 46.6736C24.9193 46.8782 24.7191 47.1903 24.6553 47.5418C24.5914 47.8934 24.6691 48.2559 24.8714 48.5505C25.0737 48.845 25.3842 49.0477 25.7352 49.1143L38.0751 51.3578C38.6968 51.4714 39.3356 51.4505 39.9486 51.2965C40.5616 51.1425 41.1344 50.8589 41.6286 50.4649L57.4686 48.1186C57.8856 48.0578 58.311 48.1412 58.6741 48.3552C59.0373 48.5691 59.3164 48.9007 59.4654 49.2949C59.5534 49.5267 59.5933 49.7739 59.5827 50.0216C59.572 50.2693 59.5111 50.5121 59.4035 50.7355Z" fill="#FFB936"/>
<path d="M32.8398 22.6778C33.015 22.7446 33.1751 22.8048 33.308 22.8633C33.5017 22.9482 33.7245 23.0342 33.964 23.1258C35.293 23.6336 35.8862 23.9686 35.8862 24.6112C35.8862 24.8925 35.5859 25.3292 35.0127 25.6196C34.6065 25.8249 33.1402 26.3873 31.2715 25.0139C30.9822 24.8012 30.6202 24.7121 30.2651 24.7663C29.9101 24.8205 29.5912 25.0135 29.3785 25.3029C29.1658 25.5923 29.0767 25.9543 29.1309 26.3093C29.1851 26.6643 29.3781 26.9832 29.6675 27.196C30.5084 27.8231 31.4748 28.2615 32.5006 28.4812V29.7914C32.504 30.1483 32.6482 30.4893 32.9018 30.7405C33.1554 30.9916 33.4978 31.1325 33.8547 31.1325C34.2116 31.1325 34.5541 30.9916 34.8076 30.7405C35.0612 30.4893 35.2054 30.1483 35.2089 29.7914V28.4101C35.5627 28.3204 35.9065 28.1952 36.235 28.0363C37.6904 27.3001 38.5943 25.9871 38.5943 24.6112C38.5943 21.996 36.2106 21.0849 34.9298 20.5957C34.7374 20.5219 34.557 20.4539 34.4016 20.3854C34.2309 20.31 34.0267 20.2317 33.8012 20.1461C32.519 19.6591 31.8235 19.2743 31.8235 18.6373C31.8235 18.356 32.1238 17.9192 32.697 17.6289C33.1032 17.4236 34.5695 16.8612 36.4381 18.2346C36.7276 18.4446 37.0885 18.5316 37.4418 18.4765C37.7952 18.4214 38.1125 18.2288 38.3243 17.9406C38.5361 17.6524 38.6254 17.2922 38.5725 16.9385C38.5197 16.5847 38.329 16.2663 38.0422 16.0526C37.2011 15.4255 36.2347 14.9872 35.2089 14.7675V13.5416C35.2106 13.3627 35.1768 13.1852 35.1096 13.0194C35.0423 12.8536 34.9428 12.7027 34.8169 12.5756C34.691 12.4485 34.5411 12.3475 34.376 12.2787C34.2108 12.2098 34.0337 12.1743 33.8547 12.1743C33.6758 12.1743 33.4986 12.2098 33.3335 12.2787C33.1683 12.3475 33.0184 12.4485 32.8925 12.5756C32.7666 12.7027 32.6671 12.8536 32.5999 13.0194C32.5326 13.1852 32.4988 13.3627 32.5006 13.5416V14.8314C32.1465 14.9233 31.8027 15.0509 31.4744 15.2122C30.019 15.9485 29.1152 17.261 29.1152 18.6373C29.1151 21.2634 31.6304 22.2189 32.8398 22.6778Z" fill="#FFB936"/>
<path d="M33.8549 36.5626C36.801 36.5626 39.6809 35.6889 42.1305 34.0521C44.5801 32.4153 46.4893 30.0889 47.6167 27.3671C48.7441 24.6452 49.0391 21.6502 48.4643 18.7607C47.8896 15.8712 46.4709 13.217 44.3876 11.1338C42.3044 9.05063 39.6502 7.63196 36.7608 7.05721C33.8713 6.48246 30.8762 6.77746 28.1544 7.90489C25.4325 9.03232 23.1061 10.9416 21.4694 13.3911C19.8326 15.8407 18.959 18.7207 18.959 21.6668C18.9635 25.6161 20.5343 29.4023 23.3268 32.1948C26.1194 34.9874 29.9056 36.5581 33.8549 36.5626ZM33.8549 9.47929C36.2654 9.47929 38.6217 10.1941 40.6259 11.5333C42.6301 12.8724 44.1922 14.7759 45.1147 17.0028C46.0371 19.2298 46.2785 21.6803 45.8082 24.0445C45.338 26.4086 44.1772 28.5802 42.4728 30.2847C40.7683 31.9891 38.5967 33.1499 36.2326 33.6201C33.8684 34.0904 31.4179 33.849 29.1909 32.9266C26.964 32.0041 25.0605 30.442 23.7214 28.4378C22.3822 26.4336 21.6674 24.0773 21.6674 21.6668C21.6711 18.4356 22.9563 15.3378 25.2411 13.053C27.5259 10.7682 30.6237 9.48299 33.8549 9.47929Z" fill="#FFB936"/>
<path d="M54.5639 41.5826C54.6897 41.7084 54.8389 41.8081 55.0032 41.8762C55.1675 41.9443 55.3435 41.9793 55.5214 41.9793C55.6992 41.9793 55.8753 41.9443 56.0395 41.8762C56.2038 41.8081 56.3531 41.7084 56.4788 41.5826L60.5413 37.5201C60.7904 37.2652 60.9289 36.9223 60.9269 36.5659C60.9248 36.2095 60.7823 35.8683 60.5303 35.6163C60.2783 35.3642 59.9371 35.2217 59.5806 35.2197C59.2242 35.2176 58.8814 35.3562 58.6264 35.6053L56.8755 37.3561V24.3751C56.8772 24.1962 56.8435 24.0187 56.7762 23.8529C56.7089 23.6871 56.6095 23.5362 56.4836 23.4091C56.3576 23.282 56.2078 23.181 56.0426 23.1122C55.8775 23.0433 55.7003 23.0078 55.5214 23.0078C55.3424 23.0078 55.1653 23.0433 55.0001 23.1122C54.835 23.181 54.6851 23.282 54.5592 23.4091C54.4333 23.5362 54.3338 23.6871 54.2665 23.8529C54.1992 24.0187 54.1655 24.1962 54.1672 24.3751V37.3561L52.4163 35.6052C52.2911 35.477 52.1417 35.375 51.9768 35.305C51.8119 35.2351 51.6348 35.1985 51.4556 35.1975C51.2765 35.1964 51.099 35.231 50.9333 35.299C50.7676 35.3671 50.617 35.4674 50.4904 35.5941C50.3637 35.7207 50.2634 35.8713 50.1953 36.037C50.1273 36.2027 50.0927 36.3802 50.0938 36.5593C50.0948 36.7385 50.1314 36.9156 50.2014 37.0805C50.2713 37.2454 50.3733 37.3948 50.5014 37.52L54.5639 41.5826Z" fill="#FFB936"/>
<path d="M52.8131 13.5415C53.1722 13.5415 53.5167 13.3988 53.7706 13.1449C54.0246 12.8909 54.1673 12.5464 54.1673 12.1873V4.06229C54.1638 3.70542 54.0196 3.36434 53.766 3.11321C53.5125 2.86207 53.17 2.72119 52.8131 2.72119C52.4562 2.72119 52.1138 2.86207 51.8602 3.11321C51.6066 3.36434 51.4624 3.70542 51.459 4.06229V12.1873C51.459 12.5464 51.6016 12.8909 51.8556 13.1448C52.1095 13.3988 52.4539 13.5415 52.8131 13.5415Z" fill="#FFB936"/>
<path d="M58.2291 18.9583C58.5883 18.9583 58.9328 18.8157 59.1867 18.5617C59.4407 18.3077 59.5834 17.9633 59.5834 17.6041V9.47914C59.5851 9.3002 59.5513 9.1227 59.4841 8.95689C59.4168 8.79108 59.3173 8.64024 59.1914 8.5131C59.0655 8.38596 58.9156 8.28503 58.7505 8.21616C58.5853 8.14728 58.4082 8.11182 58.2292 8.11182C58.0503 8.11182 57.8731 8.14728 57.7079 8.21616C57.5428 8.28503 57.3929 8.38596 57.267 8.5131C57.1411 8.64024 57.0416 8.79108 56.9744 8.95689C56.9071 9.1227 56.8733 9.3002 56.8751 9.47914V17.6041C56.8751 17.9633 57.0177 18.3077 57.2717 18.5617C57.5256 18.8156 57.87 18.9583 58.2291 18.9583Z" fill="#FFB936"/>
<path d="M13.5416 16.2499C13.9008 16.2499 14.2453 16.1072 14.4992 15.8532C14.7532 15.5992 14.8959 15.2548 14.8959 14.8956V6.77064C14.8976 6.59171 14.8638 6.41421 14.7966 6.24839C14.7293 6.08258 14.6298 5.93175 14.5039 5.80461C14.378 5.67746 14.2281 5.57654 14.063 5.50766C13.8978 5.43878 13.7207 5.40332 13.5417 5.40332C13.3628 5.40332 13.1856 5.43878 13.0204 5.50766C12.8553 5.57654 12.7054 5.67746 12.5795 5.80461C12.4536 5.93175 12.3541 6.08258 12.2869 6.24839C12.2196 6.41421 12.1858 6.59171 12.1876 6.77064V14.8956C12.1876 15.2548 12.3302 15.5992 12.5842 15.8532C12.8381 16.1071 13.1825 16.2498 13.5416 16.2499Z" fill="#FFB936"/>
<path d="M8.12557 24.375C8.48472 24.375 8.82917 24.2323 9.08314 23.9784C9.3371 23.7244 9.47978 23.3799 9.47978 23.0208V14.8958C9.47632 14.5389 9.33213 14.1978 9.07855 13.9467C8.82498 13.6956 8.48252 13.5547 8.12563 13.5547C7.76874 13.5547 7.42628 13.6956 7.17271 13.9467C6.91913 14.1978 6.77494 14.5389 6.77148 14.8958V23.0208C6.77148 23.3799 6.91414 23.7243 7.16808 23.9783C7.42201 24.2323 7.76643 24.375 8.12557 24.375Z" fill="#FFB936"/>
</svg>
