<svg width="65" height="65" viewBox="0 0 65 65" fill="none" xmlns="http://www.w3.org/2000/svg">
<g clip-path="url(#clip0_348_2734)">
<path d="M46.0284 21.9074L45.3329 19.6183C44.4494 17.018 41.6253 15.6264 39.025 16.5098C37.5622 17.0068 36.4135 18.1555 35.9165 19.6183L35.221 21.9074C34.6358 23.8379 34.5129 25.879 34.8624 27.8657C35.1812 29.5384 36.2432 30.9754 37.7484 31.7711L36.9695 49.1836C36.8653 50.1555 37.1805 51.1257 37.8362 51.8507C39.2463 53.3931 41.6399 53.5004 43.1823 52.0903C43.2657 52.014 43.3456 51.9342 43.4219 51.8507C44.0629 51.1463 44.3776 50.2045 44.2885 49.2561L43.5053 31.769C45.0085 30.9729 46.0687 29.5368 46.3869 27.8657C46.7365 25.879 46.6136 23.8379 46.0284 21.9074ZM44.2528 27.4887C44.0182 28.6904 43.1619 29.6764 42.0049 30.0768C41.5657 30.2419 41.2828 30.6709 41.3039 31.1396L42.1273 49.4273C42.1652 49.786 42.0468 50.1437 41.8023 50.4088C41.15 51.0546 40.0994 51.0546 39.4471 50.4088C39.1904 50.1223 39.0738 49.7366 39.1286 49.3558L39.9454 31.1396C39.9666 30.6709 39.6837 30.2419 39.2445 30.0768C38.0875 29.6764 37.2312 28.6904 36.9966 27.4887C36.7068 25.8394 36.8089 24.1449 37.2945 22.5422L37.99 20.2521C38.5282 18.797 40.144 18.0537 41.5992 18.5919C42.3685 18.8764 42.9748 19.4829 43.2594 20.2521L43.9549 22.5422C44.4399 24.145 44.542 25.8394 44.2528 27.4887Z" fill="#FFB936"/>
<path d="M29.2493 16.25C28.6511 16.25 28.166 16.7351 28.166 17.3333V26.6348L25.2334 29.5674C25.0165 29.7835 24.9011 30.0816 24.916 30.3875L25.8639 49.3458C25.8865 49.7547 25.7381 50.1545 25.4544 50.4498C24.8614 51.048 23.8957 51.0524 23.2972 50.4592C23.294 50.4561 23.2909 50.4529 23.2878 50.4498C23.0039 50.1545 22.8557 49.7547 22.8783 49.3458L23.8327 30.3875C23.8478 30.0817 23.7329 29.7838 23.5163 29.5674L20.5827 26.6348V17.3333C20.5827 16.7351 20.0976 16.25 19.4993 16.25C18.9011 16.25 18.416 16.7351 18.416 17.3333V27.0833C18.416 27.3707 18.5303 27.6461 18.7334 27.8493L21.6433 30.7602L20.7192 49.2407C20.6209 51.2594 22.1776 52.9757 24.1963 53.074C26.2149 53.1723 27.9312 51.6156 28.0295 49.5969C28.0353 49.4783 28.0353 49.3595 28.0295 49.2409L27.1054 30.7603L30.0153 27.8494C30.2184 27.6463 30.3327 27.3708 30.3327 27.0835V17.3335C30.3327 16.7351 29.8476 16.25 29.2493 16.25Z" fill="#FFB936"/>
<path d="M22.7493 16.25C22.1511 16.25 21.666 16.7351 21.666 17.3333V26C21.666 26.5983 22.1511 27.0833 22.7493 27.0833C23.3476 27.0833 23.8327 26.5983 23.8327 26V17.3333C23.8327 16.7351 23.3476 16.25 22.7493 16.25Z" fill="#FFB936"/>
<path d="M25.9993 16.25C25.4011 16.25 24.916 16.7351 24.916 17.3333V26C24.916 26.5983 25.4011 27.0833 25.9993 27.0833C26.5976 27.0833 27.0827 26.5983 27.0827 26V17.3333C27.0827 16.7351 26.5976 16.25 25.9993 16.25Z" fill="#FFB936"/>
<path d="M32.5 0C14.5508 0 0 14.5508 0 32.5C0 50.4492 14.5508 65 32.5 65C50.4492 65 65 50.4492 65 32.5C64.9797 14.5592 50.4408 0.0203125 32.5 0ZM32.5 62.8333C15.7473 62.8333 2.16667 49.2527 2.16667 32.5C2.16667 15.7473 15.7473 2.16667 32.5 2.16667C49.2527 2.16667 62.8333 15.7473 62.8333 32.5C62.8142 49.2447 49.2447 62.8142 32.5 62.8333Z" fill="#FFB936"/>
<path d="M36.0163 52.8356C35.9583 52.2402 35.4284 51.8045 34.8328 51.8626C34.8189 51.864 34.8049 51.8656 34.791 51.8675L34.7953 51.8664C33.2701 52.0435 31.7293 52.0435 30.2041 51.8664C29.6096 51.7967 29.0714 52.222 29.0016 52.8165C28.9319 53.411 29.3572 53.9493 29.9517 54.019C31.6432 54.2166 33.3519 54.2166 35.0434 54.019C35.6388 53.961 36.0744 53.4311 36.0163 52.8356Z" fill="#FFB936"/>
<path d="M49.0742 18.54C48.6897 18.0816 48.0064 18.0216 47.548 18.4062C47.5465 18.4074 47.545 18.4088 47.5434 18.41C47.0861 18.7957 47.0279 19.479 47.4134 19.9364C53.9452 27.6904 53.4456 39.156 46.264 46.3123C45.8401 46.7347 45.8389 47.4209 46.2613 47.8447C46.6837 48.2686 47.3698 48.2698 47.7937 47.8474C55.7747 39.8967 56.3313 27.1564 49.0742 18.54Z" fill="#FFB936"/>
<path d="M37.6105 11.4389C33.3767 10.4242 28.9363 10.6969 24.8585 12.2221C24.2985 12.4327 24.0153 13.0575 24.2259 13.6174C24.3846 14.0395 24.7881 14.3189 25.2389 14.3193C25.3685 14.3186 25.4969 14.2949 25.618 14.249C29.2902 12.8758 33.2888 12.6305 37.1013 13.5449C37.6829 13.6854 38.2683 13.3281 38.4089 12.7464C38.5494 12.1648 38.1921 11.5794 37.6105 11.4389Z" fill="#FFB936"/>
<path d="M18.6866 46.2585C15.0346 42.6126 12.9878 37.6606 13.0002 32.5001C12.9895 28.3772 14.2955 24.3586 16.728 21.0298C17.0875 20.5515 16.9912 19.8724 16.5129 19.5129C16.0346 19.1533 15.3555 19.2496 14.996 19.7279C14.9896 19.7364 14.9834 19.745 14.9773 19.7536C8.71388 28.3645 9.63553 40.2502 17.1516 47.7925C17.5751 48.2163 18.2622 48.2166 18.6861 47.793C19.11 47.3694 19.1102 46.6823 18.6866 46.2585Z" fill="#FFB936"/>
</g>
<defs>
<clipPath id="clip0_348_2734">
<rect width="65" height="65" fill="white"/>
</clipPath>
</defs>
</svg>
