<svg width="78" height="68" viewBox="0 0 78 68" fill="none" xmlns="http://www.w3.org/2000/svg">
<path d="M77.2825 21.6096L66.0563 13.7538V2.27892C65.9437 1.14222 65.0598 0.229896 63.9179 0.0722656H14.7369C13.5951 0.230065 12.7111 1.14222 12.5985 2.27892V13.6655L0.926861 21.6095C0.464537 21.942 0.171727 22.4578 0.125 23.0217V64.9488C0.276777 66.0995 1.19085 67.0053 2.35237 67.1555H76.3024C77.2825 67.1555 77.6389 66.0079 77.6389 64.9488V23.0219C77.6389 22.4922 77.7279 21.9626 77.2825 21.6096ZM66.0563 17.9906L73.7186 23.1983L66.0563 28.9356V17.9906ZM16.1624 3.60298H62.4924V31.6721L39.3273 48.9726L16.1622 31.6721V3.60298H16.1624ZM12.5985 17.9024V29.0242L4.93616 23.1984L12.5985 17.9024ZM3.68886 26.8174L28.6359 45.5301L3.68886 62.2127V26.8174ZM7.96557 63.6249L31.6651 47.8251L37.991 52.5915C38.3491 52.8657 38.7859 53.0203 39.2383 53.0328C39.5947 53.0328 39.7729 52.8562 40.1292 52.5915L46.7223 47.5602L70.6892 63.6249H7.96557ZM74.0751 61.5948L49.6627 45.3535L74.0751 26.8174V61.5948Z" fill="#00813D"/>
<path d="M25.071 15.0776H33.0896C34.0738 15.0776 34.8715 14.2872 34.8715 13.3122C34.8715 12.3372 34.0738 11.5469 33.0896 11.5469H25.071C24.0868 11.5469 23.2891 12.3372 23.2891 13.3122C23.2891 14.2872 24.0868 15.0776 25.071 15.0776Z" fill="#00813D"/>
<path d="M25.071 23.0219H53.5819C54.5661 23.0219 55.3638 22.2316 55.3638 21.2566C55.3638 20.2816 54.5661 19.4912 53.5819 19.4912H25.071C24.0868 19.4912 23.2891 20.2816 23.2891 21.2566C23.2891 22.2316 24.0868 23.0219 25.071 23.0219Z" fill="#00813D"/>
<path d="M55.3637 29.2009C55.3637 28.2259 54.5659 27.4355 53.5817 27.4355H25.071C24.0868 27.4355 23.2891 28.2259 23.2891 29.2009C23.2891 30.1759 24.0868 30.9663 25.071 30.9663H53.5819C54.5659 30.9663 55.3637 30.1759 55.3637 29.2009Z" fill="#00813D"/>
</svg>
