<svg width="56" height="73" viewBox="0 0 56 73" fill="none" xmlns="http://www.w3.org/2000/svg">
<path d="M47.5867 58.4289C45.4135 57.4779 42.6076 56.7091 39.3696 56.1677C40.3145 55.2703 41.2807 54.3107 42.2493 53.2919C46.1178 49.2229 49.2046 45.0657 51.4241 40.9355C54.2298 35.7143 55.6524 30.519 55.6524 25.4939C55.6524 11.547 43.2782 0.200195 28.0684 0.200195C12.8586 0.200195 0.484375 11.547 0.484375 25.4939C0.484375 30.519 1.90694 35.7143 4.7127 40.9356C6.93214 45.0658 10.0189 49.223 13.8874 53.2921C14.856 54.3108 15.8223 55.2705 16.7672 56.1678C13.5292 56.7092 10.7233 57.478 8.55009 58.4291C4.41693 60.2377 3.54927 62.3023 3.54927 63.7156C3.54927 65.5053 4.8992 68.0512 11.3296 70.0169C15.8235 71.3904 21.768 72.1469 28.0684 72.1469C34.3687 72.1469 40.3132 71.3904 44.8071 70.0169C51.2376 68.0512 52.5875 65.5053 52.5875 63.7156C52.5875 62.3023 51.7198 60.2377 47.5867 58.4289ZM3.54927 25.4939C3.54927 13.0966 14.5485 3.01061 28.0684 3.01061C41.5882 3.01061 52.5875 13.0966 52.5875 25.4939C52.5875 35.9271 45.734 45.3389 39.9845 51.3973C35.0456 56.6016 30.0468 60.2976 28.0684 61.6834C26.0895 60.2972 21.0907 56.6012 16.1522 51.3974C10.4028 45.3389 3.54927 35.9271 3.54927 25.4939ZM43.8379 67.3507C39.6483 68.6312 34.048 69.3364 28.0684 69.3364C22.0888 69.3364 16.4885 68.6312 12.2989 67.3507C8.10292 66.0682 6.61416 64.5909 6.61416 63.7156C6.61416 62.2557 10.6079 59.7417 19.4614 58.6184C20.7726 59.7611 21.9935 60.7558 23.0604 61.5886C21.4347 62.1036 20.4062 62.8652 20.4062 63.7156C20.4062 65.2684 23.8373 66.526 28.0684 66.526C32.2995 66.526 35.7306 65.2684 35.7306 63.7156C35.7306 62.8652 34.702 62.1036 33.0764 61.5886C34.1433 60.7558 35.3642 59.7611 36.6754 58.6184C45.5289 59.7417 49.5226 62.2557 49.5226 63.7156C49.5226 64.5909 48.0338 66.0682 43.8379 67.3507Z" fill="#00813D"/>
<path d="M49.5257 25.4942C49.5257 14.6466 39.9013 5.82129 28.0714 5.82129C16.2416 5.82129 6.61719 14.6466 6.61719 25.4942C6.61719 36.3419 16.2416 45.1671 28.0714 45.1671C39.9013 45.1671 49.5257 36.3419 49.5257 25.4942ZM9.68208 25.4942C9.68208 16.1962 17.9315 8.63171 28.0714 8.63171C38.2113 8.63171 46.4608 16.1962 46.4608 25.4942C46.4608 34.7922 38.2113 42.3567 28.0714 42.3567C17.9315 42.3567 9.68208 34.7922 9.68208 25.4942Z" fill="#00813D"/>
<path d="M29.5992 35.3301C29.5992 36.1062 30.2853 36.7353 31.1317 36.7353H37.2614C38.1078 36.7353 38.7939 36.1062 38.7939 35.3301V28.304H41.8588C42.4951 28.304 43.0651 27.9436 43.2912 27.3982C43.5172 26.8529 43.3523 26.2361 42.8768 25.8486L29.0848 14.6069C28.5041 14.1336 27.6293 14.1336 27.0486 14.6069L13.2566 25.8486C12.7811 26.2361 12.6162 26.8529 12.8422 27.3982C13.0683 27.9436 13.6385 28.304 14.2748 28.304H17.3397V35.3301C17.3397 36.1062 18.0257 36.7353 18.8721 36.7353H25.0019C25.8483 36.7353 26.5343 36.1062 26.5343 35.3301V31.1145H29.5992V35.3301ZM25.0019 28.304C24.1555 28.304 23.4694 28.9331 23.4694 29.7092V33.9249H20.4046V26.8988C20.4046 26.1227 19.7185 25.4936 18.8721 25.4936H18.3054L28.0668 17.5372L37.8281 25.4936H37.2614C36.4151 25.4936 35.729 26.1227 35.729 26.8988V33.9249H32.6641V29.7092C32.6641 28.9331 31.978 28.304 31.1317 28.304H25.0019Z" fill="#00813D"/>
</svg>
