<svg width="71" height="71" viewBox="0 0 71 71" fill="none" xmlns="http://www.w3.org/2000/svg">
<path d="M55.6268 43.6322C54.1913 42.1514 52.4598 41.3597 50.6247 41.3597C48.8045 41.3597 47.0582 42.1368 45.5635 43.6176L40.8869 48.2359C40.5022 48.0307 40.1174 47.8401 39.7474 47.6495C39.2146 47.3856 38.7115 47.1363 38.2823 46.8724C33.9018 44.1161 29.9208 40.524 26.1026 35.8763C24.2528 33.5598 23.0096 31.6099 22.1069 29.6306C23.3204 28.531 24.4451 27.3874 25.5403 26.2878C25.9547 25.8772 26.369 25.4521 26.7834 25.0415C29.8912 21.9626 29.8912 17.9747 26.7834 14.8958L22.7432 10.8933C22.2845 10.4388 21.8109 9.96959 21.3669 9.50042C20.479 8.59141 19.5466 7.65308 18.5847 6.77339C17.1492 5.3659 15.4325 4.61816 13.627 4.61816C11.8215 4.61816 10.0752 5.3659 8.59531 6.77339C8.58051 6.78806 8.58051 6.78806 8.56571 6.80272L3.53402 11.8316C1.63973 13.7083 0.5594 15.9954 0.322615 18.6492C-0.0325635 22.9303 1.24016 26.9182 2.2169 29.5279C4.61435 35.935 8.19574 41.8729 13.5382 48.2359C20.0202 55.9038 27.8193 61.959 36.7284 66.2255C40.1322 67.8236 44.6755 69.7149 49.7516 70.0375C50.0624 70.0521 50.388 70.0668 50.6839 70.0668C54.1025 70.0668 56.9736 68.8499 59.223 66.4308C59.2378 66.4014 59.2674 66.3868 59.2822 66.3574C60.0518 65.4338 60.9397 64.5981 61.8721 63.7037C62.5084 63.1026 63.1596 62.4722 63.7959 61.8124C65.2611 60.3023 66.0306 58.5429 66.0306 56.7395C66.0306 54.9215 65.2463 53.1768 63.7515 51.7107L55.6268 43.6322ZM60.9249 59.0707C60.9101 59.0707 60.9101 59.0854 60.9249 59.0707C60.3478 59.6865 59.7558 60.2436 59.1194 60.8594C58.1575 61.7684 57.1807 62.7214 56.2632 63.7917C54.7685 65.3751 53.0074 66.1229 50.6987 66.1229C50.4768 66.1229 50.24 66.1229 50.018 66.1082C45.6227 65.8296 41.5381 64.1289 38.4747 62.6774C30.0984 58.6602 22.7432 52.9569 16.6312 45.7288C11.5847 39.703 8.21053 34.1316 5.97587 28.1498C4.59955 24.4991 4.09638 21.6547 4.31837 18.9717C4.46636 17.2563 5.13232 15.8342 6.36065 14.6173L11.4071 9.61771C12.1323 8.94329 12.9018 8.57675 13.6566 8.57675C14.5889 8.57675 15.3437 9.13388 15.8173 9.60305C15.8321 9.61771 15.8469 9.63237 15.8617 9.64703C16.7644 10.4827 17.6228 11.3478 18.5255 12.2714C18.9843 12.7406 19.4578 13.2098 19.9314 13.6936L23.9716 17.6962C25.5403 19.2503 25.5403 20.6871 23.9716 22.2412C23.5424 22.6664 23.128 23.0916 22.6988 23.5021C21.4557 24.763 20.2718 25.9359 18.9843 27.0795C18.9547 27.1088 18.9251 27.1235 18.9103 27.1528C17.6376 28.4137 17.8743 29.6452 18.1407 30.4809C18.1555 30.5249 18.1703 30.5689 18.1851 30.6129C19.2359 33.1346 20.7158 35.5098 22.9652 38.3395L22.98 38.3541C27.0646 43.339 31.3711 47.2243 36.1216 50.2005C36.7284 50.5817 37.35 50.8896 37.9419 51.1829C38.4747 51.4468 38.9779 51.696 39.407 51.9599C39.4662 51.9892 39.5254 52.0332 39.5846 52.0626C40.0878 52.3118 40.5614 52.4291 41.0497 52.4291C42.2781 52.4291 43.0476 51.6667 43.2992 51.4174L48.3605 46.4032C48.8637 45.9048 49.6628 45.3036 50.5951 45.3036C51.5127 45.3036 52.2674 45.8754 52.7262 46.3739C52.741 46.3886 52.741 46.3886 52.7558 46.4032L60.9101 54.4817C62.4344 55.9772 62.4344 57.5166 60.9249 59.0707Z" fill="#00813D"/>
<path d="M38.1054 17.1237C41.9828 17.7688 45.505 19.5868 48.3168 22.3725C51.1287 25.1582 52.9489 28.6476 53.6149 32.4889C53.7777 33.4565 54.6212 34.131 55.5832 34.131C55.7016 34.131 55.8052 34.1163 55.9236 34.1016C57.0187 33.9257 57.7438 32.8994 57.5663 31.8145C56.7671 27.1668 54.5472 22.9296 51.1583 19.5722C47.7693 16.2147 43.4923 14.0155 38.801 13.2238C37.7059 13.0478 36.6847 13.7662 36.4923 14.8365C36.3 15.9068 37.0103 16.9478 38.1054 17.1237Z" fill="#00813D"/>
<path d="M70.2485 31.2429C68.9313 23.5896 65.2908 16.6254 59.6967 11.0834C54.1026 5.54136 47.0731 1.93465 39.3479 0.629785C38.2676 0.439186 37.2465 1.17226 37.0541 2.24254C36.8765 3.32749 37.6016 4.33913 38.6968 4.52973C45.5932 5.68798 51.8828 8.92815 56.8849 13.8691C61.887 18.8246 65.1428 25.0557 66.3119 31.888C66.4747 32.8556 67.3182 33.53 68.2802 33.53C68.3986 33.53 68.5022 33.5154 68.6206 33.5007C69.7009 33.3394 70.4408 32.3131 70.2485 31.2429Z" fill="#00813D"/>
</svg>
