<svg width="36" height="41" viewBox="0 0 36 41" fill="none" xmlns="http://www.w3.org/2000/svg">
<g filter="url(#filter0_d_314_519)">
<path d="M4 8.85336L4 29.405C4 31.3921 5.61492 33 7.60199 33H18.8432C19.8403 33 20.739 32.5998 21.392 31.9468C22.045 31.3008 22.4452 30.4021 22.4452 29.405C22.4452 29.1663 22.6559 28.9837 22.9016 29.0189L26.7775 29.6227C27.1566 29.6859 27.3813 29.2365 27.1145 28.9697L22.5576 24.3145C22.4874 24.2373 22.4452 24.146 22.4452 24.0407V8.85336C22.4452 6.86628 20.8373 5.25137 18.8432 5.25137H7.60199C5.61492 5.25137 4 6.86628 4 8.85336ZM12.9172 24.7709L13.8861 25.768C13.9704 25.8522 14.0968 25.8943 14.2161 25.8733L15.5853 25.6345C15.8802 25.5854 16.1119 25.9014 15.9715 26.1682L15.3255 27.4039C15.2694 27.5093 15.2694 27.6356 15.3255 27.741L15.9715 28.9837C16.1119 29.2505 15.8872 29.5665 15.5853 29.5103L14.2161 29.2787C14.0968 29.2576 13.9774 29.2997 13.8931 29.384L12.9172 30.381C12.6995 30.5987 12.3344 30.4793 12.2853 30.1774L12.0886 28.8012C12.0746 28.6818 11.9974 28.5765 11.8921 28.5203L10.6352 27.9024C10.3614 27.769 10.3614 27.3758 10.6352 27.2424L11.8921 26.6316C11.9974 26.5754 12.0746 26.4701 12.0886 26.3507L12.2853 24.9745C12.3344 24.6726 12.6995 24.5532 12.9172 24.7709ZM12.9172 16.3241L13.8861 17.3212C13.9704 17.4054 14.0968 17.4476 14.2161 17.4265L15.5853 17.1878C15.8802 17.1386 16.1119 17.4476 15.9715 17.7214L15.3255 18.9572C15.2694 19.0625 15.2694 19.1889 15.3255 19.2942L15.9715 20.53C16.1119 20.8038 15.8872 21.1128 15.5853 21.0636L14.2161 20.8319C14.0968 20.8108 13.9774 20.853 13.8931 20.9372L12.9172 21.9342C12.6995 22.1519 12.3344 22.0326 12.2853 21.7306L12.0886 20.3544C12.0746 20.2351 11.9974 20.1297 11.8921 20.0736L10.6352 19.4557C10.3614 19.3223 10.3614 18.9291 10.6352 18.7957L11.8921 18.1848C11.9974 18.1287 12.0746 18.0233 12.0886 17.904L12.2853 16.5278C12.3344 16.2258 12.6995 16.1065 12.9172 16.3241ZM12.9172 7.87737L13.8861 8.87444C13.9704 8.95869 14.0968 8.99379 14.2161 8.97271L15.5853 8.74103C15.8802 8.68485 16.1119 9.00082 15.9715 9.27462L15.3255 10.5034C15.2694 10.6157 15.2694 10.7421 15.3255 10.8475L15.9715 12.0832C16.1119 12.35 15.8872 12.666 15.5853 12.6168L14.2161 12.3851C14.0968 12.3641 13.9774 12.4062 13.8931 12.4904L12.9172 13.4875C12.6995 13.7052 12.3344 13.5858 12.2853 13.2839L12.0886 11.9007C12.0746 11.7813 11.9974 11.683 11.8921 11.6268L10.6352 11.0089C10.3614 10.8685 10.3614 10.4823 10.6352 10.3489L11.8921 9.73103C11.9974 9.68188 12.0746 9.57658 12.0886 9.45719L12.2853 8.08102C12.3344 7.7791 12.6995 7.65971 12.9172 7.87737Z" fill="white"/>
<path d="M12.3188 0.00041008H23.5671C24.5641 0.00041008 25.4629 0.407663 26.1159 1.05362C26.7618 1.70661 27.1621 2.61235 27.1621 3.6024C27.1621 3.8411 27.3797 4.02366 27.6185 3.98154L31.4943 3.38474C31.8734 3.32152 32.0981 3.7709 31.8383 4.03772L27.2744 8.69292C27.2112 8.77015 27.1621 8.86143 27.1621 8.96676V24.154C27.1621 24.9545 26.9023 25.6917 26.4599 26.2886L23.855 23.6274V8.8544C23.855 6.09499 21.6081 3.84813 18.8487 3.84813H8.7168V3.6024C8.7168 1.61533 10.3247 0.00041008 12.3188 0.00041008Z" fill="white"/>
</g>
<defs>
<filter id="filter0_d_314_519" x="0" y="0.000488281" width="35.9512" height="40.9995" filterUnits="userSpaceOnUse" color-interpolation-filters="sRGB">
<feFlood flood-opacity="0" result="BackgroundImageFix"/>
<feColorMatrix in="SourceAlpha" type="matrix" values="0 0 0 0 0 0 0 0 0 0 0 0 0 0 0 0 0 0 127 0" result="hardAlpha"/>
<feOffset dy="4"/>
<feGaussianBlur stdDeviation="2"/>
<feComposite in2="hardAlpha" operator="out"/>
<feColorMatrix type="matrix" values="0 0 0 0 0 0 0 0 0 0 0 0 0 0 0 0 0 0 0.25 0"/>
<feBlend mode="normal" in2="BackgroundImageFix" result="effect1_dropShadow_314_519"/>
<feBlend mode="normal" in="SourceGraphic" in2="effect1_dropShadow_314_519" result="shape"/>
</filter>
</defs>
</svg>
