<svg width="126" height="72" viewBox="0 0 126 72" fill="none" xmlns="http://www.w3.org/2000/svg">
<g clip-path="url(#clip0_95_3735)">
<path d="M1.20592 65.2288L3.1427 65.0461L2.22912 54.8141L0.36543 54.9602L0 51.0136L9.13575 50.1731C10.0493 50.1 10.8533 50.0635 11.5476 50.0635C12.2419 50.0635 12.8997 50.1731 13.5574 50.3193C14.1787 50.4654 14.7268 50.7213 15.1653 51.0136C15.6039 51.3425 15.9327 51.7445 16.2251 52.2926C16.5174 52.8407 16.6636 53.462 16.7367 54.2294C16.8098 55.1429 16.6271 55.9834 16.1885 56.7508C15.75 57.5182 15.1288 58.0664 14.3248 58.4684V58.5049C15.4942 58.7242 16.4078 59.1992 17.1021 59.9666C17.7964 60.734 18.1984 61.7207 18.308 62.9997C18.3811 63.8402 18.2715 64.571 18.0157 65.2288C17.7599 65.8866 17.3214 66.3982 16.7367 66.8367C16.152 67.2387 15.4942 67.6041 14.7268 67.8234C13.9594 68.0792 13.1189 68.2253 12.1323 68.335L1.53481 69.3216L1.20592 65.2288ZM8.47797 57.7375L8.95303 57.701C9.355 57.6644 9.68389 57.6279 9.93969 57.5548C10.1955 57.4817 10.4513 57.3721 10.6706 57.2259C10.9264 57.0797 11.0725 56.8605 11.1822 56.6047C11.2918 56.3123 11.3283 55.9834 11.2918 55.5815C11.2552 55.0699 11.0725 54.7044 10.7071 54.4486C10.3782 54.1928 10.0128 54.1197 9.57426 54.1563L8.14908 54.3025L8.47797 57.7375ZM8.73377 60.6609L9.0992 64.498C9.13575 64.498 9.24537 64.4979 9.355 64.4614C9.50117 64.4614 9.64735 64.4614 9.79352 64.4249C9.93969 64.4249 10.0859 64.3883 10.232 64.3518C10.3782 64.3152 10.4878 64.3152 10.634 64.2787C10.7436 64.2421 10.8898 64.2056 10.9994 64.1691C11.1091 64.1325 11.2187 64.096 11.3283 64.0229C11.438 63.9498 11.511 63.9133 11.5841 63.8402C11.6572 63.7671 11.7303 63.694 11.8034 63.5844C11.8765 63.4747 11.913 63.3651 11.9496 63.2555C11.9861 63.1459 12.0226 62.9997 12.0226 62.817C12.0226 62.6708 12.0226 62.4881 12.0226 62.3054C11.9861 61.9765 11.913 61.6841 11.8034 61.4283C11.6938 61.1725 11.5476 61.0264 11.3649 60.8802C11.2187 60.7706 10.9994 60.6609 10.7802 60.6244C10.5609 60.5513 10.3782 60.5513 10.1955 60.5148C10.0128 60.5148 9.83006 60.5148 9.6108 60.5513C9.50117 60.5879 9.20883 60.6244 8.73377 60.6609Z" fill="white"/>
<path d="M34.2033 66.0325C34.1303 67.2385 33.7283 68.2617 32.9974 69.2118C32.2666 70.1254 31.3165 70.8197 30.1836 71.2582C29.0508 71.6967 27.8449 71.916 26.5293 71.8429C25.7254 71.8063 24.958 71.6967 24.3002 71.4775C23.6425 71.2947 23.0578 71.0389 22.6193 70.7466C22.1442 70.4542 21.7422 70.0888 21.3768 69.6503C21.0114 69.2118 20.7556 68.7733 20.5363 68.2982C20.3171 67.8231 20.1709 67.3115 20.0613 66.7269C19.9516 66.1422 19.8785 65.5575 19.842 65.0093C19.8055 64.4246 19.8055 63.84 19.842 63.1822L20.1709 56.7872L18.3438 56.6775L18.563 52.6943L28.3565 53.2059L28.1372 57.1891L26.4563 57.116L26.0543 64.6804C26.0177 65.0459 26.0543 65.4113 26.0908 65.7402C26.1274 66.0691 26.237 66.3614 26.3832 66.6538C26.5293 66.9461 26.7486 67.1654 27.0044 67.3481C27.2967 67.5308 27.6256 67.6404 28.0276 67.6404C28.7219 67.677 29.2701 67.5308 29.672 67.1654C30.074 66.7999 30.2933 66.2883 30.3298 65.6306L30.7683 57.3718L28.9046 57.2622L29.1239 53.279L36.5055 53.681L36.2863 57.6642L34.5322 57.5911L34.2033 66.0325Z" fill="white"/>
<path d="M48.2374 68.1521C46.2641 68.3348 43.2311 68.6271 39.1383 69.0291L38.7363 64.9728L40.4538 64.7901L39.4671 54.5581L37.7131 54.7408L37.3477 50.7576L48.749 49.6613C49.6626 49.5882 50.5031 49.5882 51.234 49.6978C51.9648 49.8075 52.6226 50.0267 53.1707 50.3921C53.7554 50.721 54.1939 51.2326 54.5594 51.8539C54.8882 52.4751 55.1075 53.279 55.2171 54.1926C55.3268 55.2889 55.071 56.2025 54.4132 56.9699C53.792 57.7373 52.8418 58.2854 51.5628 58.6509C52.6957 58.797 53.5362 59.0894 54.0478 59.4914C54.5594 59.8933 54.8517 60.4415 54.9248 61.1358L55.0344 62.1955C55.071 62.4148 55.071 62.5975 55.144 62.7071C55.1806 62.8168 55.2902 62.9629 55.3998 63.036C55.546 63.1457 55.7287 63.2187 55.9845 63.2187C56.2403 63.2553 56.5692 63.2187 57.0077 63.1822L57.4097 67.2019L54.4497 67.4943C54.1574 67.5308 53.9381 67.5308 53.7554 67.5674C53.5727 67.5674 53.3534 67.6039 53.0611 67.6039C52.7688 67.6039 52.5495 67.6039 52.3668 67.6039C52.1841 67.6039 51.9648 67.5674 51.7456 67.4943C51.4898 67.4577 51.307 67.3846 51.1609 67.3116C51.0147 67.2385 50.832 67.1288 50.6493 66.9827C50.4666 66.8365 50.3204 66.6903 50.2108 66.5076C50.1011 66.3249 49.9915 66.1056 49.9184 65.8498C49.8453 65.594 49.7722 65.3017 49.7357 65.0093L49.5164 62.8168C49.4799 62.3783 49.4068 62.0128 49.3337 61.7205C49.2606 61.4281 49.151 61.1723 48.9683 60.9165C48.8221 60.6607 48.5663 60.478 48.274 60.4049C47.9816 60.2953 47.6162 60.2588 47.1412 60.3318L46.0449 60.4415L46.4103 64.2054L47.7624 64.0592L48.2374 68.1521ZM46.4834 57.8835C46.8488 57.8469 47.2142 57.7738 47.5066 57.7007C47.7989 57.6277 48.0913 57.4815 48.3471 57.2988C48.6029 57.1161 48.8221 56.8968 48.9318 56.6045C49.0779 56.3121 49.1145 55.9832 49.0779 55.6178C49.0048 55.0331 48.7856 54.5581 48.3836 54.2657C47.9816 53.9368 47.4335 53.8272 46.7757 53.8637L45.4236 54.0099L45.7891 57.9566L46.4834 57.8835Z" fill="white"/>
<path d="M71.5882 68.4447C70.4553 69.3948 68.9571 69.8334 67.0934 69.7603C65.9971 69.7237 64.9739 69.541 64.0238 69.2487C63.0737 68.9563 62.1966 68.5178 61.4292 67.9697C60.6618 67.4215 59.9675 66.7638 59.4194 66.0329C58.8712 65.2655 58.4327 64.3885 58.1769 63.4018C57.8846 62.4151 57.7749 61.3188 57.8115 60.1495C57.848 58.7974 58.1038 57.5549 58.5423 56.4221C58.9808 55.2527 59.6021 54.266 60.3695 53.389C61.1369 52.512 62.1235 51.8542 63.2929 51.3792C64.4623 50.9041 65.7778 50.6848 67.203 50.7579C68.7378 50.831 69.9803 51.1964 70.9304 51.9273L71.442 51.233L74.9867 51.3792L74.6943 59.0166L71.442 58.907C71.4054 58.4319 71.3689 58.0665 71.2958 57.7376C71.2227 57.4087 71.1496 57.0799 71.0035 56.7144C70.8573 56.349 70.7111 56.0567 70.4919 55.8374C70.2726 55.6181 70.0168 55.4354 69.6514 55.2893C69.286 55.1431 68.884 55.07 68.4089 55.0335C67.8973 54.9969 67.4223 55.07 66.9837 55.2527C66.5818 55.3989 66.2163 55.6547 65.9605 55.947C65.7047 56.2394 65.4855 56.6048 65.3028 56.9337C65.1201 57.2991 64.9739 57.7011 64.8643 58.1761C64.7546 58.6512 64.6815 59.0897 64.645 59.4917C64.6085 59.8937 64.5719 60.3322 64.5354 60.8072C64.4257 64.1327 65.522 65.8136 67.8973 65.9233C68.482 65.9598 68.9571 65.8136 69.4321 65.4847C69.8706 65.1924 70.0899 64.7539 70.1264 64.2057C70.1264 63.8038 70.1264 63.5114 70.0534 63.2922L68.2628 63.2191L68.3724 59.784L75.4252 60.0398L75.0597 69.7603L71.9536 69.6507L71.5882 68.4447Z" fill="white"/>
<path d="M88.4334 55.6179L87.3371 52.256L84.9253 52.4022L85.1445 55.5814L87.4467 55.4352L87.7025 59.4184L85.4003 59.5646L85.6196 62.6707L88.1045 62.5246L88.2141 61.8303L88.7257 58.7606L91.7953 58.5414L92.3069 66.2885L77.909 67.2386L77.6532 63.1823L79.4438 63.0727L78.7495 52.8041L76.9589 52.9138L76.7031 48.9306L90.9914 47.9805L91.4664 55.3621L88.4334 55.6179Z" fill="white"/>
<path d="M102.319 70.9658C100.346 70.8927 97.2764 70.7466 93.1836 70.5639L93.3663 66.5076L95.1204 66.5807L95.5954 56.3121L93.8414 56.239L94.0241 52.2559L105.462 52.7675C106.376 52.804 107.216 52.9502 107.91 53.1329C108.605 53.3521 109.226 53.6445 109.738 54.083C110.249 54.485 110.651 55.0331 110.907 55.7274C111.163 56.4218 111.272 57.1892 111.236 58.1393C111.199 59.2356 110.797 60.1126 110.066 60.7704C109.336 61.4281 108.312 61.8666 106.997 62.0494C108.093 62.3417 108.897 62.7437 109.336 63.2187C109.811 63.6938 109.993 64.2785 109.993 64.9728L109.957 66.0325C109.957 66.2518 109.957 66.4345 109.993 66.5441C110.03 66.6903 110.103 66.7999 110.213 66.9096C110.322 67.0192 110.505 67.1288 110.761 67.1654C111.017 67.2385 111.345 67.275 111.784 67.275L111.601 71.3313L108.641 71.1851C108.349 71.1851 108.13 71.1485 107.947 71.1485C107.764 71.1485 107.545 71.112 107.289 71.0755C106.997 71.0389 106.778 71.0024 106.595 70.9658C106.412 70.9293 106.229 70.8562 105.974 70.7831C105.754 70.71 105.535 70.6004 105.425 70.5273C105.279 70.4177 105.133 70.3081 104.987 70.1619C104.841 70.0157 104.731 69.833 104.622 69.6503C104.548 69.4676 104.475 69.2483 104.439 68.956C104.402 68.7002 104.366 68.4078 104.402 68.1155L104.512 65.9229C104.548 65.4844 104.512 65.119 104.475 64.8266C104.439 64.5343 104.366 64.2419 104.22 63.9861C104.11 63.7303 103.891 63.5111 103.598 63.3649C103.306 63.2187 102.941 63.1456 102.502 63.1091L101.406 63.0726L101.223 66.8365L102.575 66.9096L102.319 70.9658ZM102.027 60.5511C102.392 60.5511 102.758 60.5511 103.087 60.5146C103.416 60.478 103.708 60.3684 104 60.2588C104.293 60.1126 104.512 59.9299 104.695 59.6741C104.877 59.4183 104.95 59.0894 104.987 58.724C105.024 58.1393 104.841 57.6642 104.475 57.2622C104.11 56.8968 103.598 56.6776 102.941 56.641L101.588 56.5679L101.406 60.5146L102.027 60.5511Z" fill="white"/>
<path d="M124.465 48.1633L124.574 53.9736L121.103 54.0467C120.956 53.462 120.664 52.9504 120.189 52.5119C119.714 52.0733 119.202 51.8541 118.618 51.8541C118.289 51.8541 118.033 51.9637 117.85 52.1099C117.668 52.2926 117.558 52.5484 117.595 52.8773C117.595 53.0966 117.704 53.2793 117.887 53.462C118.07 53.6082 118.325 53.7543 118.654 53.864C118.983 53.9736 119.349 54.0832 119.751 54.1928C120.153 54.3025 120.591 54.4486 121.066 54.5948C121.541 54.741 121.98 54.9237 122.455 55.1064C122.93 55.2891 123.368 55.5449 123.77 55.8738C124.172 56.2027 124.574 56.5681 124.903 56.9701C125.232 57.3721 125.488 57.9202 125.707 58.5415C125.926 59.1627 126.036 59.8935 126.072 60.6609C126.109 61.4283 125.999 62.1958 125.744 62.9266C125.488 63.6575 125.159 64.3152 124.684 64.8999C124.245 65.4846 123.661 65.9231 122.966 66.2886C122.272 66.654 121.541 66.8367 120.774 66.8367C119.97 66.8367 119.276 66.7636 118.727 66.5444C118.179 66.3617 117.631 65.9962 117.01 65.5212L116.608 66.5809L112.954 66.654L112.844 60.8071L116.462 60.734C116.681 61.2822 117.01 61.7572 117.521 62.1592C118.033 62.5612 118.581 62.7804 119.129 62.7439C119.458 62.7439 119.751 62.6343 120.006 62.4881C120.262 62.3054 120.372 62.0861 120.372 61.7572C120.372 61.5014 120.262 61.2822 120.116 61.0995C119.933 60.9167 119.751 60.7706 119.568 60.6975C119.385 60.6244 119.129 60.5513 118.874 60.4782C118.435 60.3686 118.033 60.259 117.704 60.1493C117.375 60.0397 117.01 59.9301 116.608 59.7839C116.206 59.6377 115.877 59.4916 115.585 59.3454C115.292 59.1992 115 59.0165 114.671 58.7973C114.379 58.578 114.086 58.3587 113.867 58.1395C113.648 57.9202 113.429 57.6279 113.246 57.3355C113.027 57.0432 112.881 56.7143 112.771 56.3854C112.661 56.0565 112.552 55.6546 112.479 55.216C112.405 54.7775 112.369 54.339 112.332 53.8274C112.296 52.0368 112.698 50.6116 113.575 49.5153C114.415 48.4556 115.694 47.8709 117.375 47.8709C118.837 47.8344 120.006 48.1633 120.92 48.821C120.956 48.7479 121.066 48.4921 121.285 48.1267L124.465 48.1633Z" fill="white"/>
<path d="M4.45844 31.2442L8.07618 31.0615L7.12607 11.8764L3.65449 12.0591L3.28906 4.64083L20.4277 3.7638C22.1452 3.69071 23.6435 3.69071 24.959 3.7638C26.2745 3.83689 27.517 4.05614 28.6864 4.38503C29.8557 4.71392 30.8424 5.18898 31.6098 5.81021C32.3772 6.43144 32.9984 7.27193 33.4735 8.2586C33.9486 9.2818 34.2044 10.4877 34.2774 11.8764C34.3505 13.6304 33.9486 15.1652 33.0715 16.5539C32.1945 17.9425 30.9886 18.9292 29.4903 19.587V19.6235C31.6098 20.1351 33.2908 21.0852 34.5332 22.5469C35.7757 24.0087 36.4335 25.9089 36.5431 28.2842C36.6162 29.8556 36.3969 31.2442 35.8122 32.4136C35.2641 33.6195 34.4236 34.5696 33.3273 35.3005C32.231 36.0313 30.952 36.616 29.5269 37.018C28.1017 37.42 26.4573 37.6758 24.6667 37.7489L4.82386 38.7355L4.45844 31.2442ZM18.564 17.8329L19.441 17.7963C20.1719 17.7598 20.7931 17.6867 21.2682 17.5771C21.7432 17.4675 22.2183 17.2847 22.6933 17.0289C23.1684 16.7731 23.4973 16.4077 23.7165 15.8961C23.9358 15.3845 24.0089 14.7267 23.9723 13.9593C23.9358 13.0092 23.6069 12.3149 22.9857 11.8398C22.401 11.3648 21.7067 11.1455 20.9027 11.182L18.2716 11.3282L18.564 17.8329ZM18.8563 23.3509L19.2218 30.5133C19.3314 30.5133 19.4776 30.5133 19.6968 30.4768C19.9892 30.4768 20.245 30.4768 20.5373 30.4402C20.7931 30.4037 21.0855 30.4037 21.3413 30.3672C21.5971 30.3306 21.8529 30.2941 22.0721 30.2575C22.2914 30.221 22.5472 30.1479 22.7664 30.1114C22.9857 30.0383 23.1684 29.9652 23.3877 29.8556C23.5704 29.7459 23.7531 29.6363 23.8993 29.5267C24.0454 29.417 24.1916 29.2343 24.3012 29.0516C24.4109 28.8689 24.5205 28.6496 24.5936 28.4304C24.6667 28.2111 24.7397 27.9553 24.7763 27.663C24.8128 27.3706 24.8128 27.0417 24.8128 26.6763C24.7763 26.0551 24.6667 25.5069 24.4474 25.0319C24.2281 24.5934 23.9723 24.2279 23.7165 24.0087C23.4242 23.7529 23.0953 23.5701 22.6933 23.4605C22.2914 23.3509 21.9259 23.2778 21.5971 23.2413C21.2682 23.2047 20.9027 23.2413 20.5008 23.2413C20.245 23.2778 19.7334 23.3143 18.8563 23.3509Z" fill="white"/>
<path d="M59.0903 22.7661L57.8113 16.3346L53.3165 16.0788L53.0242 22.0352L57.3362 22.2545L56.9708 29.6727L52.6222 29.4535L52.3298 35.3003L56.9342 35.5196L57.2631 34.2406L58.871 28.6861L64.6082 28.9784L63.8774 43.4494L36.9453 42.0973L37.3107 34.5329L40.6361 34.7156L41.6228 15.5306L38.2974 15.3479L38.6628 7.92969L65.3756 9.28177L64.7179 23.0219L59.0903 22.7661Z" fill="white"/>
<path d="M89.7861 0L90.5535 10.8532L84.0854 11.2918C83.7565 10.232 83.1353 9.2819 82.1851 8.5145C81.2716 7.7471 80.2849 7.38167 79.2252 7.45476C78.6039 7.4913 78.1289 7.67401 77.8 8.03944C77.4711 8.36833 77.3249 8.87993 77.3615 9.5377C77.398 9.97622 77.5807 10.3051 77.9462 10.5974C78.3116 10.8898 78.7867 11.109 79.4079 11.2918C80.0291 11.4745 80.6869 11.6572 81.4908 11.8034C82.2582 11.9861 83.0987 12.1688 83.9758 12.3881C84.8528 12.6073 85.7298 12.8997 86.6069 13.2285C87.4839 13.5574 88.3244 13.9594 89.1283 14.5441C89.9323 15.0922 90.6631 15.75 91.3209 16.5174C91.9787 17.2848 92.5268 18.2349 93.0019 19.3677C93.4404 20.5371 93.7327 21.8527 93.8789 23.2778C93.9885 24.703 93.8789 26.1282 93.4769 27.5168C93.075 28.9055 92.4903 30.1479 91.7229 31.2807C90.9189 32.377 89.9323 33.3271 88.6898 34.0215C87.4473 34.7523 86.0953 35.1543 84.6335 35.2639C83.1353 35.3736 81.8563 35.2639 80.8331 34.935C79.8099 34.6061 78.7136 34.0215 77.5442 33.181L76.923 35.1543L70.126 35.6293L69.3586 24.7396L76.119 24.2645C76.5575 25.2512 77.2518 26.1282 78.275 26.8225C79.2617 27.5534 80.2849 27.8457 81.3081 27.7726C81.9293 27.7361 82.441 27.5534 82.8795 27.1879C83.318 26.859 83.5007 26.384 83.4642 25.7993C83.4276 25.3242 83.2449 24.9223 82.916 24.5934C82.5871 24.2645 82.2217 24.0452 81.8928 23.8991C81.5274 23.7529 81.0889 23.6433 80.5407 23.5336C79.7002 23.3509 78.9694 23.1682 78.3116 23.022C77.6538 22.8759 76.9595 22.6566 76.2286 22.4374C75.4978 22.2181 74.84 21.9623 74.2919 21.7065C73.7437 21.4507 73.159 21.1584 72.5743 20.7929C71.9897 20.4275 71.4781 20.0621 71.0395 19.6601C70.601 19.2581 70.199 18.7831 69.7605 18.2349C69.3586 17.6868 69.0297 17.1021 68.7373 16.4809C68.4815 15.8596 68.2257 15.1288 68.043 14.3614C67.8603 13.5574 67.7141 12.7169 67.6776 11.8034C67.4583 8.47796 68.0796 5.73724 69.5778 3.65429C71.0761 1.57135 73.3783 0.401972 76.521 0.182715C79.2252 0 81.4543 0.475058 83.2084 1.60789C83.2449 1.42517 83.4642 0.986659 83.793 0.292343L89.7861 0Z" fill="white"/>
<path d="M118.727 20.5733L117.814 14.0687L115.585 13.9225L114.452 33.071L117.887 33.2903L117.448 40.8547L98.7018 39.7584L99.1403 32.194L102.575 32.4132L103.708 13.2648L101.589 13.1551L99.8711 19.5136L93.9512 19.1847L94.7551 5.33496L125.415 7.12556L124.611 20.9753L118.727 20.5733Z" fill="white"/>
</g>
<defs>
<clipPath id="clip0_95_3735">
<rect width="126" height="71.8435" fill="white"/>
</clipPath>
</defs>
</svg>
