<svg width="150" height="69" viewBox="0 0 150 69" fill="none" xmlns="http://www.w3.org/2000/svg">
<g clip-path="url(#clip0_112_125)">
<path d="M26.9276 17.5743C27.2152 18.1748 25.7182 19.2066 25.1347 22.8433C24.5511 26.48 23.587 26.8013 22.6651 26.7675C21.7517 26.7337 19.705 25.981 19.8403 24.3402C19.9757 22.708 21.202 21.9299 21.5403 21.6C21.8786 21.2702 22.7328 19.5872 21.3119 19.4688C19.8995 19.3504 9.91137 22.598 12.3302 33.7533C14.5883 44.139 32.7209 45.6613 40.544 28.3575C40.544 28.3575 41.1022 40.1302 27.5112 44.5449C27.5112 44.5449 32.5941 46.5155 39.8844 37.5338C39.8844 37.5338 38.971 52.1481 25.6675 55.0913C16.6688 57.0872 4.77773 52.3088 1.29329 42.3545C-1.56531 34.2015 -0.0260622 22.4881 9.36164 16.6609C17.9459 11.3243 25.9889 15.6461 26.9276 17.5743Z" fill="#B6B7BE"/>
<path d="M27.7054 18.209C27.7054 18.209 31.5196 18.8348 32.5937 21.279C32.5937 21.279 28.2805 19.7905 27.088 20.7631C27.088 20.7631 26.8089 19.7736 27.7054 18.209Z" fill="#B6B7BE"/>
<path d="M48.6207 54.8969C48.6207 55.8864 48.2317 56.5292 47.4451 56.8168L49.0097 59.0326H47.3098L45.9397 57.0536H44.984V59.0326H43.6055V52.8418H45.9566C46.9208 52.8418 47.6058 53.0025 48.0202 53.3323C48.4093 53.6537 48.6207 54.1781 48.6207 54.8969ZM46.9546 55.6327C47.1237 55.4805 47.2083 55.2352 47.2083 54.9054C47.2083 54.5756 47.1237 54.3387 46.9461 54.2203C46.7685 54.0935 46.4556 54.0343 46.0158 54.0343H44.9756V55.8695H45.982C46.4556 55.8611 46.777 55.785 46.9546 55.6327Z" fill="#B6B7BE"/>
<path d="M58.0436 52.8418V54.0766H54.9651V55.3452H57.7392V56.5292H54.9651V57.8147H58.1451V59.0326H53.5781V52.8418H58.0436Z" fill="#B6B7BE"/>
<path d="M64.3704 54.0765C64.2351 54.1864 64.1674 54.3302 64.1674 54.5078C64.1674 54.6854 64.252 54.8292 64.4127 54.9391C64.5733 55.0491 64.9539 55.1675 65.5375 55.3197C66.121 55.4635 66.5777 55.6834 66.9076 55.9709C67.229 56.2585 67.3981 56.6813 67.3981 57.2395C67.3981 57.7977 67.1867 58.246 66.7723 58.5927C66.3579 58.9395 65.8081 59.1086 65.1315 59.1086C64.1505 59.1086 63.2709 58.7449 62.4844 58.0176L63.3047 57.0112C63.9729 57.5947 64.5903 57.8907 65.1569 57.8907C65.4106 57.8907 65.6136 57.84 65.7574 57.7301C65.9012 57.6201 65.9773 57.4763 65.9773 57.2903C65.9773 57.1042 65.9012 56.9604 65.7489 56.8505C65.5967 56.7405 65.2922 56.6306 64.8355 56.5207C64.1166 56.3515 63.5838 56.1232 63.254 55.8525C62.9242 55.5819 62.755 55.1506 62.755 54.5585C62.755 53.975 62.9664 53.5183 63.3893 53.1969C63.8122 52.8755 64.3365 52.7148 64.9708 52.7148C65.3853 52.7148 65.7997 52.7825 66.2141 52.9263C66.6285 53.0701 66.9837 53.273 67.2966 53.5268L66.5947 54.5332C66.0534 54.1272 65.5037 53.9242 64.9286 53.9242C64.6833 53.9158 64.4972 53.9665 64.3704 54.0765Z" fill="#B6B7BE"/>
<path d="M74.6885 54.0343V59.0326H73.3015V54.0343H71.5508V52.8418H76.4391V54.0343H74.6885Z" fill="#B6B7BE"/>
<path d="M84.9545 59.0326L84.3794 57.6963H81.783L81.2079 59.0326H79.7363L82.4089 52.8418H83.7451L86.4176 59.0326H84.9545ZM83.0854 54.6855L82.3074 56.4869H83.8551L83.0854 54.6855Z" fill="#B6B7BE"/>
<path d="M92.1602 57.4341C92.3885 57.7217 92.7015 57.8655 93.0905 57.8655C93.4795 57.8655 93.7925 57.7217 94.0124 57.4341C94.2407 57.1466 94.3507 56.7576 94.3507 56.2586V52.8418H95.7292V56.3093C95.7292 57.2058 95.4839 57.8993 94.985 58.3814C94.486 58.8634 93.8517 59.1002 93.082 59.1002C92.304 59.1002 91.6697 58.855 91.1707 58.3729C90.6717 57.8908 90.418 57.1973 90.418 56.3093V52.8418H91.7965V56.2586C91.8134 56.7576 91.9318 57.1466 92.1602 57.4341Z" fill="#B6B7BE"/>
<path d="M105.742 54.8969C105.742 55.8864 105.353 56.5292 104.566 56.8168L106.131 59.0326H104.431L103.061 57.0536H102.105V59.0326H100.727V52.8418H103.078C104.042 52.8418 104.727 53.0025 105.141 53.3323C105.539 53.6537 105.742 54.1781 105.742 54.8969ZM104.076 55.6327C104.245 55.4805 104.329 55.2352 104.329 54.9054C104.329 54.5756 104.245 54.3387 104.067 54.2203C103.89 54.0935 103.577 54.0343 103.137 54.0343H102.097V55.8695H103.103C103.585 55.8611 103.907 55.785 104.076 55.6327Z" fill="#B6B7BE"/>
<path d="M115.113 59.0326L114.538 57.6963H111.941L111.366 59.0326H109.895L112.567 52.8418H113.903L116.576 59.0326H115.113ZM113.244 54.6855L112.466 56.4869H114.013L113.244 54.6855Z" fill="#B6B7BE"/>
<path d="M125.178 52.8418H126.565V59.0326H125.178L122.235 55.1507V59.0326H120.848V52.8418H122.142L125.178 56.8252V52.8418Z" fill="#B6B7BE"/>
<path d="M134.251 54.0343V59.0326H132.872V54.0343H131.113V52.8418H136.01V54.0343H134.251Z" fill="#B6B7BE"/>
<path d="M44.1475 17.6085C44.6464 17.1265 45.5176 16.8896 46.7692 16.8896C47.8518 16.8896 48.8413 17.0757 49.7462 17.4478C50.6512 17.82 51.0994 18.3274 51.0994 18.9532C51.0994 19.5537 50.795 21.0507 50.1776 23.4441C49.8562 24.8227 49.6786 25.6261 49.6532 25.8714C50.3805 25.1271 51.2094 24.5436 52.1228 24.1207C53.0446 23.7063 53.8904 23.4949 54.6853 23.4949C56.2922 23.4949 57.5017 24.2137 58.3136 25.6515C59.1255 27.0892 59.5399 28.8822 59.5399 31.0388C59.5399 32.1129 59.4553 33.7283 59.2777 35.8849C59.1339 37.3819 59.0578 38.549 59.0578 39.3863C59.0578 41.0608 59.4807 41.8981 60.3264 41.8981C60.9354 41.8981 61.4428 41.4837 61.8318 40.638C62.2293 39.8007 62.4408 38.8619 62.4661 37.8132C63.5149 37.7202 64.4621 37.9485 65.3078 38.4898C66.1536 39.0311 66.5764 39.9529 66.5764 41.2723C66.5764 42.5916 66.2381 43.8264 65.57 44.9766C64.9019 46.1268 63.9885 47.0487 62.8383 47.7337C61.6881 48.4188 60.4364 48.7655 59.1001 48.7655C56.7997 48.7655 55.0913 47.9621 53.9834 46.3636C52.8755 44.7652 52.3173 42.5832 52.3173 39.8345C52.3173 38.642 52.4019 37.1451 52.5795 35.3436C52.6979 33.9059 52.7571 32.9502 52.7571 32.4681C52.7571 31.005 52.4103 30.2692 51.7084 30.2692C50.981 30.2692 50.4228 30.7598 50.0422 31.7323C49.6617 32.7049 49.4418 34.3288 49.3826 36.6038C49.4079 39.4455 49.6278 43.0229 50.0422 47.3277C49.8054 47.683 49.3234 48.0043 48.5791 48.2665C47.8349 48.5372 47.0399 48.6725 46.1941 48.6725C45.1708 48.6725 44.2997 48.461 43.5724 48.0466C42.845 47.6322 42.4391 46.9725 42.346 46.0761C42.0585 42.9637 41.9062 39.8261 41.9062 36.6461C41.9147 30.3284 42.659 23.9854 44.1475 17.6085Z" fill="#B6B7BE"/>
<path d="M63.5232 25.8711C63.6416 25.3637 63.9799 24.9831 64.555 24.7294C65.1217 24.4756 65.7898 24.3488 66.5425 24.3488C67.5658 24.3488 68.5469 24.5433 69.4941 24.9323C70.4414 25.3214 70.9742 25.7696 71.0926 26.2771C70.6528 27.681 70.3145 29.3471 70.0608 31.2584C69.8155 33.1698 69.6886 34.9205 69.6886 36.5104C69.6886 38.3964 69.8155 39.7834 70.0608 40.6884C70.306 41.5849 70.6359 42.0331 71.0418 42.0331C71.4224 42.0331 71.7945 41.6441 72.1582 40.866C72.5219 40.0879 72.7756 39.073 72.9278 37.8129C74.2979 37.9059 75.3297 38.1596 76.0317 38.574C76.7336 38.9969 77.0804 39.8342 77.0804 41.0859C77.0804 42.4898 76.7675 43.7753 76.1416 44.9424C75.5158 46.1095 74.6531 47.0399 73.5621 47.7249C72.4711 48.4099 71.2363 48.7567 69.8663 48.7567C67.0077 48.7567 65.0371 47.5811 63.963 45.23C62.8805 42.8788 62.3477 39.775 62.3477 35.9184C62.3477 32.4509 62.7367 29.1018 63.5232 25.8711ZM65.8405 22.3698C66.5425 23.0886 67.3882 23.4438 68.3778 23.4438C69.3673 23.4438 70.213 23.0886 70.915 22.3698C71.6169 21.6509 71.9637 20.7882 71.9637 19.7649C71.9637 18.75 71.6169 17.8789 70.915 17.16C70.213 16.4411 69.3673 16.0859 68.3778 16.0859C67.3882 16.0859 66.5425 16.4411 65.8405 17.16C65.1386 17.8789 64.7918 18.75 64.7918 19.7649C64.7918 20.7798 65.147 21.6509 65.8405 22.3698Z" fill="#B6B7BE"/>
<path d="M73.8071 30.6746C74.5345 28.5771 75.6001 26.8857 77.004 25.6002C78.408 24.3146 80.0402 23.6719 81.9009 23.6719C83.0088 23.6719 84.0744 23.9171 85.0977 24.4161C86.1211 24.9067 86.9415 25.6086 87.5673 26.5051C88.1932 27.4016 88.5061 28.4165 88.5061 29.5582C88.5061 30.6915 88.2101 31.5795 87.6096 32.2054C87.0091 32.8312 86.1549 33.1441 85.047 33.1441C84.6072 33.1441 84.2266 33.0849 83.9137 32.9665C83.5923 32.8481 83.4147 32.7128 83.3894 32.5606C83.4147 31.7487 83.3132 31.1313 83.0849 30.6999C82.8481 30.2686 82.5267 30.0487 82.1207 30.0487C81.275 30.0487 80.6322 30.6999 80.1925 32.0024C79.7527 33.3048 79.5328 34.6918 79.5328 36.155C79.5328 38.0663 79.9387 39.5633 80.7591 40.6458C81.571 41.7199 82.6959 42.2612 84.1251 42.2612C85.5544 42.2612 86.6624 41.8129 87.4489 40.9164C88.2354 40.02 88.8359 38.7006 89.2419 36.9669C90.2652 36.9669 91.1532 37.2037 91.9059 37.6857C92.6671 38.1678 93.0392 38.9713 93.0392 40.113C93.0392 41.703 92.6079 43.1915 91.7453 44.5785C90.8826 45.974 89.6986 47.0819 88.1762 47.9191C86.6624 48.7564 84.954 49.1793 83.0595 49.1793C80.9875 49.1793 79.1691 48.6803 77.596 47.6739C76.023 46.6759 74.8136 45.2635 73.9678 43.4537C73.1221 41.6438 72.6992 39.5886 72.6992 37.2798C72.7077 34.9625 73.0713 32.7635 73.8071 30.6746Z" fill="#B6B7BE"/>
<path d="M89.817 26.9449C90.1976 23.7988 90.7642 20.7203 91.5254 17.701C92.2527 17.2866 93.2169 17.0752 94.4094 17.0752C95.5427 17.0752 96.5406 17.3035 97.3864 17.7687C98.2321 18.2339 98.655 18.902 98.655 19.7646C98.655 19.883 98.6296 20.1198 98.5704 20.4835C97.9868 22.8177 97.5724 24.7714 97.3272 26.3445C97.0819 27.9175 96.8958 29.7189 96.7774 31.7572C97.8008 29.7781 98.9594 28.0106 100.253 26.4375C101.547 24.8644 102.74 24.0779 103.822 24.0779C104.465 24.0779 105.083 24.3231 105.683 24.8221C106.284 25.3127 106.766 25.9216 107.146 26.6405C107.527 27.3593 107.747 28.0359 107.806 28.6618C106.639 29.1692 105.615 29.8373 104.744 30.6577C103.873 31.4781 102.977 32.493 102.08 33.6854C102.402 35.8421 102.892 37.7111 103.569 39.2927C104.237 40.8826 105.083 41.6692 106.106 41.6692C106.892 41.6692 107.501 41.4239 107.941 40.9249C108.381 40.4344 108.677 39.9185 108.838 39.4026C108.998 38.8783 109.074 38.523 109.074 38.3454C109.48 38.227 109.802 38.1678 110.039 38.1678C110.681 38.1678 111.214 38.3877 111.637 38.8191C112.06 39.2504 112.271 39.9354 112.271 40.8573C112.271 41.999 112.009 43.1661 111.485 44.384C110.96 45.5934 110.191 46.6083 109.184 47.4117C108.178 48.2236 106.985 48.6211 105.615 48.6211C103.4 48.6211 101.53 47.6824 100.017 45.8133C98.5027 43.9442 97.454 41.4831 96.8705 38.43L96.7859 38.3877C96.9043 41.018 97.1918 43.995 97.657 47.3187C97.4202 47.6739 96.9381 47.9953 96.1939 48.2575C95.4496 48.5281 94.6546 48.6634 93.8089 48.6634C92.8194 48.6634 91.9736 48.4604 91.2717 48.0545C90.5697 47.6485 90.1215 46.9889 89.9185 46.0585C89.7747 45.3397 89.631 43.8258 89.4787 41.5254C89.3349 39.225 89.2588 37.1699 89.2588 35.3769C89.2419 32.8989 89.4364 30.0911 89.817 26.9449Z" fill="#B6B7BE"/>
<path d="M109.87 30.6747C110.615 28.5181 111.689 26.7674 113.109 25.4227C114.522 24.078 116.179 23.4014 118.074 23.4014C119.909 23.4014 121.398 24.1541 122.539 25.6679C123.673 27.1818 124.248 29.0593 124.248 31.3005C124.248 33.787 123.698 35.9098 122.607 37.6774C121.516 39.445 120.002 40.3246 118.082 40.3246C117.152 40.3246 116.374 40.0539 115.765 39.5126C115.968 40.6206 116.475 41.4325 117.27 41.9568C118.074 42.4812 119.055 42.7434 120.222 42.7434C121.389 42.7434 122.497 42.3881 123.546 41.6862C124.595 40.9842 125.28 39.7748 125.601 38.0749C126.472 38.1341 127.318 38.4301 128.113 38.9714C128.916 39.5126 129.314 40.333 129.314 41.4409C129.314 42.8448 128.933 44.1388 128.18 45.3229C127.419 46.5069 126.354 47.4287 124.984 48.1053C123.614 48.7819 122.04 49.1118 120.256 49.1118C118.006 49.1118 116.019 48.6297 114.285 47.674C112.551 46.7183 111.19 45.3567 110.217 43.5891C109.236 41.8215 108.754 39.7748 108.754 37.4406C108.754 35.0894 109.126 32.8313 109.87 30.6747ZM118.86 31.6558C118.86 31.1145 118.793 30.7085 118.666 30.421C118.531 30.1334 118.353 29.9981 118.116 29.9981C117.533 29.9981 117.034 30.5648 116.611 31.7065C116.188 32.8482 115.892 34.1422 115.714 35.6138C117.812 35.284 118.86 33.9646 118.86 31.6558Z" fill="#B6B7BE"/>
<path d="M127.427 24.9239C128.298 24.3826 129.364 24.112 130.624 24.112C131.529 24.112 132.214 24.2473 132.679 24.518C133.609 23.0802 134.996 22.3613 136.832 22.3613C138.87 22.3613 140.46 23.2409 141.602 25.0085C142.735 26.7761 143.31 29.1949 143.31 32.2818C143.31 33.2121 143.251 34.4554 143.132 36.0115C143.099 36.4006 143.073 36.8403 143.048 37.3393C143.022 37.8299 143.006 38.3627 143.006 38.9293C143.006 39.8258 143.09 40.5193 143.268 40.9929C143.445 41.475 143.75 41.7118 144.19 41.7118C144.596 41.7118 144.959 41.3481 145.264 40.6123C145.568 39.8765 145.737 38.9631 145.763 37.8552C146.93 37.7622 147.928 37.9736 148.757 38.4811C149.585 38.9885 150 39.885 150 41.1705C150 42.5152 149.704 43.7754 149.103 44.9425C148.503 46.1096 147.674 47.0484 146.608 47.7504C145.543 48.4523 144.359 48.8075 143.039 48.8075C140.79 48.8075 139.047 47.9872 137.813 46.338C136.569 44.6888 135.952 42.5491 135.952 39.9188C135.952 39.0223 136.003 38.0582 136.104 37.0264C136.206 35.9946 136.273 35.318 136.299 34.9882C136.476 33.432 136.561 32.4594 136.561 32.0704C136.561 30.9371 136.265 30.362 135.69 30.362C134.76 30.362 134.075 31.2669 133.66 33.0768C133.237 34.8867 133.026 37.1279 133.026 39.7835C133.026 41.4327 133.093 42.9804 133.22 44.4266C133.356 45.8813 133.508 46.8708 133.677 47.4121C133.389 47.7419 132.857 48.0041 132.079 48.1986C131.309 48.3931 130.48 48.4861 129.609 48.4861C128.383 48.4861 127.486 48.2324 126.92 47.725C126.353 47.2175 125.989 46.5156 125.829 45.6191C125.668 44.7226 125.592 43.4371 125.592 41.7625V39.8343C125.592 36.4513 126.209 31.4784 127.427 24.9239Z" fill="#B6B7BE"/>
<path d="M27.6566 16.0859C27.6566 16.0859 24.5443 11.6627 16.662 12.7199L17.5669 9.25239C17.5669 9.25239 14.6491 7.44251 15.4611 3.52676C16.2814 -0.380545 21.821 1.14178 21.821 1.14178C21.821 1.14178 23.9776 -0.727297 26.9631 0.321416C29.9485 1.37013 29.8217 4.17797 29.8217 4.17797C29.8217 4.17797 34.7862 5.22668 33.5852 9.98818C33.2385 11.3583 31.7246 13.3457 28.3332 13.1174L27.6566 16.0859Z" fill="#B6B7BE"/>
<path d="M63.734 67.6677H6.40137C6.1561 67.6677 5.95312 67.4647 5.95312 67.2194V66.3906C5.95312 66.1454 6.1561 65.9424 6.40137 65.9424H63.734C63.9792 65.9424 64.1822 66.1454 64.1822 66.3906V67.2194C64.1822 67.4647 63.9877 67.6677 63.734 67.6677Z" fill="#B6B7BE"/>
<path d="M146.728 67.6677H89.3955C89.1502 67.6677 88.9473 67.4647 88.9473 67.2194V66.3906C88.9473 66.1454 89.1502 65.9424 89.3955 65.9424H146.728C146.973 65.9424 147.176 66.1454 147.176 66.3906V67.2194C147.176 67.4647 146.982 67.6677 146.728 67.6677Z" fill="#B6B7BE"/>
<path d="M72.2589 68.7756C73.4266 68.7756 74.3732 67.8289 74.3732 66.6612C74.3732 65.4935 73.4266 64.5469 72.2589 64.5469C71.0912 64.5469 70.1445 65.4935 70.1445 66.6612C70.1445 67.8289 71.0912 68.7756 72.2589 68.7756Z" fill="#B6B7BE"/>
<path d="M81.2745 68.7756C82.4422 68.7756 83.3889 67.8289 83.3889 66.6612C83.3889 65.4935 82.4422 64.5469 81.2745 64.5469C80.1068 64.5469 79.1602 65.4935 79.1602 66.6612C79.1602 67.8289 80.1068 68.7756 81.2745 68.7756Z" fill="#B6B7BE"/>
</g>
<defs>
<clipPath id="clip0_112_125">
<rect width="150" height="68.7753" fill="white"/>
</clipPath>
</defs>
</svg>
