<svg width="125" height="71" viewBox="0 0 125 71" fill="none" xmlns="http://www.w3.org/2000/svg">
<g clip-path="url(#clip0_112_149)">
<path d="M123.961 26.2469C122.271 26.2469 120.842 24.8176 120.842 23.1284V22.0889H86.0187C85.369 22.8685 84.8493 23.5182 84.3295 24.1679H118.893C119.283 26.1169 120.842 27.8061 122.921 28.1959V48.2064C120.972 48.5962 119.283 50.1554 118.893 52.2344H5.97713C5.58732 50.2854 4.02807 48.5962 1.94906 48.2064V28.1959C3.89813 27.8061 5.58732 26.2469 5.97713 24.1679H37.6819C37.552 23.7781 37.422 23.3882 37.422 22.8685C37.422 22.6086 37.422 22.3487 37.552 22.0889H4.158V23.1284C4.158 24.8176 2.72869 26.2469 1.0395 26.2469H0V50.1554H1.0395C2.72869 50.1554 4.158 51.5847 4.158 53.2739V54.3134H119.932H120.842V53.2739C120.842 51.5847 122.271 50.1554 123.961 50.1554H125V26.2469H123.961Z" fill="#B6B7BE"/>
<path d="M51.8457 13.9031C52.6253 13.9031 53.0151 13.3834 53.0151 12.9935C53.0151 12.4738 52.4954 12.084 51.9756 12.084C51.3259 12.084 50.6763 12.4738 50.6763 12.4738C50.0266 12.3439 48.9871 12.2139 48.3374 12.2139C45.2189 12.2139 42.88 14.2929 42.88 16.242C42.88 17.2815 43.3998 18.321 44.8291 18.321C46.1284 18.321 46.5183 17.0216 46.5183 16.3719C46.5183 16.1121 46.5183 15.9821 46.3883 15.9821C46.2584 15.9821 46.1284 16.3719 45.6087 16.3719C45.0889 16.3719 44.8291 15.9821 44.8291 15.4624C44.8291 14.2929 46.2584 12.9935 48.2074 12.9935C48.7272 12.9935 49.117 12.9935 49.5068 13.1235C48.5973 13.7732 47.5578 15.3324 46.7781 18.1911C45.4788 23.3886 44.6991 24.0382 43.2698 24.0382C42.6201 24.0382 42.2303 23.6484 42.2303 23.6484C42.2303 23.6484 43.0099 23.3886 43.0099 22.479C43.0099 21.6994 42.4902 21.1796 41.7106 21.1796C40.801 21.1796 40.2812 21.9592 40.2812 22.7389C40.2812 23.7784 41.3207 24.8179 43.2698 24.8179C45.2189 24.8179 47.6877 24.558 48.9871 18.1911C49.6368 15.4624 50.2864 14.163 50.6763 13.5133C51.196 13.7732 51.4559 13.9031 51.8457 13.9031Z" fill="#B6B7BE"/>
<path d="M68.2182 16.372C68.9978 16.2421 69.6475 15.7223 69.6475 15.0727C69.6475 14.5529 69.2577 14.1631 68.7379 14.1631C67.9583 14.1631 67.3086 14.8128 67.3086 15.4625C67.3086 15.9822 67.6984 16.372 68.2182 16.372Z" fill="#B6B7BE"/>
<path d="M84.4598 19.1007C84.3298 19.1007 84.1999 19.1007 84.1999 19.2306C82.5107 21.6994 81.4712 22.7389 80.9515 22.7389C80.8215 22.7389 80.6916 22.609 80.6916 22.2192C80.6916 22.0892 80.6916 21.8294 80.8215 21.5695C81.0814 20.7899 81.861 19.6204 81.861 18.321C81.861 17.8013 81.6011 17.4115 81.0814 17.4115C80.0419 17.4115 78.8725 18.8408 78.0928 20.0102C78.3527 19.2306 78.4826 18.5809 78.4826 18.1911C78.4826 17.6714 78.3527 17.4115 77.833 17.4115C77.1833 17.4115 76.5336 17.8013 76.4036 18.8408C76.2737 19.6204 76.1438 20.1402 76.0138 20.53C75.3641 21.4396 74.5845 22.3491 74.1947 22.3491C73.9348 22.3491 73.8049 22.0892 73.8049 21.5695C73.8049 21.5695 75.2342 19.4905 75.2342 18.1911C75.2342 17.6714 74.7145 17.4115 74.0648 17.4115C73.8049 17.4115 73.675 17.6714 73.4151 17.9312C73.1552 17.6714 72.7654 17.4115 72.3756 17.4115C70.6864 17.4115 69.387 19.6204 69.1271 21.0497C68.4774 21.8294 67.9577 22.4791 67.5679 22.4791C67.308 22.4791 67.1781 22.2192 67.1781 21.6994C67.1781 21.4396 67.308 20.7899 67.308 20.4001C67.308 20.4001 68.2176 19.3605 68.2176 18.1911C68.2176 17.6714 67.9577 17.2815 67.438 17.2815C66.5284 17.2815 65.7488 19.1007 65.4889 20.7899C64.3194 22.2192 63.9296 22.3491 63.6698 22.3491C63.2799 22.3491 63.15 21.9593 63.15 21.4396C63.15 20.7899 63.4099 19.7504 63.4099 19.7504C64.1895 18.7109 66.9182 15.4624 66.9182 13.1235C66.9182 12.3439 66.6583 11.9541 65.8787 11.9541C63.9296 11.9541 61.7207 17.9312 61.3309 20.7899C60.6812 21.5695 60.1614 22.3491 59.7716 22.3491C59.5118 22.3491 59.3818 22.0892 59.3818 21.5695C59.3818 21.5695 60.8111 19.4905 60.8111 18.1911C60.8111 17.6714 60.2914 17.4115 59.6417 17.4115C59.3818 17.4115 59.2519 17.6714 58.992 17.9312C58.7321 17.6714 58.3423 17.4115 57.9525 17.4115C56.2633 17.4115 55.0939 19.3606 54.7041 20.9198C53.5346 22.3491 53.1448 22.4791 52.8849 22.4791C52.4951 22.4791 52.3652 22.0892 52.3652 21.5695C52.3652 20.9198 52.6251 19.8803 52.6251 19.8803C53.0149 19.2306 54.1843 17.9312 55.0939 16.372C57.3028 16.1121 59.2519 15.5924 59.2519 14.5529C59.2519 13.9032 58.6022 13.6433 58.0824 13.6433C57.6926 13.6433 57.3028 13.7732 57.3028 13.9032C57.3028 14.0331 57.4328 14.0331 57.4328 14.293C57.4328 14.6828 56.7831 15.3325 55.3538 15.7223C55.7436 14.9427 56.0034 14.163 56.0034 13.3834C56.0034 12.6038 55.7436 12.214 54.9639 12.214C53.9244 12.214 52.755 13.9032 51.9754 15.8522H51.8454C51.0658 15.8522 50.676 16.1121 50.676 16.242C50.676 16.242 50.676 16.372 50.8059 16.372C51.0658 16.5019 51.5856 16.5019 51.5856 16.5019C50.8059 18.5809 50.1562 20.9198 50.1562 21.9593C50.1562 23.2587 50.9359 23.9084 51.7155 23.9084C52.4951 23.9084 53.0149 23.6485 54.3143 22.0892C54.4442 23.2587 54.9639 23.9084 56.0034 23.9084C56.7831 23.9084 57.3028 23.5186 57.8226 22.9988C57.9525 23.5186 58.2124 23.9084 58.8621 23.9084C59.6417 23.9084 60.2914 23.3886 61.2009 22.2192C61.2009 23.3886 61.8506 23.9084 62.6303 23.9084C63.4099 23.9084 64.0596 23.6485 65.229 22.2192C65.229 22.3491 65.229 22.3491 65.229 22.4791C65.229 23.1287 65.3589 23.9084 66.3984 23.9084C67.1781 23.9084 67.9577 23.3886 68.9972 22.2192C69.1271 23.2587 69.6469 23.9084 70.6864 23.9084C71.466 23.9084 71.9858 23.5186 72.5055 22.9988C72.6355 23.5186 72.8953 23.9084 73.545 23.9084C74.3246 23.9084 74.8444 23.5186 75.624 22.4791C75.624 22.609 75.624 22.7389 75.624 22.8689C75.624 23.6485 75.8839 23.9084 76.4036 23.9084C77.3132 23.9084 77.703 22.7389 78.0928 21.8294C78.4826 20.9198 79.5221 19.3605 79.912 19.3605C80.0419 19.3605 80.0419 19.3605 80.0419 19.4905C80.0419 19.8803 79.1323 21.1797 79.1323 22.4791C79.1323 23.1287 79.2623 23.9084 80.3018 23.9084C81.4712 23.9084 81.991 23.3886 84.8496 19.6204C84.9795 19.4905 84.9795 19.4905 84.9795 19.3605C84.7196 19.2306 84.5897 19.1007 84.4598 19.1007ZM65.7488 14.5529C65.8787 14.5529 65.8787 14.5529 65.8787 14.6828C65.8787 15.2025 65.0991 16.6319 64.0596 18.1911C63.9296 18.1911 65.229 14.5529 65.7488 14.5529ZM54.834 14.5529C54.834 14.5529 54.9639 14.5529 54.9639 14.6828C54.9639 14.9427 54.834 15.3325 54.5741 15.8522H54.0544C54.3143 15.0726 54.7041 14.5529 54.834 14.5529ZM53.6646 16.5019C53.7945 16.5019 53.9244 16.5019 54.0544 16.5019C53.7945 17.0217 53.4047 17.6714 53.0149 18.1911C53.0149 18.1911 53.4047 17.2815 53.6646 16.5019ZM57.8226 22.0892C57.5627 22.3491 57.3028 22.609 56.913 22.609C56.3933 22.609 56.1334 22.2192 56.1334 21.6994C56.1334 21.1797 56.2633 20.53 56.5232 20.1402C56.913 19.4905 57.3028 18.8408 57.9525 18.8408C58.0824 18.8408 58.3423 18.8408 58.4723 18.9707C58.0824 20.0102 57.8226 21.5695 57.8226 22.0892ZM72.2456 22.0892C71.9858 22.3491 71.7259 22.609 71.3361 22.609C70.8163 22.609 70.5564 22.2192 70.5564 21.6994C70.5564 21.1797 70.6864 20.53 70.9463 20.1402C71.3361 19.4905 71.7259 18.8408 72.3756 18.8408C72.5055 18.8408 72.7654 18.8408 72.8953 18.9707C72.5055 20.0102 72.2456 21.5695 72.2456 22.0892Z" fill="#B6B7BE"/>
<path d="M92.7759 58.8621H32.225L28.9766 53.2748L32.225 47.6875H92.7759L96.0244 53.2748L92.7759 58.8621ZM32.8747 57.8226H92.2562L94.8549 53.4048L92.2562 48.9869H32.8747L30.2759 53.4048L32.8747 57.8226Z" fill="#B6B7BE"/>
<path d="M51.8461 66.9187C51.1965 66.7888 50.8066 66.399 50.8066 65.6193C50.8066 65.3595 50.8066 65.2295 50.9366 65.0996C51.1965 65.0996 51.3264 65.0996 51.5863 65.2295C51.5863 65.4894 51.5863 65.4894 51.4563 65.7493C51.4563 66.1391 51.5863 66.269 51.8461 66.269C52.236 66.269 52.3659 66.1391 52.3659 65.7493C52.3659 65.4894 52.3659 65.2295 52.106 64.9697C51.8461 64.5798 51.7162 64.4499 51.4563 64.0601C51.1965 63.6703 51.0665 63.2805 51.1965 62.7607C51.3264 62.111 51.7162 61.5913 52.4958 61.7212C53.1455 61.8512 53.5353 62.241 53.4054 62.8907C53.4054 63.1505 53.4054 63.2805 53.2755 63.4104C53.0156 63.4104 52.8856 63.4104 52.6258 63.2805C52.6258 63.0206 52.6258 63.0206 52.7557 62.7607C52.7557 62.3709 52.6258 62.241 52.3659 62.241C52.106 62.241 51.8461 62.3709 51.8461 62.7607C51.8461 63.0206 51.8461 63.2805 52.106 63.5403C52.3659 63.9302 52.4958 64.0601 52.7557 64.4499C53.0156 64.8397 53.1455 65.2295 53.1455 65.7493C53.0156 66.5289 52.6258 67.0487 51.8461 66.9187Z" fill="#B6B7BE"/>
<path d="M53.5352 67.049C53.795 64.97 53.795 64.0604 54.0549 61.9814C54.3148 61.9814 54.4447 61.9814 54.7046 62.1114C54.4447 64.1904 54.4447 65.1 54.1848 67.179C54.0549 67.049 53.925 67.049 53.5352 67.049Z" fill="#B6B7BE"/>
<path d="M56.654 67.3088C56.2642 65.7496 56.1343 64.97 55.8744 63.4107C55.8744 63.4107 55.8744 64.0604 55.8744 64.4502C55.7445 65.4897 55.7445 66.1394 55.6145 67.1789C55.3547 67.1789 55.2247 67.1789 54.9648 67.1789C55.0948 65.0999 55.2247 64.1903 55.4846 62.1113C55.7445 62.1113 55.8744 62.1113 56.2642 62.1113C56.5241 63.6706 56.654 64.4502 57.0438 66.0095C57.0438 66.0095 57.0438 65.3598 57.0438 64.97C57.1738 63.9305 57.1738 63.2808 57.1738 62.2413C57.4337 62.2413 57.5636 62.2413 57.8235 62.2413C57.6935 64.3203 57.6935 65.2298 57.5636 67.3088C57.1738 67.3088 57.0438 67.3088 56.654 67.3088Z" fill="#B6B7BE"/>
<path d="M59.3825 67.5686C58.6029 67.5686 58.213 67.1788 58.343 66.3992C58.343 65.2297 58.4729 64.58 58.4729 63.4106C58.4729 62.7609 58.8627 62.3711 59.6424 62.3711C60.292 62.3711 60.6819 62.7609 60.6819 63.5405C60.6819 63.8004 60.6819 63.9303 60.6819 64.0603C60.422 64.0603 60.292 64.0603 60.0322 64.0603C60.0322 63.8004 60.0322 63.8004 60.0322 63.5405C60.0322 63.1507 59.9022 63.0208 59.6424 63.0208C59.3825 63.0208 59.2525 63.1507 59.2525 63.5405C59.2525 64.71 59.1226 65.3597 59.1226 66.5291C59.1226 66.9189 59.2525 67.0488 59.5124 67.0488C59.7723 67.0488 59.9022 66.9189 59.9022 66.5291C59.9022 66.2692 59.9022 66.2692 59.9022 66.0093C60.1621 66.0093 60.292 66.0093 60.5519 66.0093C60.5519 66.2692 60.5519 66.3992 60.5519 66.5291C60.422 67.1788 60.0322 67.5686 59.3825 67.5686Z" fill="#B6B7BE"/>
<path d="M61.0703 67.5685C61.0703 65.4895 61.0703 64.58 61.2002 62.501C61.8499 62.501 62.2398 62.501 62.8894 62.501C62.8894 62.7609 62.8894 62.8908 62.8894 63.1507C62.4996 63.1507 62.2397 63.1507 61.8499 63.1507C61.8499 63.8004 61.8499 64.0602 61.8499 64.7099C62.2397 64.7099 62.3697 64.7099 62.7595 64.7099C62.7595 64.9698 62.7595 65.0997 62.7595 65.3596C62.3697 65.3596 62.2397 65.3596 61.8499 65.3596C61.8499 66.0093 61.8499 66.3991 61.8499 67.0488C62.2397 67.0488 62.4996 67.0488 62.8894 67.0488C62.8894 67.3087 62.8894 67.4386 62.8894 67.6985C62.1098 67.5685 61.72 67.5685 61.0703 67.5685Z" fill="#B6B7BE"/>
<path d="M64.9691 67.4387C64.9691 65.8795 64.8391 65.0998 64.8391 63.4106C64.5793 63.4106 64.4493 63.4106 64.1895 63.4106C64.1895 63.1508 64.1895 63.1508 64.1895 62.8909C64.5793 62.8909 64.8391 62.761 64.8391 62.2412C65.099 62.2412 65.229 62.2412 65.3589 62.2412C65.4888 64.3202 65.4888 65.2298 65.4888 67.3088C65.3589 67.4387 65.229 67.4387 64.9691 67.4387Z" fill="#B6B7BE"/>
<path d="M67.4391 67.4387C66.6595 67.4387 66.2696 67.0488 66.2696 66.3992C66.2696 66.2692 66.2696 66.1393 66.2696 66.0093C66.5295 66.0093 66.6595 66.0093 66.9193 66.0093C66.9193 66.1393 66.9193 66.2692 66.9193 66.3992C66.9193 66.789 67.0493 66.9189 67.3091 66.9189C67.569 66.9189 67.699 66.789 67.699 66.3992C67.699 65.8794 67.699 65.6195 67.569 65.2297C67.569 65.3597 67.3091 65.6195 67.0493 65.6195C66.3996 65.6195 66.0098 65.2297 66.0098 64.58C66.0098 64.1902 66.0098 63.9303 66.0098 63.5405C66.0098 62.8908 66.3996 62.3711 67.0493 62.3711C67.699 62.3711 68.2187 62.7609 68.2187 63.4106C68.3486 64.58 68.3486 65.2297 68.4786 66.3992C68.6085 66.9189 68.2187 67.4387 67.4391 67.4387ZM67.699 63.4106C67.699 63.0208 67.569 62.8908 67.3091 62.8908C67.0493 62.8908 66.9193 63.0208 66.9193 63.4106C66.9193 63.8004 66.9193 63.9303 66.9193 64.3202C66.9193 64.71 67.0493 64.8399 67.3091 64.8399C67.569 64.8399 67.699 64.58 67.699 64.3202C67.699 63.9303 67.699 63.6705 67.699 63.4106Z" fill="#B6B7BE"/>
<path d="M70.2965 67.179C69.5169 67.3089 69.1271 66.9191 68.9971 66.1395C68.9971 65.8796 68.9971 65.7497 68.9971 65.3599C68.9971 64.9701 69.3869 64.4503 69.3869 64.4503C69.3869 64.4503 68.8672 64.0605 68.8672 63.6707C68.8672 63.4108 68.8672 63.2809 68.8672 63.021C68.8672 62.3713 69.257 61.8516 69.9067 61.8516C70.5564 61.8516 71.0761 62.1114 71.0761 62.8911C71.0761 63.1509 71.0761 63.2809 71.2061 63.5408C71.2061 63.9306 70.8163 64.3204 70.8163 64.3204C70.8163 64.3204 71.336 64.7102 71.336 65.1C71.336 65.3599 71.336 65.4898 71.4659 65.8796C71.4659 66.6593 71.0761 67.179 70.2965 67.179ZM70.6863 65.3599C70.6863 64.9701 70.4264 64.8401 70.1666 64.8401C69.9067 64.8401 69.6468 65.1 69.7768 65.3599C69.7768 65.6198 69.7767 65.7497 69.9067 66.1395C69.9067 66.5293 70.1666 66.6593 70.4264 66.6593C70.6863 66.6593 70.9462 66.3994 70.8163 66.1395C70.6863 65.7497 70.6863 65.6198 70.6863 65.3599ZM70.4264 63.1509C70.4264 62.7611 70.1666 62.6312 69.9067 62.6312C69.6468 62.6312 69.5169 62.8911 69.5169 63.1509C69.5169 63.4108 69.5169 63.5408 69.5169 63.8006C69.5169 64.1904 69.7768 64.3204 70.0366 64.3204C70.2965 64.3204 70.4264 64.0605 70.4264 63.8006C70.4264 63.5408 70.4264 63.4108 70.4264 63.1509Z" fill="#B6B7BE"/>
<path d="M73.1569 66.9191C72.5072 67.0491 71.9875 66.6593 71.8575 66.0096C71.8575 65.7497 71.8575 65.6198 71.7276 65.4898C71.9875 65.4898 72.1174 65.4898 72.3773 65.3599C72.3773 65.6198 72.3773 65.6198 72.5072 65.8796C72.5072 66.2694 72.7671 66.3994 73.027 66.3994C73.2868 66.3994 73.4168 66.1395 73.4168 65.8796C73.2868 65.3599 73.2868 65.1 73.2868 64.5803C73.2868 64.3204 73.027 64.1904 72.897 64.1904C72.6372 64.1904 72.5072 64.4503 72.5072 64.7102C72.2473 64.7102 72.1174 64.7102 71.8575 64.8401C71.7276 63.8006 71.7276 63.1509 71.5977 62.1114C72.3773 61.9815 72.7671 61.9815 73.5467 61.8516C73.5467 62.1114 73.5467 62.2414 73.6767 62.5013C73.1569 62.6312 72.897 62.6312 72.3773 62.6312C72.3773 63.1509 72.3773 63.4108 72.5072 63.9306C72.6372 63.8006 72.897 63.6707 73.027 63.5408C73.6767 63.4108 73.9365 63.9306 74.0665 64.4503C74.1964 64.9701 74.1964 65.2299 74.1964 65.7497C74.3263 66.3994 73.9365 66.7892 73.1569 66.9191Z" fill="#B6B7BE"/>
<path d="M75.6245 67.6982C65.0995 69.3874 59.7721 69.3874 49.2471 67.6982C49.1172 68.0881 49.1172 68.3479 49.1172 68.7377C59.7721 70.4269 65.2294 70.4269 75.7544 68.7377C75.7544 68.3479 75.7544 68.0881 75.6245 67.6982Z" fill="#B6B7BE"/>
<path d="M32.8761 57.8222H92.1276L94.7264 53.4043L92.1276 48.8564H32.8761L30.2773 53.4043L32.8761 57.8222Z" fill="#F5F1E9"/>
<path d="M39.2408 52.6246C39.2408 53.4043 38.981 53.7941 38.3313 54.0539L39.5007 55.7431H38.2013L37.1618 54.3138H36.5122V55.7431H35.4727V51.1953H37.1618C37.8115 51.1953 38.3313 51.3252 38.7211 51.5851C39.1109 51.7151 39.2408 52.1049 39.2408 52.6246ZM38.0714 53.1444C38.2013 53.0144 38.2013 52.8845 38.2013 52.6246C38.2013 52.3648 38.0714 52.2348 37.9415 52.1049C37.9415 51.9749 37.6816 51.9749 37.4217 51.9749H36.6421V53.2743H37.4217C37.6816 53.2743 37.9415 53.2743 38.0714 53.1444Z" fill="#B6B7BE"/>
<path d="M44.6977 51.0654V51.975H42.4887V52.8846H44.5677V53.7941H42.4887V54.7037H44.8276V55.6132H41.4492V51.0654H44.6977Z" fill="#B6B7BE"/>
<path d="M47.6871 51.9752C47.5572 52.1051 47.5572 52.1051 47.5572 52.235C47.5572 52.365 47.5572 52.4949 47.6871 52.4949C47.8171 52.6248 48.0769 52.6248 48.4668 52.7548C48.8566 52.8847 49.2464 53.0147 49.5063 53.2745C49.7661 53.5344 49.8961 53.7943 49.8961 54.1841C49.8961 54.5739 49.7661 54.9637 49.3763 55.2236C49.1164 55.4835 48.7266 55.6134 48.2069 55.6134C47.4273 55.6134 46.7776 55.3535 46.2578 54.8338L46.9075 54.0542C47.4273 54.444 47.8171 54.7038 48.2069 54.7038C48.3368 54.7038 48.5967 54.7038 48.5967 54.5739C48.7266 54.444 48.7266 54.444 48.7266 54.1841C48.7266 54.0542 48.7266 53.9242 48.5967 53.7943C48.4668 53.6644 48.2069 53.6643 47.947 53.5344C47.4273 53.4045 47.0374 53.2745 46.7776 53.0147C46.5177 52.7548 46.3878 52.4949 46.3878 52.1051C46.3878 51.7153 46.5177 51.3255 46.9075 51.0656C47.1674 50.8057 47.5572 50.6758 48.0769 50.6758C48.3368 50.6758 48.7266 50.6758 48.9865 50.8057C49.2464 50.9357 49.5063 51.0656 49.7661 51.1955L49.3763 52.365C48.9865 52.1051 48.5967 51.9752 48.2069 51.9752C47.947 51.8452 47.8171 51.9752 47.6871 51.9752Z" fill="#B6B7BE"/>
<path d="M53.794 51.975V55.6132H52.7545V51.975H51.4551V51.0654H55.0933V51.975H53.794Z" fill="#B6B7BE"/>
<path d="M59.7712 55.6132L59.3814 54.5737H57.4323L57.0425 55.6132H55.873L57.8221 51.0654H58.8616L60.8107 55.6132H59.7712ZM58.3419 52.4947L57.8221 53.7941H58.9916L58.3419 52.4947Z" fill="#B6B7BE"/>
<path d="M63.4088 54.4438C63.5387 54.7037 63.7986 54.7037 64.0584 54.7037C64.3183 54.7037 64.5782 54.5738 64.7081 54.4438C64.8381 54.1839 64.968 53.9241 64.968 53.5342V51.0654H66.0075V53.6642C66.0075 54.3139 65.8776 54.8336 65.4878 55.2234C65.0979 55.6133 64.7081 55.7432 64.0584 55.7432C63.5387 55.7432 63.0189 55.6133 62.6291 55.2234C62.2393 54.8336 62.1094 54.3139 62.1094 53.6642V51.0654H63.1489V53.5342C63.1489 53.9241 63.2788 54.3139 63.4088 54.4438Z" fill="#B6B7BE"/>
<path d="M71.8561 52.6246C71.8561 53.4043 71.5962 53.7941 70.9465 54.0539L72.116 55.7431H70.8166L69.7771 54.3138H69.1274V55.7431H68.0879V51.1953H69.7771C70.4268 51.1953 70.9465 51.3252 71.3363 51.5851C71.7261 51.7151 71.8561 52.1049 71.8561 52.6246ZM70.6866 53.1444C70.8166 53.0144 70.8166 52.8845 70.8166 52.6246C70.8166 52.3648 70.6866 52.2348 70.5567 52.1049C70.5567 51.9749 70.2968 51.9749 69.907 51.9749H69.1274V53.2743H69.907C70.2968 53.2743 70.5567 53.2743 70.6866 53.1444Z" fill="#B6B7BE"/>
<path d="M77.1823 55.6132L76.7924 54.5737H74.8434L74.4536 55.6132H73.4141L75.3631 51.0654H76.4026L78.3517 55.6132H77.1823ZM75.7529 52.4947L75.2332 53.7941H76.4026L75.7529 52.4947Z" fill="#B6B7BE"/>
<path d="M83.0297 51.0654H84.0692V55.6132H83.0297L80.8207 52.7546V55.6132H79.7812V51.0654H80.6908L82.8997 54.054V51.0654H83.0297Z" fill="#B6B7BE"/>
<path d="M88.0967 51.975V55.6132H87.0572V51.975H85.7578V51.0654H89.3961V51.975H88.0967Z" fill="#B6B7BE"/>
<path d="M17.4121 29.756C17.4121 29.4961 17.542 29.3662 17.8019 29.3662H22.8695C25.5982 29.3662 27.6772 31.5752 27.6772 34.1739C27.6772 36.9026 25.4682 39.1115 22.8695 39.1115H20.1408V44.1791C20.1408 44.439 19.8809 44.5689 19.751 44.5689H17.8019C17.542 44.5689 17.4121 44.309 17.4121 44.1791V29.756ZM22.7396 36.3828C23.909 36.3828 24.9485 35.3433 24.9485 34.1739C24.9485 33.0045 23.909 32.0949 22.7396 32.0949H20.2707V36.3828H22.7396Z" fill="#B6B7BE"/>
<path d="M38.9805 29.756C38.9805 29.4961 39.1104 29.3662 39.3703 29.3662H41.4493C41.7092 29.3662 41.8391 29.4961 41.8391 29.756V44.1791C41.8391 44.439 41.5792 44.5689 41.4493 44.5689H39.3703C39.1104 44.5689 38.9805 44.309 38.9805 44.1791V29.756Z" fill="#B6B7BE"/>
<path d="M53.0156 43.7893L59.5125 32.0949V31.965H54.0551C53.7952 31.965 53.6653 31.7051 53.6653 31.5752V29.756C53.6653 29.4961 53.7952 29.3662 54.0551 29.3662H63.1508C63.4106 29.3662 63.5406 29.4961 63.5406 29.756V30.0159L57.1736 41.9702H62.7609C63.0208 41.9702 63.1508 42.1001 63.1508 42.36V44.1791C63.1508 44.439 63.0208 44.5689 62.7609 44.5689H53.5354C53.2755 44.5689 53.1456 44.309 53.1456 44.1791V43.7893H53.0156Z" fill="#B6B7BE"/>
<path d="M73.2852 43.7893L79.782 32.0949V31.965H74.3247C74.0648 31.965 73.9348 31.7051 73.9348 31.5752V29.756C73.9348 29.4961 74.1947 29.3662 74.3247 29.3662H83.4203C83.6802 29.3662 83.8101 29.4961 83.8101 29.756V30.0159L77.4432 41.8402H83.0305C83.2903 41.8402 83.4203 41.9702 83.4203 42.23V44.1791C83.4203 44.439 83.2903 44.5689 83.0305 44.5689H73.8049C73.545 44.5689 73.4151 44.309 73.4151 44.1791V43.7893H73.2852Z" fill="#B6B7BE"/>
<path d="M93.1659 44.0492L99.9227 29.4962C99.9227 29.3663 100.053 29.2363 100.312 29.2363H100.572C100.832 29.2363 100.832 29.3663 100.962 29.4962L107.589 44.0492C107.719 44.3091 107.589 44.569 107.199 44.569H105.25C104.86 44.569 104.73 44.439 104.6 44.1792L103.561 41.8403H97.064L96.0245 44.1792C95.8946 44.439 95.7647 44.569 95.3749 44.569H93.5557C93.1659 44.569 93.036 44.3091 93.1659 44.0492ZM102.521 39.3715L100.312 34.5638L98.2335 39.3715H102.521Z" fill="#B6B7BE"/>
<path d="M54.7031 1.55909C58.7312 -0.649846 63.6688 -0.519909 67.5669 1.81897L67.0472 2.72853C63.4089 0.519593 58.9911 0.389655 55.2229 2.46866L54.7031 1.55909Z" fill="#B6B7BE"/>
<path d="M55.3516 2.59897C58.9898 0.649901 63.4077 0.779839 66.916 2.85884L60.8089 12.7341L55.3516 2.59897Z" fill="#B6B7BE"/>
<path d="M63.7988 5.45697C64.1886 5.06716 64.1886 4.41747 63.7988 4.15759C63.409 3.76778 62.7593 3.76778 62.4994 4.15759C62.1096 4.54741 62.1096 5.1971 62.4994 5.45697C62.7593 5.84678 63.409 5.84678 63.7988 5.45697Z" fill="#F5F1E9"/>
<path d="M59.5117 5.32709C59.9015 4.93728 59.9015 4.28759 59.5117 4.02771C59.1218 3.6379 58.4722 3.6379 58.2123 4.02771C57.8225 4.41752 57.8225 5.06721 58.2123 5.32709C58.6021 5.7169 59.1218 5.7169 59.5117 5.32709Z" fill="#F5F1E9"/>
</g>
<defs>
<clipPath id="clip0_112_149">
<rect width="125" height="70.0364" fill="white"/>
</clipPath>
</defs>
</svg>
