<svg width="114" height="65" viewBox="0 0 114 65" fill="none" xmlns="http://www.w3.org/2000/svg">
<g clip-path="url(#clip0_112_206)">
<path d="M93.1395 64.2008H15.7068C15.2117 64.2008 14.8066 63.7957 14.8066 63.3007V49.6189C14.8066 49.1238 15.2117 48.7188 15.7068 48.7188H93.1395C93.6346 48.7188 94.0396 49.1238 94.0396 49.6189V63.3007C94.0396 63.8182 93.6346 64.2008 93.1395 64.2008Z" fill="#A6A4A1"/>
<path d="M88.0986 31.6838C87.401 29.9061 86.4334 28.3084 85.1957 26.8682C83.9581 25.428 82.4504 24.2804 80.6951 23.4252C78.9399 22.5701 77.0046 22.1426 74.8668 22.1426C72.7741 22.1426 70.8388 22.5476 69.0836 23.3577C67.3283 24.1678 65.8206 25.2705 64.538 26.6657C63.2553 28.0609 62.2427 29.6361 61.5226 31.4363C60.78 33.214 60.4199 35.0818 60.4199 37.0396C60.4199 38.9073 60.7575 40.7525 61.4551 42.5303C62.1527 44.308 63.1203 45.9057 64.3805 47.3459C65.6406 48.7636 67.1483 49.8888 68.9036 50.7214C70.6588 51.554 72.6165 51.959 74.7543 51.959C76.8246 51.959 78.7374 51.554 80.4926 50.7664C82.2478 49.9563 83.7555 48.8761 85.0382 47.4809C86.3209 46.0858 87.311 44.488 88.0311 42.7103C88.7512 40.9326 89.1112 39.0648 89.1112 37.1296C89.1337 35.2618 88.7737 33.4391 88.0986 31.6838ZM80.9202 39.7624C80.6276 40.6625 80.2226 41.4726 79.66 42.2152C79.1199 42.9353 78.4223 43.5204 77.5897 43.9705C76.7571 44.398 75.812 44.6231 74.7768 44.6231C73.7417 44.6231 72.8191 44.4205 72.009 43.993C71.1989 43.5879 70.5013 43.0254 69.9387 42.3053C69.3761 41.6077 68.9486 40.7976 68.656 39.8749C68.3635 38.9748 68.206 38.0297 68.206 37.0621C68.206 36.1394 68.341 35.2168 68.6335 34.3392C68.9261 33.4616 69.3311 32.6515 69.8937 31.9314C70.4338 31.2113 71.1313 30.6262 71.9415 30.1986C72.7516 29.7711 73.6967 29.5461 74.7768 29.5461C75.7895 29.5461 76.7121 29.7486 77.5222 30.1536C78.3323 30.5587 79.0299 31.1213 79.5925 31.8414C80.1551 32.5615 80.5826 33.3491 80.8976 34.2492C81.2127 35.1493 81.3477 36.0944 81.3477 37.0621C81.3477 37.9622 81.1902 38.8623 80.9202 39.7624Z" fill="#A6A4A1"/>
<path d="M24.1458 53.4221H21.333V60.6906H19.9828V53.4221H17.1699V52.252H24.1458V53.4221Z" fill="white"/>
<path d="M25.7439 52.252L28.3092 59.0704L30.852 52.252H32.2472L28.9168 60.7131H27.6566L24.3262 52.252H25.7439Z" fill="white"/>
<path d="M35.1719 56.3926C35.1719 55.875 35.2619 55.38 35.4419 54.8849C35.6219 54.3898 35.892 53.9398 36.252 53.5347C36.6121 53.1297 37.0396 52.7921 37.5347 52.5671C38.0298 52.3195 38.6148 52.207 39.2449 52.207C40.01 52.207 40.6851 52.3871 41.2252 52.7246C41.7878 53.0621 42.1928 53.5122 42.4628 54.0523L41.4052 54.7499C41.2477 54.4123 41.0677 54.1423 40.8201 53.9398C40.5726 53.7372 40.3251 53.6022 40.0325 53.5122C39.74 53.4222 39.4699 53.3997 39.1999 53.3997C38.7724 53.3997 38.3673 53.4897 38.0523 53.6697C37.7147 53.8498 37.4447 54.0748 37.2196 54.3673C36.9946 54.6599 36.8146 54.9974 36.7246 55.3575C36.6121 55.7175 36.5671 56.0776 36.5671 56.4601C36.5671 56.8652 36.6346 57.2702 36.7696 57.6303C36.9046 58.0128 37.0846 58.3279 37.3322 58.6204C37.5797 58.9129 37.8497 59.138 38.1873 59.2955C38.5248 59.453 38.8849 59.543 39.2674 59.543C39.5375 59.543 39.83 59.498 40.1225 59.408C40.4151 59.318 40.6851 59.1605 40.9326 58.9579C41.1802 58.7554 41.3827 58.4854 41.5177 58.1703L42.6204 58.8004C42.4628 59.228 42.1928 59.588 41.8103 59.8806C41.4502 60.1731 41.0227 60.3981 40.5726 60.5557C40.1225 60.7132 39.65 60.7807 39.1999 60.7807C38.6148 60.7807 38.0748 60.6457 37.6022 60.3981C37.1071 60.1506 36.6796 59.8131 36.3195 59.408C35.9595 58.9805 35.6894 58.5304 35.4869 58.0128C35.2619 57.4502 35.1719 56.9327 35.1719 56.3926Z" fill="white"/>
<path d="M50.7219 52.252V60.7131H49.3942V56.9776H45.1412V60.7131H43.791V52.252H45.1412V55.7849H49.3942V52.252H50.7219Z" fill="white"/>
<path d="M54.9964 52.252H56.2565L59.542 60.7131H58.1468L57.3142 58.4178H53.9387L53.1061 60.7131H51.7109L54.9964 52.252ZM56.9766 57.4052L55.649 53.6922L54.3213 57.4052H56.9766Z" fill="white"/>
<path d="M61.8834 54.7273V60.7131H60.5332V52.252H61.6358L66.429 58.3503V52.252H67.7566V60.6906H66.609L61.8834 54.7273Z" fill="white"/>
<path d="M70.9517 54.7273V60.7131H69.6016V52.252H70.7042L75.4973 58.3503V52.252H76.825V60.6906H75.6774L70.9517 54.7273Z" fill="white"/>
<path d="M84.4776 59.5205V60.6906H78.6719V52.2295H84.3876V53.3997H80.0446V55.8075H83.825V56.9101H80.0446V59.498H84.4776V59.5205Z" fill="white"/>
<path d="M85.8047 60.6906V52.2295H87.1549V59.498H91.678V60.6681H85.8047V60.6906Z" fill="white"/>
<path d="M10.0371 32.2921C10.0371 30.4918 10.3522 28.7366 11.0047 27.0039C11.6573 25.2711 12.6025 23.6959 13.8401 22.2782C15.0778 20.8605 16.608 19.7354 18.3857 18.8803C20.186 18.0477 22.2337 17.6201 24.5065 17.6201C27.2069 17.6201 29.5472 18.2052 31.5275 19.3979C33.1027 20.343 34.3629 21.5356 35.308 22.9533C35.6905 23.5384 35.533 24.326 34.9704 24.7086L32.7201 26.2613C32.1351 26.6663 31.3249 26.5088 30.9199 25.9237C30.5373 25.3386 30.0873 24.8436 29.5922 24.4385C28.7821 23.7859 27.927 23.3359 27.0269 23.0658C26.1268 22.7958 25.2266 22.6833 24.3265 22.6833C22.8863 22.6833 21.6487 22.9758 20.5685 23.5609C19.5109 24.146 18.6108 24.9111 17.8907 25.8337C17.1706 26.7788 16.6305 27.814 16.2929 28.9841C15.9554 30.1543 15.7754 31.3019 15.7754 32.4721C15.7754 33.7773 15.9779 35.0149 16.4055 36.2301C16.8105 37.4227 17.3956 38.5029 18.1607 39.4255C18.9258 40.3481 19.8259 41.0907 20.8836 41.6308C21.9412 42.1709 23.1114 42.4409 24.394 42.4409C25.2941 42.4409 26.2393 42.2834 27.1619 41.9908C28.107 41.6983 28.9621 41.2032 29.7722 40.5507C30.2673 40.1456 30.6949 39.6505 31.0549 39.088C31.415 38.5029 32.1801 38.3004 32.7876 38.6604L35.2855 40.1006C35.8931 40.4606 36.1181 41.2482 35.758 41.8558C35.1955 42.8235 34.4304 43.6786 33.4852 44.4212C32.1801 45.4338 30.6949 46.2214 29.0746 46.739C27.4544 47.2565 25.8342 47.5266 24.2365 47.5266C22.1437 47.5266 20.2085 47.099 18.4757 46.2214C16.743 45.3438 15.2353 44.1961 13.9751 42.7334C12.715 41.2933 11.7473 39.6505 11.0272 37.8503C10.3972 35.96 10.0371 34.1373 10.0371 32.2921Z" fill="#CABFC1"/>
<path d="M62.874 26.4856C62.1764 24.7079 61.2088 23.1102 59.9711 21.67C58.7335 20.2298 57.2258 19.0821 55.4705 18.227C53.7153 17.3719 51.78 16.9443 49.6422 16.9443C47.5495 16.9443 45.6142 17.3494 43.859 18.1595C42.1037 18.9696 40.596 20.0723 39.3134 21.4674C38.0307 22.8626 37.0181 24.4603 36.298 26.2381C35.5554 28.0158 35.1953 29.8836 35.1953 31.8413C35.1953 33.7091 35.5329 35.5543 36.2305 37.332C36.928 39.1098 37.8957 40.7075 39.1558 42.1477C40.416 43.5654 41.9237 44.6905 43.6789 45.5231C45.4342 46.3557 47.3919 46.7608 49.5297 46.7608C51.6 46.7608 53.5128 46.3557 55.268 45.5681C57.0232 44.758 58.5309 43.6779 59.8136 42.2827C61.0963 40.8875 62.0864 39.2898 62.8065 37.5121C63.5266 35.7343 63.8866 33.8666 63.8866 31.9313C63.9091 30.0861 63.5716 28.2633 62.874 26.4856ZM55.7181 34.5867C55.4255 35.4868 55.0205 36.2969 54.4579 37.0395C53.9178 37.7596 53.2202 38.3447 52.3876 38.7947C51.555 39.2223 50.6099 39.4473 49.5747 39.4473C48.5396 39.4473 47.617 39.2448 46.8069 38.8172C45.9968 38.4122 45.2992 37.8496 44.7366 37.1295C44.174 36.4319 43.7465 35.6218 43.4539 34.6992C43.1614 33.7991 43.0039 32.8539 43.0039 31.8863C43.0039 30.9637 43.1389 30.0411 43.4314 29.1635C43.724 28.2633 44.129 27.4757 44.6916 26.7556C45.2317 26.0355 45.9292 25.4505 46.7394 25.0229C47.5495 24.5954 48.4946 24.3703 49.5747 24.3703C50.5874 24.3703 51.51 24.5728 52.3201 25.0004C53.1302 25.4055 53.8278 25.968 54.3904 26.6881C54.953 27.3857 55.3805 28.1958 55.6956 29.0959C56.0106 29.9961 56.1456 30.9412 56.1456 31.9088C56.1456 32.7864 56.0106 33.7091 55.7181 34.5867Z" fill="#A6A4A1"/>
<path d="M90.1465 43.7686V16.855C90.1465 16.1574 90.7091 15.5948 91.4067 15.5948H94.6021C95.2997 15.5948 95.8622 16.1574 95.8622 16.855V26.2387C95.8622 27.4089 97.3024 27.949 98.0675 27.0713L107.834 15.9774C108.081 15.7073 108.419 15.5498 108.779 15.5498H111.772C112.852 15.5498 113.437 16.81 112.717 17.6201L103.896 27.8589C103.513 28.309 103.491 28.9391 103.828 29.4116L113.752 42.981C114.36 43.8136 113.775 44.9837 112.739 44.9837H109.387C108.981 44.9837 108.599 44.7812 108.374 44.4662L100.475 33.5297C100.025 32.8996 99.0802 32.8321 98.5401 33.3947L96.1998 35.8475C95.9748 36.0725 95.8622 36.3876 95.8622 36.7251V43.7461C95.8622 44.4436 95.2997 45.0062 94.6021 45.0062H91.4067C90.7091 45.0062 90.1465 44.4436 90.1465 43.7686Z" fill="#CABFC1"/>
<path d="M27.3184 14.3348C27.5885 14.9199 27.8585 15.5274 28.1285 16.135C21.9177 17.8677 16.112 20.4106 10.7788 24.0336L10.4412 23.2685C10.1262 22.5709 9.81114 21.8733 9.49609 21.1982C10.0137 20.8381 10.5312 20.4781 11.2063 20.0505C14.7843 17.7552 18.6098 15.9775 22.6153 14.6048C24.0105 14.1322 25.4507 13.7497 26.8909 13.3896C27.0484 13.7047 27.1834 14.0197 27.3184 14.3348Z" fill="#E5E5E5"/>
<path d="M26.9132 14.447C27.1607 14.9871 27.4083 15.5271 27.6558 16.0897C27.1382 16.2472 26.5982 16.4048 26.0806 16.5623C25.608 15.2796 24.7304 13.2318 23.9428 12.9393C23.3352 12.7143 22.9077 12.3092 22.6602 11.9717C23.5378 12.0392 24.4379 11.9942 25.338 11.9942C25.518 11.9942 25.8106 12.0167 25.8556 12.1292C26.1931 12.8943 26.5532 13.6594 26.9132 14.447Z" fill="#E5E5E5"/>
<path d="M21.0858 3.26274C17.7554 2.63265 9.02424 1.73253 9.24927 9.40607C8.39415 8.9335 7.44903 8.59596 6.50391 8.1909C6.61642 7.87586 6.72894 7.4258 6.90896 6.99824C9.02424 1.77754 15.7076 -0.225235 20.5683 2.90269C20.7483 3.0152 20.9283 3.12772 21.0858 3.26274Z" fill="#E5E5E5"/>
<path d="M11.7017 16.405L14.087 21.7382C13.0518 22.3232 12.0392 22.9533 11.0491 23.6284L10.734 22.9308C9.83392 20.9281 8.9338 18.9253 8.03368 16.9225C7.85366 16.495 7.53862 16.3375 7.08856 16.4725C6.70601 16.6075 6.54849 17.0576 6.72851 17.4851C6.86353 17.8452 7.04355 18.1827 7.20107 18.5652C6.97605 18.6328 6.84103 18.7003 6.68351 18.7228C4.81576 18.9703 3.28556 18.3627 2.22792 16.8325C1.17029 15.2798 1.10278 13.5696 2.09291 11.9494C3.51059 9.60907 6.39097 9.15901 8.50625 10.6667C7.17857 10.8242 3.19555 11.5443 5.28832 13.8396C7.80865 16.585 9.94643 12.4669 11.7017 16.405Z" fill="#E5E5E5"/>
<path d="M28.8054 2.72624C27.0276 0.250905 23.5847 -0.44669 20.9518 1.08352C20.7718 1.19603 20.4343 1.15103 20.2317 1.06101C15.9337 -0.671721 11.8831 -0.356678 8.23766 2.68123C7.7651 3.06379 7.36004 3.49134 6.99999 3.96391C6.86498 4.14393 6.72996 4.32396 6.59494 4.52648C5.89735 5.53912 5.40228 6.70928 5.13225 7.96945C5.04224 8.352 4.88472 8.48702 4.52467 8.59954C3.51203 8.86957 2.63442 9.38714 1.91432 10.0397C0.406624 11.3674 -0.313471 13.4377 0.136589 15.5305C0.789175 18.6134 3.71456 20.6387 6.86498 20.1661C7.18002 20.1211 7.47256 20.0536 7.8101 19.9861C8.48519 21.4938 10.1504 25.0493 10.5105 25.8594C11.7481 25.0043 12.4232 24.4867 13.6834 23.6766C16.9013 21.6513 20.3218 20.0536 23.8997 18.8159C25.745 18.1858 27.6577 17.7358 29.548 17.2182C29.773 17.1507 29.0754 15.598 28.3328 14.0453C27.8377 12.9876 27.3202 11.93 27.0501 11.3449C27.3202 11.1199 27.5677 10.9399 27.8152 10.7148C28.5578 10.0847 29.0979 9.31963 29.458 8.46452C29.7055 7.85694 29.8405 7.20435 29.8855 6.55176C29.9755 5.22408 29.6155 3.8739 28.8054 2.72624ZM28.4003 5.33659C29.0079 8.59954 26.1725 11.2999 22.9321 10.5798C22.2795 10.4448 21.9195 10.6023 21.8069 11.0524C21.7169 11.5024 21.987 11.9075 22.6171 11.975C23.5172 12.0425 24.4173 11.9975 25.3174 11.9975C25.4974 11.9975 25.79 12.02 25.835 12.1325C26.195 12.8976 26.5551 13.6627 26.8926 14.4503C27.1402 14.9904 27.3877 15.5305 27.6352 16.0931C21.7169 17.7808 16.1812 20.2111 11.0505 23.6316L10.7355 22.934C10.488 22.3939 10.2629 21.8763 10.0154 21.3363C11.7481 20.1211 13.5259 18.9509 15.3486 17.8933C16.3162 17.3307 17.3064 16.8131 18.319 16.3406C19.3316 15.868 20.3668 15.4405 21.4469 15.1254C20.3443 15.3505 19.2641 15.688 18.2065 16.0705C17.1488 16.4531 16.1137 16.9032 15.0786 17.3757C13.1883 18.2533 11.3431 19.2435 9.52033 20.2786C9.02526 19.176 8.5302 18.0508 8.01263 16.9482C7.8326 16.5206 7.51756 16.3631 7.0675 16.4981C6.68495 16.6331 6.52743 17.0832 6.70746 17.5107C6.84247 17.8708 7.0225 18.2083 7.18002 18.5909C6.95499 18.6584 6.81997 18.7259 6.66245 18.7484C4.7947 18.9959 3.2645 18.3884 2.20686 16.8582C1.14922 15.3054 1.08171 13.5952 2.07184 11.975C3.71456 9.25212 7.36004 9.0721 9.47532 11.5924C9.79036 11.975 10.1279 12.155 10.578 11.8625C10.9605 11.6149 11.0055 11.1199 10.6005 10.6923C10.1954 10.2423 9.76786 9.74719 9.25029 9.45465C8.39518 8.98209 7.45005 8.64454 6.45992 8.21698C6.57244 7.90194 6.68495 7.45188 6.86498 7.02432C9.02526 1.78111 15.7086 -0.221659 20.5693 2.90626C21.5144 3.51385 22.302 4.25645 22.9321 5.20158C23.2696 5.69664 23.6522 5.80916 24.0572 5.53912C24.4173 5.29159 24.4398 4.88653 24.1248 4.41397C23.9897 4.21144 23.8772 4.00891 23.7197 3.85139C23.2021 3.28882 22.6846 2.72624 22.167 2.18617C24.5973 0.835984 27.8827 2.52371 28.4003 5.33659Z" fill="#CABFC1"/>
</g>
<defs>
<clipPath id="clip0_112_206">
<rect width="114" height="64.2011" fill="white"/>
</clipPath>
</defs>
</svg>
