<svg width="153" height="79" viewBox="0 0 153 79" fill="none" xmlns="http://www.w3.org/2000/svg">
<g clip-path="url(#clip0_112_299)">
<path d="M39.285 63.8799H37.7617V63.0693H41.8005V63.8799H40.2633V68.4078H39.285V63.8799Z" fill="#C8C8C8"/>
<path d="M44.4283 66.8842L43.9671 68.3935H42.9609L44.6799 63.041H45.9237L47.6566 68.3935H46.6084L46.1193 66.8842H44.4283ZM45.9516 66.1435L45.5324 64.8298C45.4345 64.5084 45.3367 64.1451 45.2668 63.8236H45.2529C45.169 64.1311 45.0991 64.5084 45.0013 64.8298L44.5821 66.1435H45.9516Z" fill="#C8C8C8"/>
<path d="M54.0291 68.1568C53.6937 68.2826 53.0228 68.4643 52.3101 68.4643C51.4017 68.4643 50.7169 68.2407 50.2138 67.7515C49.7387 67.3043 49.4592 66.5916 49.4732 65.7811C49.4732 64.0901 50.675 63 52.4499 63C53.1067 63 53.6238 63.1398 53.8753 63.2516L53.6657 64.0342C53.3722 63.9084 53.0089 63.8106 52.4499 63.8106C51.3039 63.8106 50.5073 64.4814 50.5073 65.7251C50.5073 66.941 51.248 67.6677 52.366 67.6677C52.7154 67.6677 52.9809 67.6258 53.1067 67.5559V66.2283H52.1284V65.4596H54.0151V68.1568H54.0291Z" fill="#C8C8C8"/>
<path d="M56.5312 63.0557H57.5095V67.5836H59.7036V68.3942H56.5312V63.0557Z" fill="#C8C8C8"/>
<path d="M62.9314 63.0557V68.4081H61.9531V63.0557H62.9314Z" fill="#C8C8C8"/>
<path d="M65.5449 68.4081V63.0557H66.649L68.0325 65.3476C68.3959 65.9485 68.7033 66.5634 68.9409 67.1364H68.9549C68.885 66.4237 68.871 65.7389 68.871 64.9144V63.0557H69.7794V68.4081H68.7732L67.3757 66.0603C67.0403 65.4734 66.6769 64.8165 66.4114 64.2156L66.3834 64.2296C66.4254 64.9144 66.4254 65.6271 66.4254 66.5075V68.4221H65.5449V68.4081Z" fill="#C8C8C8"/>
<path d="M75.4106 66.0317H73.3982V67.5969H75.6482V68.3935H72.4199V63.041H75.5364V63.8376H73.3982V65.2211H75.4106V66.0317Z" fill="#C8C8C8"/>
<path d="M85.4451 68.1568C85.1097 68.2826 84.4389 68.4643 83.7261 68.4643C82.8177 68.4643 82.133 68.2407 81.6299 67.7515C81.1547 67.3043 80.8752 66.5916 80.8892 65.7811C80.8892 64.0901 82.091 63 83.8659 63C84.5227 63 85.0398 63.1398 85.2913 63.2516L85.0817 64.0342C84.7882 63.9084 84.4249 63.8106 83.8659 63.8106C82.7199 63.8106 81.9233 64.4814 81.9233 65.7251C81.9233 66.941 82.664 67.6677 83.782 67.6677C84.1314 67.6677 84.3969 67.6258 84.5227 67.5559V66.2283H83.5724V65.4596H85.459V68.1568H85.4451Z" fill="#C8C8C8"/>
<path d="M92.6987 65.6689C92.6987 67.4577 91.6087 68.4919 90.1413 68.4919C88.6319 68.4919 87.6816 67.3459 87.6816 65.7667C87.6816 64.1176 88.7158 62.9717 90.2251 62.9717C91.7764 62.9717 92.6987 64.1456 92.6987 65.6689ZM88.7158 65.7527C88.7158 66.8428 89.2608 67.7092 90.1972 67.7092C91.1475 67.7092 91.6785 66.8428 91.6785 65.7248C91.6785 64.7186 91.1754 63.7683 90.1972 63.7683C89.2329 63.7543 88.7158 64.6487 88.7158 65.7527Z" fill="#C8C8C8"/>
<path d="M98.0376 66.0317H96.0251V67.5969H98.2751V68.3935H95.0469V63.041H98.1633V63.8376H96.0251V65.2211H98.0376V66.0317Z" fill="#C8C8C8"/>
<path d="M100.621 67.3459C100.943 67.5276 101.418 67.6813 101.921 67.6813C102.55 67.6813 102.899 67.3878 102.899 66.9546C102.899 66.5493 102.634 66.3117 101.949 66.0602C101.069 65.7388 100.51 65.2776 100.51 64.5089C100.51 63.6425 101.236 62.9717 102.396 62.9717C102.969 62.9717 103.402 63.0975 103.682 63.2372L103.444 64.0198C103.249 63.922 102.885 63.7683 102.382 63.7683C101.767 63.7683 101.488 64.1037 101.488 64.4111C101.488 64.8304 101.795 65.0121 102.508 65.2916C103.43 65.6409 103.892 66.1021 103.892 66.8847C103.892 67.7372 103.235 68.4919 101.865 68.4919C101.306 68.4919 100.719 68.3381 100.426 68.1565L100.621 67.3459Z" fill="#C8C8C8"/>
<path d="M110.39 63.0557V65.1939H112.654V63.0557H113.633V68.4081H112.654V66.0463H110.39V68.4081H109.412V63.0557H110.39Z" fill="#C8C8C8"/>
<path d="M119.25 66.0317H117.238V67.5969H119.488V68.3935H116.26V63.041H119.376V63.8376H117.238V65.2211H119.25V66.0317Z" fill="#C8C8C8"/>
<path d="M121.85 63.1255C122.213 63.0556 122.758 63.0137 123.331 63.0137C124.1 63.0137 124.631 63.1394 124.98 63.4469C125.274 63.6985 125.441 64.0618 125.441 64.523C125.441 65.2078 124.98 65.6829 124.477 65.8646V65.8925C124.854 66.0323 125.092 66.4096 125.218 66.9267C125.385 67.5975 125.525 68.2124 125.637 68.422H124.631C124.547 68.2683 124.421 67.8211 124.267 67.1643C124.114 66.4655 123.862 66.2419 123.303 66.228H122.814V68.422H121.85V63.1255ZM122.814 65.4873H123.387C124.044 65.4873 124.463 65.1379 124.463 64.6068C124.463 64.0199 124.044 63.7544 123.415 63.7544C123.107 63.7544 122.912 63.7823 122.814 63.7963V65.4873Z" fill="#C8C8C8"/>
<path d="M130.864 66.0317H128.851V67.5969H131.101V68.3935H127.873V63.041H130.99V63.8376H128.851V65.2211H130.864V66.0317Z" fill="#C8C8C8"/>
<path d="M114.052 35.4691C114.82 36.4474 114.275 37.5514 114.275 37.5514C113.66 39.2145 112.556 41.4365 111.578 43.3092C111.606 43.3232 111.634 43.3371 111.662 43.3511C112.654 41.4784 113.758 39.2424 114.359 37.5934C114.401 37.5095 114.862 36.4334 114.15 35.4552C114.485 34.6586 118.789 24.4428 122.032 23.772L116.833 36.126C116.609 36.1958 115.855 36.6011 114.681 39.1306C114.667 39.1725 113.674 41.5064 112.822 43.9381C112.85 43.952 112.878 43.966 112.906 43.994C113.772 41.5343 114.764 39.1725 114.764 39.1725C116.092 36.2797 116.903 36.2098 116.903 36.2098L122.185 23.6602C118.719 24.0375 114.052 35.4691 114.052 35.4691Z" fill="#C8C8C8"/>
<path d="M114.891 38.2643C114.807 38.4181 114.709 38.6137 114.597 38.8234C114.541 38.9352 114.486 39.047 114.416 39.1727C114.36 39.2985 114.29 39.4243 114.234 39.564C114.164 39.7038 114.108 39.8435 114.038 39.9833C114.01 40.0532 113.968 40.137 113.94 40.2069C113.913 40.2907 113.871 40.3606 113.843 40.4445C113.703 40.7659 113.563 41.1013 113.409 41.4367C113.27 41.7861 113.13 42.1494 112.99 42.5128C112.92 42.6945 112.836 42.8762 112.781 43.0718C112.711 43.2675 112.655 43.4491 112.585 43.6448C112.571 43.6867 112.557 43.7286 112.543 43.7566C112.571 43.7706 112.585 43.7845 112.613 43.7985C112.627 43.7566 112.641 43.7147 112.655 43.6727C112.725 43.4771 112.781 43.2954 112.85 43.0997C112.906 42.9041 112.99 42.7224 113.06 42.5407C113.2 42.1774 113.34 41.814 113.465 41.4647C113.605 41.1153 113.745 40.7799 113.885 40.4724L113.982 40.2348C114.01 40.151 114.052 40.0811 114.08 40.0112C114.15 39.8575 114.206 39.7178 114.276 39.578C114.332 39.4383 114.402 39.3125 114.458 39.1867C114.513 39.0609 114.569 38.9491 114.625 38.8373C114.737 38.6277 114.835 38.4321 114.891 38.2643Z" fill="#C8C8C8"/>
<path d="M54.9643 36.8524C55.16 37.1738 56.1522 38.8229 58.3603 43.3368C58.3883 43.3229 58.4162 43.3089 58.4442 43.2949C56.2221 38.7949 55.2438 37.1458 55.0342 36.7965L54.9923 36.7126C54.5032 35.8322 53.8883 35.4968 52.9659 35.2033C52.5746 35.0775 52.2112 34.8539 51.8199 34.4906C51.3587 34.0713 51.0373 33.6521 50.8696 33.2468C50.8417 33.1909 47.5854 25.6862 47.5575 25.6164C47.5575 25.6164 47.5156 25.5046 47.5575 25.4766C47.5854 25.4626 47.6553 25.4487 47.7112 25.5744L51.5963 32.7996C51.764 33.0791 52.0016 33.0511 52.1134 32.9952H52.1274C52.337 32.8555 52.323 32.6179 52.2811 32.5201L48.7174 25.0015C48.7035 24.9735 48.6895 24.9036 48.7314 24.8757C48.8013 24.8477 48.8292 24.8757 48.8432 24.9036L52.8401 32.2266C52.882 32.3524 52.9659 32.4083 53.0218 32.4223C53.1615 32.4782 53.3013 32.4083 53.3292 32.3943C53.4271 32.3384 53.4969 32.2546 53.5249 32.1707C53.5668 32.031 53.483 31.9052 53.483 31.8912L49.5839 24.5123C49.5699 24.4844 49.5699 24.4425 49.6258 24.4145C49.6678 24.3866 49.7097 24.4564 49.7376 24.4844L54.014 31.5977C54.0839 31.6816 54.2656 31.8213 54.4892 31.7235H54.5032C54.601 31.6676 54.7687 31.4719 54.6289 31.1785L50.7578 23.9394C50.6879 23.8136 50.7438 23.7717 50.7578 23.7577C50.7997 23.7297 50.8696 23.8276 50.8696 23.8276L55.3976 30.8151C55.719 31.3322 55.8588 31.9331 55.9147 32.3384C55.9706 32.7297 55.9985 33.149 55.8727 33.5682C55.8308 33.68 55.7889 33.8058 55.7469 33.9176C55.6491 34.1831 55.5373 34.4486 55.5233 34.7421C55.4954 35.2173 55.6351 35.7204 55.9007 36.2514L55.9426 36.3353C56.1383 36.7406 57.0466 38.5294 59.66 42.9315C59.6879 42.9176 59.7299 42.9176 59.7578 42.9036C56.7112 37.7608 55.9985 36.1955 55.9985 36.1955C55.7609 35.7483 55.6072 35.2452 55.6351 34.7282C55.6491 34.3229 55.8587 33.9595 55.9706 33.5822C56.0963 33.1629 56.0824 32.7437 56.0125 32.3105C55.9426 31.7794 55.7749 31.2064 55.4814 30.7452L50.9535 23.7577C50.9535 23.7577 50.8417 23.576 50.7159 23.6459C50.7159 23.6459 50.5482 23.7297 50.674 23.9533L54.5451 31.1924C54.6848 31.4719 54.4612 31.6117 54.4612 31.6117C54.2376 31.6955 54.0979 31.5139 54.0979 31.5139L49.8075 24.4005C49.7097 24.2468 49.5979 24.2887 49.5699 24.3027H49.556C49.4162 24.3866 49.4861 24.5263 49.4861 24.5263L53.3851 31.9192C53.3851 31.9192 53.5249 32.1428 53.2733 32.2965C53.2454 32.3105 53.0078 32.4362 52.91 32.1707L48.9131 24.8338C48.9131 24.8338 48.8292 24.694 48.6755 24.7639C48.6755 24.7639 48.6755 24.7639 48.6615 24.7639C48.6336 24.7779 48.5497 24.8477 48.6056 25.0154L52.1553 32.5201C52.1553 32.5201 52.2392 32.7437 52.0296 32.8834C52.0296 32.8834 51.792 32.9952 51.6382 32.7297L47.7532 25.5046C47.6414 25.281 47.4737 25.3648 47.4737 25.3648C47.3339 25.4347 47.4317 25.6303 47.4317 25.6303L50.7438 33.2608C50.9535 33.7499 51.3308 34.1831 51.7221 34.5325C52.0715 34.8539 52.4488 35.1195 52.91 35.2592C53.8883 35.6086 54.4752 35.944 54.9643 36.8524Z" fill="#C8C8C8"/>
<path d="M57.2135 40.2343C57.6607 41.0867 58.1218 41.9951 58.583 42.9175C58.625 43.0153 58.6809 43.1131 58.7228 43.211C58.7507 43.197 58.7787 43.197 58.8066 43.183C58.7507 43.0852 58.7088 42.9874 58.6529 42.8756C58.1917 41.9532 57.7305 41.0448 57.2833 40.2063C56.8361 39.3538 56.4029 38.5712 56.0395 37.9004C55.6762 37.2296 55.3548 36.6706 55.1312 36.2793L55.1172 36.2933C55.3268 36.6846 55.6343 37.2436 55.9976 37.9284C56.347 38.5852 56.7663 39.3818 57.2135 40.2343Z" fill="#C8C8C8"/>
<path d="M103.472 26.4127C101.194 24.0649 98.4552 22.1643 95.4365 20.8786C92.4179 19.5928 89.1337 18.8941 85.8356 18.8801C82.5375 18.8661 79.2393 19.481 76.1787 20.7388C73.1182 21.9966 70.3232 23.8692 67.9753 26.1891C65.6275 28.509 63.7409 31.304 62.4971 34.3785C61.421 36.9639 60.82 39.731 60.6523 42.526C61.0995 42.3444 61.5887 42.2465 62.1477 42.2186C62.3433 39.717 62.9303 37.2574 63.8946 34.9515C65.0964 32.0866 66.8573 29.4453 69.0514 27.2372C73.4396 22.8071 79.5887 20.2078 85.8496 20.1938C88.966 20.1798 92.1104 20.7388 95.0173 21.9127C97.9241 23.0866 100.621 24.8195 102.885 27.0136C105.149 29.2077 107.008 31.8351 108.28 34.7559C109.482 37.481 110.166 40.4437 110.334 43.4484C110.348 43.4624 110.362 43.4624 110.376 43.4763C110.418 37.2295 107.902 30.9546 103.472 26.4127Z" fill="#C8C8C8"/>
<path d="M86.4775 21.8574C83.8362 22.1229 81.2927 22.7798 78.9589 23.8558C76.625 24.9459 74.5008 26.4273 72.6701 28.2301C72.2368 28.6912 71.7757 29.1524 71.3424 29.6276C70.9371 30.1307 70.5319 30.6198 70.1406 31.1229C69.7772 31.654 69.3859 32.1711 69.0365 32.7021C68.7151 33.2611 68.3657 33.8061 68.0443 34.3652C66.8005 36.6291 65.8642 39.0888 65.1934 41.6462C65.3471 39.0049 66.0458 36.3636 67.1639 33.9179C67.4434 33.303 67.7788 32.7161 68.0862 32.1152C68.4356 31.5422 68.8129 30.9692 69.1623 30.3962C69.5536 29.8512 69.9868 29.3201 70.4061 28.7891C70.8533 28.286 71.3284 27.7968 71.7896 27.2937C72.2927 26.8326 72.8098 26.3993 73.3129 25.9521C73.8579 25.5468 74.403 25.1416 74.962 24.7503C75.5489 24.4149 76.1359 24.0655 76.7229 23.7301C77.3378 23.4506 77.9527 23.1571 78.5815 22.9055C81.0971 21.9832 83.8362 21.6058 86.4775 21.8574Z" fill="#C8C8C8"/>
<path d="M85.4588 22.0527C83.8656 22.4301 82.3144 22.9471 80.847 23.6319C79.3796 24.3167 77.9961 25.1552 76.7244 26.1614C74.1669 28.1459 72.0846 30.6894 70.4355 33.5124C71.7213 30.4937 73.7896 27.7825 76.4169 25.7562C77.7306 24.7499 79.17 23.8975 80.6933 23.2686C82.2166 22.6397 83.8237 22.2344 85.4588 22.0527Z" fill="#C8C8C8"/>
<path d="M88.4358 18.5589C88.0165 18.9921 87.4436 19.2716 86.8147 19.3415C86.1858 19.4113 85.487 19.2576 84.9141 18.8384C84.3411 18.4191 83.9079 17.7203 83.852 16.9377C83.7821 16.1691 84.0756 15.3306 84.6485 14.7716C85.2075 14.1986 86.0461 13.9051 86.8147 13.975C87.5973 14.0309 88.296 14.4641 88.7153 15.0371C89.1346 15.6101 89.2883 16.3088 89.2184 16.9377C89.1485 17.5666 88.869 18.1396 88.4358 18.5589ZM88.4358 18.5589C88.869 18.1396 89.0787 17.5107 89.0088 16.9377C88.9389 16.3508 88.6035 15.8616 88.1703 15.5821C87.737 15.3026 87.2479 15.2328 86.8147 15.3026C86.3815 15.3725 86.0181 15.5682 85.7246 15.8477C85.4451 16.1272 85.2355 16.5045 85.1656 16.9377C85.0957 17.371 85.1656 17.8601 85.4451 18.2933C85.7246 18.7266 86.2137 19.062 86.8007 19.1318C87.3877 19.2017 88.0165 18.9921 88.4358 18.5589Z" fill="#C8C8C8"/>
<path d="M98.4407 0C97.9096 0.712732 97.5183 1.55124 97.4205 2.43168C97.3226 3.31211 97.5462 4.20652 97.9096 5.01708C98.6503 6.6382 99.8382 8.00776 100.663 9.62888C101.068 10.4394 101.347 11.3338 101.32 12.2702C101.278 13.2065 100.914 14.1009 100.383 14.8416C99.363 16.323 98.1891 17.6925 97.0711 19.0761C96.5121 19.7748 95.9671 20.4736 95.5059 21.2143C95.0447 21.955 94.6394 22.7515 94.5416 23.59C94.4857 24.0093 94.5136 24.4286 94.6254 24.8338C94.7372 25.2391 94.9329 25.6164 95.1705 25.9658C95.6736 26.6646 96.3304 27.2515 97.0431 27.7686C97.7698 28.2857 98.4965 28.8587 99.0975 29.5714C99.6984 30.2702 100.174 31.1227 100.313 32.073C100.467 33.0233 100.257 33.9876 99.8242 34.8261C99.391 35.6646 98.804 36.3773 98.0773 36.9922L97.8397 36.559C99.4049 36.0279 100.942 35.3152 102.312 34.3928C102.997 33.9317 103.625 33.3866 104.101 32.7438C104.576 32.1009 104.869 31.3183 104.729 30.5497C104.66 30.1723 104.534 29.795 104.31 29.4596C104.212 29.2919 104.101 29.1102 103.989 28.9146C103.877 28.7189 103.779 28.5373 103.695 28.3136C103.611 28.104 103.542 27.8804 103.528 27.6289C103.5 27.3913 103.584 27.1258 103.695 26.9022C103.975 26.4689 104.394 26.2593 104.785 26.0636C105.582 25.7143 106.379 25.4767 107.161 25.1832C107.944 24.8897 108.698 24.5543 109.411 24.1211C110.837 23.2826 112.025 22.0528 112.807 20.5854C113.59 19.132 114.163 17.5109 114.288 15.8618C114.358 15.0373 114.288 14.1987 114.121 13.3742C113.967 12.5497 113.66 11.7391 113.729 10.8727C113.771 10.4394 113.925 10.0202 114.177 9.6708C114.414 9.32142 114.722 9.01397 115.043 8.74844C115.686 8.20341 116.413 7.75621 117.139 7.33695C116.427 7.77018 115.714 8.23136 115.085 8.79037C114.778 9.06987 114.484 9.37732 114.261 9.7267C114.037 10.0761 113.883 10.4674 113.869 10.8866C113.827 11.7112 114.135 12.5217 114.316 13.3463C114.512 14.1708 114.61 15.0233 114.554 15.8758C114.512 16.7283 114.33 17.5668 114.079 18.3773C113.827 19.1879 113.506 19.9705 113.101 20.7391C112.304 22.2484 111.088 23.5621 109.621 24.4425C108.894 24.8897 108.111 25.2531 107.315 25.5605C106.532 25.882 105.708 26.1195 104.967 26.455C104.604 26.6227 104.254 26.8323 104.073 27.1118C103.905 27.3913 103.947 27.7686 104.101 28.132C104.17 28.3136 104.268 28.4953 104.366 28.663C104.478 28.8307 104.576 28.9984 104.702 29.2081C104.939 29.5854 105.093 30.0186 105.177 30.4658C105.344 31.3742 104.995 32.3105 104.478 33.0093C103.947 33.722 103.276 34.281 102.577 34.7841C101.152 35.7624 99.6006 36.4751 97.9934 37.0341L96.7077 37.4813L97.7559 36.5869C98.3987 36.0419 98.9717 35.3571 99.363 34.6025C99.7543 33.8478 99.95 32.9813 99.8102 32.1568C99.6844 31.3183 99.2652 30.5497 98.7062 29.8928C98.1472 29.236 97.4624 28.691 96.7357 28.1599C96.009 27.6289 95.3102 27 94.7652 26.2453C94.5136 25.854 94.29 25.4348 94.1643 24.9736C94.0385 24.5124 94.0105 24.0233 94.0804 23.5621C94.1922 22.6118 94.6394 21.7733 95.1146 21.0046C95.6037 20.236 96.1767 19.5373 96.7357 18.8385C97.8816 17.455 99.0695 16.1273 100.09 14.6739C100.607 13.9612 100.956 13.1506 101.012 12.2842C101.054 11.4177 100.802 10.5652 100.411 9.76863C99.6565 8.16149 98.4826 6.76397 97.7698 5.10093C97.4065 4.27639 97.2108 3.35404 97.3226 2.45963C97.4764 1.53727 97.8956 0.698757 98.4407 0Z" fill="#C8C8C8"/>
<path d="M106.826 5.66016C106.91 5.79991 107.008 5.93966 107.106 6.09339L107.399 6.55456C107.595 6.84804 107.818 7.11357 108.084 7.33717C108.335 7.57475 108.615 7.7704 108.922 7.9381L109.859 8.41326L110.18 8.58096L109.859 8.76264L108.95 9.29369C108.671 9.47537 108.405 9.68499 108.168 9.92257C107.93 10.1601 107.734 10.4257 107.567 10.7192L107.064 11.6415L106.84 12.0608L106.616 11.6415L106.113 10.7192C105.946 10.4257 105.736 10.1601 105.512 9.92257C105.275 9.68499 105.023 9.47537 104.73 9.29369L103.821 8.76264L103.5 8.58096L103.821 8.41326L104.758 7.9381C105.051 7.7704 105.331 7.57475 105.596 7.33717C105.848 7.11357 106.085 6.84804 106.281 6.55456L106.575 6.09339C106.644 5.95363 106.742 5.79991 106.826 5.66016ZM106.826 5.66016C106.644 6.00953 106.533 6.31699 106.379 6.62444C106.211 6.94587 106.002 7.23935 105.764 7.51885C105.512 7.78438 105.233 8.02195 104.925 8.21761C104.618 8.41326 104.311 8.58096 104.003 8.76264V8.41326C104.325 8.58096 104.632 8.73469 104.953 8.90239C105.275 9.08406 105.582 9.30767 105.848 9.57319C106.113 9.83872 106.351 10.1322 106.547 10.4536L107.064 11.39H106.616L107.134 10.4536C107.329 10.1322 107.553 9.83872 107.832 9.57319C108.098 9.30767 108.405 9.08406 108.727 8.90239C109.048 8.72071 109.356 8.56698 109.677 8.41326V8.76264C109.37 8.58096 109.062 8.41326 108.755 8.21761C108.447 8.02195 108.168 7.78438 107.916 7.51885C107.679 7.25332 107.469 6.94587 107.301 6.62444C107.12 6.31699 106.994 6.00953 106.826 5.66016Z" fill="#C8C8C8"/>
<path d="M108.434 15.792C108.518 15.9178 108.658 16.0855 108.756 16.2392C108.867 16.3789 108.993 16.5187 109.119 16.6305C109.259 16.7423 109.398 16.8401 109.552 16.91L110.055 17.1476L110.377 17.3013L110.055 17.497L109.594 17.7765C109.454 17.8603 109.329 17.9721 109.217 18.0979C109.105 18.2237 109.007 18.3494 108.923 18.4892L108.672 18.9643L108.448 19.3836L108.225 18.9643L107.973 18.4892C107.889 18.3494 107.791 18.2097 107.679 18.0979C107.568 17.9721 107.442 17.8743 107.302 17.7765L106.841 17.497L106.52 17.3013L106.841 17.1476L107.344 16.91C107.498 16.8401 107.638 16.7423 107.777 16.6305C107.917 16.5187 108.029 16.3929 108.141 16.2392C108.211 16.0855 108.35 15.9178 108.434 15.792ZM108.434 15.792C108.336 15.9876 108.308 16.1414 108.225 16.3091C108.141 16.4907 108.043 16.6445 107.917 16.7982C107.791 16.9519 107.638 17.0777 107.47 17.1895C107.302 17.3013 107.148 17.3852 106.995 17.483V17.1336C107.162 17.2175 107.316 17.2873 107.498 17.3852C107.679 17.483 107.847 17.6088 107.987 17.7485C108.141 17.8883 108.266 18.056 108.364 18.2237L108.644 18.7128H108.197L108.476 18.2237C108.588 18.042 108.714 17.8883 108.853 17.7485C109.007 17.6088 109.175 17.483 109.343 17.3852C109.524 17.2873 109.678 17.2175 109.846 17.1336V17.483C109.692 17.3852 109.538 17.2873 109.37 17.1895C109.203 17.0777 109.063 16.938 108.923 16.7982C108.797 16.6445 108.686 16.4768 108.616 16.3091C108.56 16.1414 108.532 15.9876 108.434 15.792Z" fill="#C8C8C8"/>
<path d="M116.147 45.4334C114.833 44.9443 113.45 44.4971 112.024 44.0638C111.787 43.994 111.549 43.9241 111.311 43.8682C109.425 43.3232 107.426 42.848 105.358 42.4288C104.282 42.2191 103.178 42.0095 102.06 41.8278C101.249 41.6881 100.425 41.5623 99.6003 41.4505C94.8627 40.7937 89.8037 40.4303 84.549 40.4303C79.2804 40.4303 74.2214 40.7937 69.4978 41.4505C68.6732 41.5763 67.8487 41.702 67.0381 41.8278C65.9062 42.0095 64.8161 42.2191 63.74 42.4288C61.8534 42.8061 60.0226 43.2393 58.2897 43.7284C58.0521 43.7843 57.8145 43.8542 57.577 43.9241C55.9558 44.3853 54.4186 44.8884 52.9512 45.4334C54.3068 44.6788 55.872 43.966 57.6049 43.3232C57.8145 43.2393 58.0381 43.1555 58.2617 43.0716C59.9947 42.4567 61.8953 41.8977 63.9217 41.4225C65.0117 41.157 66.1577 40.9194 67.3316 40.6958C68.1701 40.5421 69.0226 40.4024 69.8891 40.2626C74.4031 39.5778 79.3503 39.1865 84.563 39.1865C89.7618 39.1865 94.723 39.5778 99.2369 40.2626C100.103 40.4024 100.956 40.5421 101.794 40.6958C102.968 40.9194 104.1 41.157 105.204 41.4225C107.426 41.9536 109.509 42.5825 111.367 43.2673C111.591 43.3511 111.815 43.435 112.024 43.5188C113.52 44.1058 114.917 44.7486 116.147 45.4334Z" fill="#C8C8C8"/>
<path d="M40.0532 36.2795C40.5982 35.9441 41.2271 35.6087 41.842 35.3571C44.637 34.1832 47.7255 34.6025 49.2209 36.9363C49.7659 37.7748 49.9336 39.0186 48.2985 39.5217C48.3405 36.8524 46.0905 34.1413 43.0019 35.5108C42.3311 35.8043 41.7023 36.2236 41.1712 36.6847C45.9647 38.5993 48.8855 42.4425 45.0982 45.7406C44.0082 46.663 41.5905 47.4875 38.7116 47.7391C45.0144 49.4441 45.769 55.076 42.5128 58.2903C38.3762 62.3431 31.3327 63.2934 25.0299 59.8695C22.4026 62.1614 19.3141 63.9223 16.0998 65.0403C15.2194 65.3338 14.311 65.5853 13.3886 65.795C17.2737 72.0977 25.4911 72.3074 29.5718 67.7515C30.1169 67.1226 30.2846 67.458 29.8234 67.9611C25.519 72.9642 16.6029 72.8384 11.7535 66.1304C7.3793 66.8711 3.13085 66.2422 0.531475 63.0279C-0.139332 62.2313 -0.43281 60.7779 1.16036 60.2748C2.41812 65.1521 6.91812 66.2422 11.3762 65.5714C10.4538 64.1459 9.71315 62.4829 9.21004 60.5683C3.3265 60.2329 1.74731 54.6009 3.03303 49.6397C5.61843 40.2065 14.5905 34.9938 24.4849 34.2391C29.6976 33.8618 35.2457 34.5745 40.0532 36.2795ZM13.0532 65.236C13.9756 65.0263 14.884 64.7748 15.7225 64.4394C22.8638 61.6863 25.8964 56.222 30.0749 48.8711L31.9057 45.7406C33.8203 42.5264 36.0842 38.9347 39.3265 36.7267C34.7007 35.1475 29.474 34.5605 24.5548 35.0636C15.5408 35.986 7.4911 42.6941 5.93986 50.8835C5.26905 54.4332 5.6883 58.472 8.90259 59.5621C8.73489 58.7655 8.65103 57.9409 8.60911 57.0605C8.44141 53.5108 10.1045 47.5434 14.1572 43.4627C21.9554 35.6226 29.4321 38.795 25.547 48.3819C23.7162 52.9658 19.7054 57.9409 14.3669 59.7298C13.3187 60.0652 12.3684 60.3167 11.488 60.4425C11.7675 62.3152 12.3405 63.9083 13.0532 65.236ZM11.3902 59.7717C11.8933 59.7298 12.4802 59.6459 13.0532 59.4782C19.4818 57.899 23.1153 52.4208 24.8622 48.34C28.0765 40.8773 23.8979 36.6149 17.1898 43.7981C13.0113 48.2142 10.8032 54.8524 11.3902 59.7717ZM34.0019 47.8788L32.1712 51.135C30.4662 54.1816 28.2023 57.0605 25.533 59.4363C31.0811 62.3152 37.6774 61.5186 40.4724 56.4316C42.4709 52.7282 41.0873 47.795 34.0019 47.8788ZM40.5982 37.2018C38.8932 38.8229 37.6774 41.0869 36.4616 43.295L34.4631 47.0543C38.8094 47.4736 41.7582 46.09 43.0159 44.7205C45.3498 42.0372 44.5532 38.8229 40.5982 37.2018Z" fill="#C8C8C8"/>
<path d="M57.5368 49.6399C58.7946 47.5996 59.9964 47.348 61.9949 47.348L56.1533 57.8992C54.7278 60.4427 56.7402 59.3527 58.4452 58.1508C59.9405 57.0607 61.8691 54.8527 63.1548 52.6446C63.3645 52.3092 63.6579 52.5188 63.4902 52.8123C60.7791 57.3542 57.1036 60.4427 54.7278 60.4427C53.7635 60.4427 52.8971 59.5623 53.3862 57.5638C51.8489 59.3946 50.2138 60.4427 48.6765 60.4427C45.7557 60.3169 45.9654 56.8511 47.6703 53.7626C49.2076 50.9676 52.8412 46.5095 56.1812 47.0825C57.2853 47.2921 57.7045 48.2145 57.5368 49.6399ZM50.9405 53.7207C49.0679 57.1027 48.4809 59.5623 49.9343 59.5623C51.0244 59.5623 53.3582 57.1027 55.2309 53.7207C57.1036 50.3387 57.5228 48.0468 56.3629 48.0468C55.2868 48.0887 52.8132 50.3387 50.9405 53.7207Z" fill="#C8C8C8"/>
<path d="M77.3111 52.8118C74.5999 57.3538 70.9244 60.4423 68.5487 60.4423C67.2909 60.4423 66.1729 58.9469 68.0875 55.4392L71.3018 49.6814C72.6015 47.3476 70.9244 47.8507 68.8841 49.4718C67.8779 50.2684 66.7599 51.4283 65.8794 52.7699L61.7428 60.1907C60.5269 60.1907 59.0316 59.3941 60.3592 56.9345L65.6558 47.3336C66.8297 47.3336 68.2831 48.1302 67.1931 50.2963C68.8561 48.6333 71.1201 47.082 72.6574 47.082C73.8732 47.082 75.0751 48.5774 73.1605 52.0851L69.9462 57.8848C68.5207 60.4283 70.5751 59.3382 72.2381 58.1364C73.6915 57.0463 75.7039 54.8382 76.9477 52.6302C77.1853 52.3087 77.4788 52.5184 77.3111 52.8118Z" fill="#C8C8C8"/>
<path d="M71.2599 75.1305L80.7769 58.0669C79.1978 59.8138 77.8981 60.5265 76.5565 60.4427C73.6357 60.1911 73.8453 56.8511 75.5502 53.7626C77.0875 50.9676 80.721 46.5095 84.0611 47.0825C85.1512 47.2921 85.5564 48.2145 85.4027 49.626C86.6605 47.5856 87.8623 47.334 89.8608 47.334L73.8034 76.584C76.808 73.6212 81.2661 69.3309 85.0673 65.8231C85.3608 65.5296 85.6123 65.8231 85.3608 66.0747C80.3996 70.9939 76.4307 74.5436 72.7552 78.7221C71.6372 78.0933 69.8903 77.5902 71.2599 75.1305ZM78.8065 53.7207C76.9338 57.1026 76.3468 59.5623 77.8002 59.5623C78.8903 59.5623 81.2241 57.1026 83.0968 53.7207C84.9695 50.3387 85.3887 48.0468 84.2288 48.0468C83.1527 48.0887 80.6931 50.3387 78.8065 53.7207Z" fill="#C8C8C8"/>
<path d="M89.035 60.4424C87.8192 60.4424 86.6173 58.947 88.5739 55.4393L93.0319 47.3477C94.2478 47.3477 95.7431 48.1442 94.3736 50.5619L90.3208 57.857C89.0211 60.2327 90.9496 59.4781 92.9481 57.815C93.9543 57.0185 95.1142 55.9424 96.0366 54.6008L98.5382 50.0588C99.8798 47.6411 101.082 47.3477 103.164 47.3477L97.3223 57.8989C95.8969 60.4424 97.9512 59.3523 99.6142 58.1505C101.068 57.0604 103.08 54.8523 104.324 52.6442C104.534 52.3088 104.827 52.5185 104.659 52.8119C101.948 57.3539 98.2726 60.4424 95.8969 60.4424C94.8487 60.4424 93.9403 59.3104 94.8487 56.8088C93.1298 58.6116 90.5304 60.4424 89.035 60.4424Z" fill="#C8C8C8"/>
<path d="M111.731 47.0967C113.981 47.0967 115.658 48.4802 114.065 50.8979C112.639 53.1479 108.559 54.4476 105.051 55.0346C104.296 56.8234 104.254 58.5004 105.386 59.2131C107.175 60.3032 109.928 59.3808 112.108 57.7877C113.813 56.4041 115.323 54.7411 116.566 52.6588C116.776 52.3234 117.07 52.533 116.902 52.8265C115.686 54.8669 114.275 56.7116 112.318 58.2069C110.068 59.9538 107.566 61.002 104.604 60.1634C102.521 59.6184 100.97 57.1588 102.605 53.5672C104.184 50.0874 107.734 47.0967 111.731 47.0967ZM106.393 52.561C105.973 53.2318 105.596 53.9026 105.261 54.5175C107.804 53.9725 109.886 52.6448 111.27 50.3808C112.234 48.7597 112.276 47.5858 111.396 47.5858C110.278 47.5858 108.139 49.724 106.393 52.561Z" fill="#C8C8C8"/>
<path d="M119.418 47.334C123.96 39.3262 130.179 30.6896 138.242 27.8526C143.916 25.8961 149.003 25.6026 152.469 29.893C153.14 30.6896 153.433 32.143 151.84 32.6461C150.135 26.0918 143.916 26.2595 138.536 28.3418C131.814 30.9272 126.685 40.1088 122.674 47.32H125.888C126.392 47.32 126.182 47.9489 125.595 47.9489H122.297L117.923 55.9986C116.874 57.8293 116.539 59.0871 117.252 59.3386C117.923 59.5902 118.789 59.2967 119.711 58.8355C122.171 57.6197 124.463 55.1181 125.972 52.6166C126.182 52.2812 126.433 52.4908 126.308 52.7843C124.687 55.4535 122.716 57.7455 120.005 59.3386C115.784 61.7983 112.374 60.0094 115.868 53.7486L119.083 47.9489H117.084C116.581 47.9489 116.665 47.32 117.294 47.32H119.418V47.334Z" fill="#C8C8C8"/>
</g>
<defs>
<clipPath id="clip0_112_299">
<rect width="153" height="78.722" fill="white"/>
</clipPath>
</defs>
</svg>
