<svg width="119" height="48" viewBox="0 0 119 48" fill="none" xmlns="http://www.w3.org/2000/svg">
<path d="M15.6046 8.17023V24.9379C15.6046 29.978 12.6485 33.031 7.80232 33.031C2.95616 33.031 0 29.978 0 24.9379V8.17023C0 3.13023 2.95616 0.0771484 7.80232 0.0771484C12.6485 0.0771484 15.6046 3.13023 15.6046 8.17023ZM4.7977 8.2187V24.8895C4.7977 27.2641 5.86385 28.5726 7.75386 28.5726C9.69232 28.5726 10.71 27.3126 10.71 24.8895V8.2187C10.71 5.84408 9.64386 4.53561 7.75386 4.53561C5.86385 4.53561 4.7977 5.79562 4.7977 8.2187Z" fill="#C8C8C8"/>
<path d="M32.3218 32.5894L28.4934 19.0201H26.2641V32.5409H21.418V0.507812H28.3964C33.6303 0.507812 36.4411 3.36704 36.4411 8.60089V10.8786C36.4411 14.2709 35.2295 16.6455 33.0003 17.9055L37.4587 32.4925H32.3218V32.5894ZM26.2641 5.01473V14.5132H28.251C30.5772 14.5132 31.6434 13.3017 31.6434 10.5878V8.94013C31.6434 6.22628 30.5772 5.01473 28.251 5.01473H26.2641Z" fill="#C8C8C8"/>
<path d="M57.6375 32.5536H52.7428L51.6767 25.2844H46.3459L45.2798 32.5536H40.4336L45.9582 0.520508H52.1128L57.6375 32.5536ZM48.9144 7.40205L46.9274 20.9228H50.9982L49.0113 7.40205H48.9144Z" fill="#C8C8C8"/>
<path d="M78.1094 32.5536H73.3602L67.0117 11.3274H66.9148V32.5536H62.3594V0.520508H67.7386L73.4571 19.6144H73.554V0.520508H78.1094V32.5536Z" fill="#C8C8C8"/>
<path d="M99.1388 7.75386V9.93463L94.4865 10.1769V8.23847C94.4865 5.67001 93.5173 4.55539 91.6273 4.55539C89.7373 4.55539 88.768 5.71847 88.768 7.80232V25.2969C88.768 27.3808 89.6888 28.5439 91.5788 28.5439C93.4688 28.5439 94.3896 27.3808 94.3896 24.8608V19.3362H91.6273V14.8293H99.1388V25.2969C99.1388 30.1431 96.328 33.0024 91.4819 33.0024C86.6842 33.0024 83.9219 30.1431 83.9219 25.2969V7.70539C83.9219 2.85923 86.6842 0 91.4819 0C96.328 0.0969232 99.1388 2.9077 99.1388 7.75386Z" fill="#C8C8C8"/>
<path d="M118.499 4.97897H109.727V14.0413H116.802V18.5482H109.727V28.0467H118.499V32.5536H104.881V0.520508H118.499V4.97897Z" fill="#C8C8C8"/>
<path d="M16.6477 41.0145V41.7898L15.4361 41.8383V41.1598C15.4361 40.4814 15.1938 40.1906 14.7092 40.1906C14.2246 40.1906 13.9823 40.4814 13.9823 41.0629V45.6668C13.9823 46.1998 14.2246 46.5391 14.7092 46.5391C15.1938 46.5391 15.4361 46.2483 15.4361 45.5699V44.6491L16.6477 44.6975V45.7152C16.6477 46.9752 15.9208 47.7506 14.6608 47.7506C13.4008 47.7506 12.6738 47.0237 12.6738 45.7152V41.0629C12.6738 39.8029 13.4008 39.0275 14.6608 39.0275C15.9208 38.9791 16.6477 39.7545 16.6477 41.0145Z" fill="#4D4D4D"/>
<path d="M24.2468 47.5739H22.9383L22.6476 45.6355H21.2422L20.9514 47.5739H19.6914L21.1453 39.1416H22.7929L24.2468 47.5739ZM21.9691 40.9347L21.436 44.5208H22.5022L21.9691 40.9347Z" fill="#4D4D4D"/>
<path d="M31.1334 40.2565H28.8557V42.6311H30.6488V43.7942H28.8557V47.4772H27.5957V39.0449H31.1334V40.2565Z" fill="#4D4D4D"/>
<path d="M37.928 40.2565H35.6018V42.6311H37.4918V43.7942H35.6018V46.3142H37.928V47.4772H34.3418V39.0449H37.928V40.2565Z" fill="#4D4D4D"/>
<path d="M49.6628 40.8093V40.8578C49.6628 41.6332 49.372 42.1662 48.3544 43.1839L49.2267 44.5409V43.2809L50.3413 43.3293V44.7347C50.3413 45.2193 50.2928 45.6555 50.1474 45.9947L51.1651 47.5455H49.6628L49.4205 47.1578C49.0813 47.497 48.5967 47.6424 47.9667 47.6424C46.7067 47.6424 45.8828 46.9155 45.8828 45.5586V45.2678C45.8828 44.4924 46.1251 43.8624 46.8036 43.087C46.222 42.1178 46.0282 41.5847 46.0282 40.9062V40.8578C46.0282 39.6462 46.6582 38.9678 47.8213 38.9678C48.9844 38.9678 49.6628 39.6947 49.6628 40.8093ZM47.5305 44.1532C47.2882 44.5893 47.1913 44.9285 47.1913 45.2678V45.4616C47.1913 46.1401 47.5305 46.4793 48.0636 46.4793C48.3544 46.4793 48.5967 46.3824 48.7905 46.1885L47.5305 44.1532ZM47.2882 40.9062V40.9547C47.2882 41.2939 47.3851 41.6332 47.7244 42.2147C48.2574 41.6332 48.4513 41.2939 48.4513 40.9062V40.8578C48.4513 40.4216 48.2574 40.1793 47.8697 40.1793C47.5305 40.1793 47.2882 40.4216 47.2882 40.9062Z" fill="#4D4D4D"/>
<path d="M61.7302 42.4855L63.5233 47.5739H62.1664L60.9064 43.8908L60.3733 44.957V47.5739H59.1133V39.1416H60.3733V42.6793L62.1664 39.1416H63.5233L61.7302 42.4855Z" fill="#4D4D4D"/>
<path d="M67.9612 47.5739H66.7012V39.1416H67.9612V47.5739Z" fill="#4D4D4D"/>
<path d="M75.2352 40.3531H73.8783V47.5739H72.6183V40.3531H71.2129V39.1416H75.2352V40.3531Z" fill="#4D4D4D"/>
<path d="M82.2473 41.0145V41.7898L81.0357 41.8383V41.1598C81.0357 40.4814 80.7934 40.1906 80.3088 40.1906C79.8242 40.1906 79.5819 40.4814 79.5819 41.0629V45.6668C79.5819 46.1998 79.8242 46.5391 80.3088 46.5391C80.7934 46.5391 81.0357 46.2483 81.0357 45.5699V44.6491L82.2473 44.6975V45.7152C82.2473 46.9752 81.5204 47.7506 80.2604 47.7506C79.0004 47.7506 78.2734 47.0237 78.2734 45.7152V41.0629C78.2734 39.8029 79.0004 39.0275 80.2604 39.0275C81.4719 38.9791 82.2473 39.7545 82.2473 41.0145Z" fill="#4D4D4D"/>
<path d="M89.8091 47.5739H88.5491V43.8908H87.0467V47.5739H85.7383V39.1416H86.9983V42.7278H88.5006V39.1416H89.7606V47.5739H89.8091Z" fill="#4D4D4D"/>
<path d="M97.2268 40.2565H94.9006V42.6311H96.7906V43.7942H94.9006V46.3142H97.2268V47.4772H93.6406V39.0449H97.2268V40.2565Z" fill="#4D4D4D"/>
<path d="M104.888 47.5739H103.628L101.932 41.9524V47.5739H100.721V39.1416H102.126L103.628 44.1816V39.1416H104.84V47.5739H104.888Z" fill="#4D4D4D"/>
<path d="M9.86397 46.4251V40.2705H3.75781L5.55089 43.3236L3.75781 46.4251H9.86397Z" fill="#9C8F8F"/>
<path d="M108.525 40.2705V46.4251H114.632L112.838 43.3236L114.632 40.2705H108.525Z" fill="#9C8F8F"/>
</svg>
