<svg width="125" height="73" viewBox="0 0 125 73" fill="none" xmlns="http://www.w3.org/2000/svg">
<g clip-path="url(#clip0_114_403)">
<path d="M25.2899 58.5566C25.4164 58.5106 25.4739 58.5566 25.4739 58.7061C25.4739 58.8555 25.4624 58.9475 25.4394 58.9934C25.3474 59.1429 25.175 59.3383 24.9336 59.5797C24.6922 59.8211 24.3933 60.0625 24.0369 60.2924C23.6806 60.5223 23.2783 60.7407 22.8184 60.9361C22.3586 61.1316 21.8643 61.2695 21.3585 61.3385C20.3355 61.4879 19.3698 61.189 18.4617 60.4418C17.5536 59.6946 16.7029 58.7635 15.9098 57.637C15.1166 56.5105 14.3924 55.3264 13.7371 54.0964C13.0819 52.8664 12.5071 51.8434 12.0243 51.0157C11.6795 51.9353 11.3576 52.8434 11.0587 53.7171C10.7598 54.5907 10.484 55.4299 10.2541 56.2116C10.0241 57.0047 9.84022 57.729 9.70228 58.3957C9.56433 59.0624 9.50686 59.6602 9.50686 60.166C9.50686 60.2579 9.43788 60.3499 9.31144 60.4188C9.17349 60.4878 9.02405 60.5338 8.85162 60.5338C8.61022 60.5338 8.32284 60.4648 7.98947 60.3154C7.65611 60.166 7.34574 59.9705 7.03536 59.7291C6.73648 59.4877 6.47209 59.2233 6.26518 58.9475C6.05826 58.6716 5.9548 58.3842 5.9548 58.0853C5.9548 57.6485 6.15022 56.8898 6.55256 55.8207C6.95489 54.7517 7.46069 53.5217 8.06994 52.1307C8.67919 50.7398 9.33443 49.2799 10.0356 47.728C10.7369 46.1877 11.4036 44.6933 12.0013 43.2564C12.6106 41.8195 13.1164 40.532 13.5187 39.3825C13.9211 38.2444 14.1165 37.3823 14.1165 36.8305C14.1165 36.6351 14.1625 36.5201 14.2659 36.4626C14.3579 36.4167 14.4498 36.3937 14.5188 36.3937C14.6912 36.3937 14.8982 36.4626 15.1396 36.5891C15.381 36.727 15.6224 36.888 15.8523 37.0834C16.0822 37.2788 16.2776 37.4742 16.4385 37.6811C16.5995 37.8881 16.6799 38.0605 16.6799 38.2099C16.6799 38.5318 16.5765 39.0146 16.3696 39.6698C16.1626 40.3251 15.8983 41.0953 15.5649 41.9689C15.2315 42.8425 14.8637 43.8081 14.4384 44.8542C14.013 45.9003 13.5762 46.9808 13.1394 48.1074C13.4038 48.3258 13.6452 48.4407 13.8636 48.4407C14.4498 48.4407 15.22 48.0499 16.1856 47.2682C17.1512 46.4865 18.0939 45.498 19.0365 44.2794C19.9676 43.0609 20.7838 41.7275 21.462 40.2791C22.1402 38.8307 22.4851 37.4282 22.4851 36.0603C22.4851 35.7154 22.4046 35.3936 22.2437 35.0947C22.0827 34.7958 21.8873 34.5314 21.6459 34.313C21.4045 34.0946 21.1401 33.9222 20.8412 33.8072C20.5539 33.6808 20.2665 33.6233 20.0021 33.6233C18.8296 33.6233 17.5996 33.8647 16.3006 34.3475C15.0016 34.8303 13.7141 35.4625 12.4267 36.2442C11.1507 37.0259 9.93218 37.8996 8.75966 38.8767C7.58714 39.8538 6.56405 40.8309 5.67891 41.8195C4.79377 42.808 4.08106 43.7507 3.54078 44.6473C3.0005 45.5439 2.73611 46.3026 2.73611 46.9119C2.73611 47.0843 2.81658 47.1993 2.98901 47.2797C3.16144 47.3487 3.34536 47.3947 3.54078 47.3947C3.85116 47.3947 4.17303 47.3487 4.49489 47.2682C4.80527 47.1878 5.10415 47.0843 5.36854 46.9808C5.63293 46.8659 5.85134 46.7854 6.02377 46.7279C6.1962 46.6705 6.29966 46.6475 6.35714 46.6705C6.42611 46.7624 6.34564 46.9464 6.10424 47.1993C5.86284 47.4522 5.55246 47.7165 5.17312 47.9809C4.79377 48.2453 4.37994 48.4867 3.93162 48.6936C3.48331 48.9006 3.08097 49.004 2.74761 49.004C2.48321 49.004 2.18433 48.8546 1.87396 48.5442C1.55209 48.2453 1.26471 47.866 0.977326 47.4292C0.701438 46.9923 0.471532 46.521 0.287607 46.0037C0.103681 45.498 0.0117188 45.0266 0.0117188 44.6128C0.0117188 44.0036 0.322092 43.2449 0.965831 42.3482C1.59807 41.4516 2.43723 40.4975 3.48331 39.4974C4.52938 38.4973 5.7249 37.5087 7.08134 36.5201C8.4263 35.5315 9.84022 34.6464 11.3001 33.8532C12.76 33.06 14.2084 32.4163 15.6569 31.922C17.1053 31.4277 18.4502 31.1748 19.6917 31.1748C20.324 31.1748 21.0137 31.3127 21.7494 31.6001C22.4966 31.876 23.1748 32.2784 23.807 32.8071C24.4393 33.3359 24.9681 33.9567 25.3934 34.6924C25.8187 35.4166 26.0371 36.2327 26.0371 37.1409C26.0371 38.141 25.8417 39.164 25.4509 40.2101C25.06 41.2562 24.5427 42.2678 23.899 43.2564C23.2553 44.245 22.5196 45.1761 21.6919 46.0612C20.8642 46.9464 20.0251 47.7165 19.1744 48.3833C18.3238 49.0385 17.4961 49.5673 16.6914 49.9581C15.8868 50.349 15.1741 50.5444 14.5418 50.5444C15.0821 51.6364 15.7373 52.717 16.5305 53.7976C17.3237 54.8666 18.1858 55.7977 19.1169 56.5909C20.0481 57.3841 21.0482 57.9818 22.0942 58.3842C23.1288 58.7635 24.1979 58.821 25.2899 58.5566Z" fill="#9F9C9C"/>
<path d="M35.7275 49.039C36.0379 49.039 36.2218 49.1654 36.2563 49.4068C36.2908 49.6482 36.2563 50.0046 36.1643 50.4644C36.0953 50.7862 35.8769 51.3035 35.5091 52.0162C35.1412 52.729 34.6354 53.4532 33.9802 54.1774C33.325 54.9016 32.5203 55.5453 31.5662 56.0971C30.6121 56.6489 29.5315 56.9248 28.313 56.9248C27.5313 56.9248 26.8416 56.7868 26.2324 56.4994C25.6231 56.2235 25.1173 55.8327 24.7035 55.3499C24.2897 54.8671 23.9793 54.3038 23.7494 53.6716C23.531 53.0393 23.416 52.3611 23.416 51.6254C23.416 50.6483 23.6344 49.6252 24.0598 48.5561C24.4851 47.4871 25.0598 46.51 25.7726 45.6363C26.4853 44.7627 27.3014 44.0385 28.1981 43.4637C29.0947 42.8889 30.0258 42.6016 30.9684 42.6016C31.4053 42.6016 31.8306 42.682 32.2444 42.843C32.6582 43.0039 33.0261 43.2338 33.3365 43.5442C33.6468 43.8546 33.8997 44.2224 34.0837 44.6592C34.2676 45.0961 34.3595 45.6018 34.3595 46.1651C34.3366 46.8204 34.1411 47.4756 33.7963 48.1193C33.4399 48.7631 32.9571 49.3263 32.3364 49.7976C31.7156 50.269 30.9684 50.6138 30.0948 50.8207C29.2211 51.0277 28.2326 51.0047 27.1405 50.7633C27.0715 51.2461 27.0485 51.7174 27.083 52.1542C27.1175 52.591 27.2325 52.9819 27.4164 53.3037C27.6003 53.6371 27.8532 53.9015 28.1866 54.0969C28.5199 54.2923 28.9453 54.3843 29.4855 54.3843C30.3592 54.3843 31.1409 54.1774 31.8421 53.7406C32.5318 53.3152 33.1296 52.8209 33.6353 52.2577C34.1296 51.6944 34.532 51.1311 34.8194 50.5563C35.1067 49.9816 35.3137 49.5562 35.4401 49.2574C35.5091 49.1194 35.601 49.039 35.7275 49.039ZM31.4627 44.2109C31.1179 44.2109 30.7615 44.3489 30.3822 44.6362C30.0028 44.9121 29.635 45.2915 29.2901 45.7628C28.9338 46.2341 28.6119 46.7744 28.3015 47.3721C28.0026 47.9699 27.7383 48.5676 27.5198 49.1769C28.0026 49.2459 28.474 49.1769 28.9223 48.9585C29.3706 48.7401 29.7844 48.4527 30.1408 48.0848C30.5086 47.717 30.8305 47.3147 31.1064 46.8663C31.3823 46.418 31.5892 45.9927 31.7271 45.6018C31.8651 45.211 31.911 44.8891 31.8766 44.6132C31.8421 44.3489 31.7041 44.2109 31.4627 44.2109Z" fill="#9F9C9C"/>
<path d="M41.1658 44.5442C41.1658 44.8086 41.0968 44.9466 40.9704 44.9696C40.8325 44.9811 40.706 45.0845 40.5911 45.2799C40.2462 45.8892 40.0163 46.4525 39.9013 46.9813C39.7749 47.51 39.7174 48.0043 39.7174 48.4986C39.7174 49.0619 39.7864 49.5907 39.9128 50.085C40.0508 50.5793 40.2002 51.0851 40.3726 51.5794C40.5451 52.0737 40.6945 52.5795 40.8325 53.0738C40.9704 53.5681 41.0279 54.0969 41.0279 54.6601C41.0279 55.6832 40.844 56.5799 40.4646 57.3615C40.0853 58.1432 39.614 58.7985 39.0622 59.3272C38.4989 59.8675 37.8897 60.2699 37.2229 60.5457C36.5562 60.8216 35.924 60.9711 35.3377 60.9711C34.8319 60.9711 34.3376 60.8791 33.8778 60.6952C33.418 60.5113 33.0042 60.2584 32.6593 59.925C32.3029 59.5916 32.0271 59.2123 31.8201 58.7525C31.6132 58.3042 31.5098 57.8214 31.5098 57.3156C31.5098 56.7293 31.7052 56.2005 32.096 55.7292C32.4869 55.2579 32.9237 55.0165 33.4065 55.0165C33.8203 55.0165 34.1882 55.1314 34.5215 55.3499C34.8549 55.5683 35.0158 55.7292 35.0158 55.8212C35.0158 55.8671 34.9928 55.8901 34.9469 55.8901C34.487 55.9591 34.1192 56.2005 33.8548 56.5913C33.5904 56.9937 33.4525 57.4075 33.4525 57.8328C33.4525 58.2467 33.5674 58.5915 33.7973 58.9019C34.0272 59.2008 34.4296 59.3502 34.9813 59.3502C35.2687 59.3502 35.5676 59.2583 35.878 59.0743C36.1769 58.8904 36.4527 58.603 36.6941 58.2237C36.9355 57.8328 37.1425 57.3385 37.2919 56.7293C37.4528 56.12 37.5333 55.4073 37.5333 54.5797C37.5333 53.8555 37.4528 53.1083 37.2804 52.3611C37.108 51.6139 36.9011 50.7402 36.6597 49.7401C36.4183 50.4873 36.1998 51.0736 36.0044 51.4759C35.809 51.8783 35.6366 52.1771 35.4986 52.3726C35.3492 52.568 35.2342 52.6829 35.1538 52.7174C35.0733 52.7519 35.0158 52.7749 34.9928 52.7749C34.8204 52.7749 34.6825 52.6714 34.556 52.4645C34.4296 52.2576 34.3721 52.0622 34.3721 51.8668C34.6595 51.1426 34.9469 50.4299 35.2113 49.7516C35.4527 49.1654 35.6941 48.5446 35.9355 47.8894C36.1769 47.2342 36.3838 46.6594 36.5562 46.1766C36.7516 45.3719 36.9585 44.7397 37.1769 44.2799C37.3954 43.82 37.6023 43.4752 37.7977 43.2568C37.9931 43.0384 38.154 42.9004 38.292 42.8429C38.4299 42.7855 38.5219 42.751 38.5679 42.751C38.8093 42.751 39.0852 42.8085 39.384 42.9119C39.6829 43.0269 39.9703 43.1648 40.2462 43.3372C40.5106 43.5097 40.7405 43.6936 40.9244 43.9005C41.0739 44.1074 41.1658 44.3258 41.1658 44.5442Z" fill="#9F9C9C"/>
<path d="M50.5443 41.7387C50.7168 41.9341 50.8547 42.1525 50.9811 42.3939C51.1076 42.6353 51.1766 42.8537 51.2226 43.0492C51.257 43.2446 51.1996 43.3365 51.0616 43.3365C51.0156 43.3365 50.9467 43.3365 50.8662 43.3135C50.7857 43.302 50.6478 43.2906 50.4639 43.2906C50.2799 43.2906 50.027 43.2906 49.6937 43.2676C49.3603 43.2561 48.9235 43.2446 48.3602 43.2446C47.4636 45.2907 46.7279 47.199 46.1531 48.9922C45.5784 50.7855 45.291 52.3259 45.291 53.6478C45.291 54.1306 45.4519 54.372 45.7623 54.372C45.9347 54.372 46.1991 54.1996 46.544 53.8662C46.9003 53.5214 47.2682 53.0961 47.659 52.5903C48.0498 52.0845 48.4177 51.5212 48.774 50.9119C49.1304 50.3027 49.3948 49.7394 49.5902 49.2336C49.5902 49.2106 49.6017 49.1877 49.6247 49.1647C49.6707 49.1187 49.7052 49.0957 49.7397 49.0957C50.004 49.0957 50.165 49.1991 50.211 49.4061C50.2569 49.613 50.2684 49.8544 50.2454 50.1188C50.1995 50.4062 50.119 50.751 50.027 51.1419C49.9581 51.3603 49.7626 51.7856 49.4408 52.4178C49.1189 53.0501 48.7281 53.7053 48.2568 54.372C47.7855 55.0388 47.2567 55.6365 46.6704 56.1423C46.0841 56.6481 45.4749 56.9125 44.8427 56.9125C43.969 56.9125 43.2563 56.6366 42.7045 56.0733C42.1528 55.5101 41.8884 54.6594 41.8884 53.5214C41.8884 53.0616 41.9573 52.4753 42.1068 51.7741C42.2562 51.0729 42.4516 50.2797 42.7045 49.4061C42.9574 48.5324 43.2678 47.5783 43.6356 46.5437C44.0035 45.5091 44.4173 44.4171 44.8771 43.2791H42.831C42.5896 43.2791 42.3712 43.1641 42.1872 42.9342C42.0033 42.7043 41.8539 42.4514 41.7504 42.164C41.6355 41.8881 41.5665 41.6352 41.532 41.4168C41.4975 41.1984 41.509 41.0835 41.5895 41.0835C41.9573 41.1754 42.2907 41.2559 42.5896 41.3019C42.8885 41.3478 43.1988 41.3938 43.4977 41.4283C43.7966 41.4628 44.1184 41.4858 44.4633 41.4973C44.8082 41.5088 45.176 41.5203 45.5898 41.5203C45.7853 41.0605 46.0152 40.5202 46.2796 39.8994C46.544 39.2787 46.8084 38.6809 47.0612 38.1062C47.3141 37.5314 47.5555 37.0256 47.774 36.5888C47.9924 36.152 48.1533 35.8876 48.2453 35.7841C48.4177 35.6117 48.7051 35.5542 49.1074 35.6232C49.5098 35.6807 49.9006 35.7956 50.2799 35.968C50.6593 36.1405 50.9697 36.3359 51.2111 36.5658C51.4525 36.7957 51.4984 36.9911 51.3605 37.1291C51.2915 37.198 51.1651 37.4165 50.9811 37.7728C50.7972 38.1292 50.6018 38.5315 50.3834 38.9798C50.165 39.4281 49.9466 39.8764 49.7397 40.3248C49.5327 40.7731 49.3603 41.1409 49.2109 41.4398H50.119C50.2454 41.4398 50.3719 41.5433 50.5443 41.7387Z" fill="#9F9C9C"/>
<path d="M64.3393 49.0729C64.6037 49.0729 64.7762 49.1878 64.8451 49.4063C64.9141 49.6247 64.9256 49.8661 64.8796 50.1305C64.8336 50.4178 64.7417 50.7627 64.6267 51.1535C64.5578 51.372 64.3623 51.7973 64.0405 52.418C63.7186 53.0388 63.3393 53.6825 62.8679 54.3492C62.4081 55.016 61.8793 55.6137 61.2816 56.1195C60.6838 56.6253 60.0861 56.8897 59.4768 56.8897C58.5227 56.8897 57.7985 56.6138 57.2927 56.0505C56.7869 55.4873 56.5225 54.5447 56.5225 53.1997C56.2581 53.6595 55.9592 54.1078 55.6259 54.5447C55.2925 54.9815 54.9592 55.3838 54.6258 55.7287C54.2809 56.085 53.9476 56.3724 53.6257 56.5908C53.2923 56.8092 52.9935 56.9242 52.7291 56.9242C52.1428 56.9242 51.6025 56.8092 51.1082 56.5793C50.6139 56.3494 50.1771 56.0391 49.8092 55.6482C49.4414 55.2574 49.154 54.7976 48.9471 54.2803C48.7402 53.763 48.6367 53.1997 48.6367 52.6249C48.6367 51.7743 48.8321 50.7742 49.2345 49.6362C49.6368 48.4981 50.1771 47.3946 50.8553 46.3485C51.5335 45.3024 52.3152 44.4173 53.2119 43.7046C54.097 42.9919 55.0166 42.624 55.9707 42.624C56.4076 42.624 56.7984 42.7045 57.1548 42.8769C57.5111 43.0494 57.8215 43.2448 58.1089 43.4632C58.3848 43.6816 58.6147 43.9 58.7871 44.1184C58.9595 44.3368 59.063 44.4863 59.1205 44.5552C59.3389 44.0954 59.5343 43.7276 59.7067 43.4632C59.8792 43.1988 59.9941 43.0608 60.0746 43.0608C60.339 43.0608 60.6608 43.1183 61.0287 43.2218C61.3965 43.3367 61.7299 43.4747 62.0518 43.6586C62.3621 43.8425 62.6036 44.0379 62.7645 44.2449C62.9254 44.4518 62.9254 44.6357 62.7875 44.8081C62.4656 45.199 62.1437 45.7278 61.8219 46.4175C61.4885 47.0957 61.1896 47.8544 60.9137 48.6821C60.6379 49.5097 60.4079 50.3604 60.224 51.2225C60.0401 52.0847 59.9481 52.9008 59.9481 53.648C59.9481 53.8664 59.9941 54.0389 60.0746 54.1768C60.155 54.3148 60.2585 54.3722 60.385 54.3722C60.5574 54.3722 60.8218 54.1998 61.1896 53.8664C61.5575 53.5216 61.9253 53.0963 62.3047 52.5905C62.684 52.0847 63.0519 51.5214 63.3967 50.9121C63.7531 50.3029 64.0175 49.7396 64.2129 49.2338C64.2129 49.2108 64.2244 49.1878 64.2474 49.1649C64.2819 49.0959 64.3164 49.0729 64.3393 49.0729ZM52.844 54.2458C52.9935 54.2458 53.2234 54.0963 53.5337 53.809C53.8441 53.5216 54.2005 53.1307 54.5683 52.6594C54.9477 52.1881 55.3385 51.6478 55.7408 51.0501C56.1432 50.4523 56.5225 49.8661 56.8674 49.2798C57.2237 48.6935 57.5226 48.1418 57.764 47.6245C58.0054 47.1072 58.1664 46.6704 58.2353 46.3255C58.2813 46.0381 58.1778 45.7737 57.902 45.5438C57.6376 45.3139 57.2697 45.199 56.8099 45.199C56.3961 45.199 55.9248 45.4634 55.4075 46.0036C54.8787 46.5439 54.3844 47.2107 53.9131 48.0153C53.4418 48.82 53.0394 49.7051 52.7291 50.6822C52.4072 51.6593 52.2577 52.579 52.2577 53.4526C52.2577 53.671 52.3037 53.8549 52.4072 54.0159C52.4992 54.1768 52.6486 54.2458 52.844 54.2458Z" fill="#9F9C9C"/>
<path d="M77.5476 49.1072C77.812 49.1072 77.9844 49.2107 78.0534 49.4176C78.1224 49.6245 78.1339 49.8659 78.0879 50.1303C78.0419 50.4177 77.95 50.7626 77.835 51.1534C77.766 51.3718 77.5706 51.7971 77.2487 52.4294C76.9269 53.0616 76.5475 53.7169 76.0762 54.3836C75.6164 55.0503 75.0876 55.6481 74.4899 56.1539C73.8921 56.6597 73.2944 56.9241 72.6851 56.9241C71.8344 56.9241 71.1562 56.6941 70.6619 56.2458C70.1676 55.7975 69.8687 55.0273 69.7653 53.9238C69.2825 54.7744 68.7077 55.4756 68.0525 56.0389C67.3972 56.6022 66.6615 56.8781 65.8684 56.8781C64.9947 56.8781 64.282 56.6022 63.7302 56.0389C63.1785 55.4756 62.9141 54.625 62.9141 53.4869C62.9141 53.1766 62.9945 52.7168 63.167 52.142C63.3394 51.5557 63.5463 50.912 63.7877 50.1878C64.0291 49.4751 64.2935 48.7279 64.5924 47.9577C64.8913 47.1875 65.1557 46.4748 65.3971 45.8196C65.6385 45.1643 65.8454 44.5896 66.0178 44.1068C66.1902 43.624 66.2707 43.3021 66.2707 43.1526C66.2707 42.9572 66.3167 42.8423 66.4201 42.7848C66.5121 42.7388 66.5926 42.7158 66.6386 42.7158C66.9029 42.7158 67.2018 42.7733 67.5122 42.8768C67.8226 42.9917 68.1215 43.1297 68.3858 43.3021C68.6502 43.4745 68.8801 43.6584 69.0641 43.8654C69.248 44.0723 69.34 44.2677 69.34 44.4631C69.34 44.8769 69.179 45.4402 68.8686 46.1644C68.5468 46.8771 68.2019 47.6703 67.8341 48.521C67.4547 49.3716 67.1099 50.2453 66.7995 51.1534C66.4776 52.05 66.3282 52.8777 66.3282 53.6364C66.3282 53.8548 66.3742 54.0272 66.4546 54.1652C66.5351 54.3031 66.6386 54.3606 66.765 54.3606C67.1099 54.3606 67.4662 54.1652 67.8456 53.7743C68.2249 53.3835 68.5928 52.8892 68.9606 52.2799C69.3285 51.6707 69.6733 51.004 70.0182 50.2683C70.363 49.544 70.6619 48.8198 70.9263 48.1186C71.1447 47.4634 71.3861 46.8311 71.639 46.2219C71.8919 45.6126 72.1333 45.0839 72.3517 44.6126C72.5701 44.1527 72.7656 43.7849 72.938 43.4975C73.1104 43.2216 73.2254 43.0722 73.3058 43.0722C73.5702 43.0722 73.8921 43.1297 74.2715 43.2331C74.6508 43.3481 74.9842 43.486 75.2945 43.6699C75.5934 43.8539 75.8348 44.0493 75.9843 44.2562C76.1452 44.4631 76.1452 44.647 76.0073 44.8195C75.6854 45.2103 75.3635 45.7391 75.0416 46.4288C74.7083 47.107 74.4094 47.8542 74.1335 48.6704C73.8576 49.4866 73.6277 50.3257 73.4438 51.2109C73.2599 52.0845 73.1679 52.9007 73.1679 53.6594C73.1679 53.8778 73.2139 54.0502 73.2943 54.1882C73.3748 54.3261 73.4783 54.3836 73.6047 54.3836C73.7772 54.3836 74.0415 54.2112 74.4094 53.8778C74.7772 53.5329 75.1451 53.1076 75.5244 52.6018C75.9038 52.096 76.2716 51.5327 76.6165 50.9235C76.9729 50.3142 77.2372 49.751 77.4327 49.2452C77.4327 49.2222 77.4442 49.1992 77.4672 49.1762C77.4902 49.1302 77.5246 49.1072 77.5476 49.1072Z" fill="#9F9C9C"/>
<path d="M88.4681 49.1074C88.7095 49.1074 88.8704 49.1879 88.9394 49.3603C89.0084 49.5327 89.0544 49.7397 89.0544 49.9811C89.0544 50.1305 89.0429 50.2685 89.0199 50.4064C88.9969 50.5443 88.9739 50.6708 88.9509 50.7857C88.9279 50.9122 88.9049 51.0271 88.8819 51.1536C88.813 51.372 88.6061 51.7973 88.2612 52.4296C87.9163 53.0618 87.491 53.7171 86.9852 54.3838C86.4794 55.0505 85.9047 55.6483 85.2839 56.1541C84.6632 56.6599 84.0539 56.9243 83.4447 56.9243C82.548 56.9243 81.8238 56.6484 81.295 56.0851C80.7547 55.5218 80.4904 54.6712 80.4904 53.5331C80.4904 53.0963 80.6283 52.4756 80.8927 51.6939C81.1571 50.9007 81.456 50.1075 81.7893 49.3028C82.1227 48.4982 82.4446 47.774 82.7549 47.1187C83.0653 46.4635 83.2722 46.0497 83.3757 45.8772C83.3757 45.9002 83.3757 45.9002 83.3987 45.8542C83.4102 45.8198 83.3872 45.7968 83.3412 45.7968C83.2952 45.7968 83.0768 45.8427 82.6975 45.9462C82.3181 46.0382 81.9273 46.0956 81.5134 46.0956C81.249 46.0956 80.9847 46.0612 80.7433 45.9807C79.9616 47.728 79.2489 49.1879 78.6051 50.3604C77.9614 51.5329 77.3981 52.4181 76.9038 53.0273C76.8348 53.1193 76.7429 53.1423 76.6509 53.0848C76.5589 53.0273 76.467 52.9239 76.398 52.7744C76.329 52.625 76.2716 52.4641 76.2371 52.2686C76.2026 52.0732 76.2141 51.8778 76.2946 51.6824C76.6854 50.9237 77.0188 50.257 77.3176 49.6707C77.6165 49.0844 77.9154 48.4292 78.2488 47.705C78.5821 46.9808 78.8695 46.2566 79.1454 45.5554C78.2718 45.268 77.7085 44.8197 77.4441 44.2219C77.1912 43.6241 77.0647 43.0724 77.0647 42.5666C77.0647 42.1298 77.1912 41.647 77.4326 41.1067C77.674 40.5664 77.9844 40.0836 78.3407 39.6238C78.7086 39.1755 79.1109 38.7961 79.5592 38.4742C80.0075 38.1639 80.4444 38.0029 80.8582 38.0029C81.0076 38.0029 81.1801 38.0374 81.387 38.1064C81.5939 38.1754 81.7893 38.2903 81.9847 38.4283C82.1802 38.5777 82.3526 38.7501 82.4905 38.9685C82.64 39.1869 82.7089 39.4398 82.7089 39.7272C82.7089 40.1411 82.617 40.7043 82.4216 41.417C82.2261 42.1298 81.9273 43.0149 81.5134 44.084C81.5824 44.1299 81.7548 44.1529 82.0192 44.1529C82.3871 44.1529 82.8009 44.1184 83.2607 44.038C83.7205 43.969 84.1344 43.923 84.5022 43.923C84.7436 43.923 84.985 43.9805 85.2264 44.107C85.4678 44.2334 85.6862 44.3828 85.8817 44.5668C86.0771 44.7507 86.238 44.9461 86.353 45.176C86.4794 45.3944 86.5369 45.6013 86.5369 45.7968C86.5369 45.9922 86.5024 46.1416 86.4219 46.2336C86.2035 46.6014 85.9506 47.0842 85.6518 47.6935C85.3644 48.3027 85.077 48.958 84.8126 49.6477C84.5482 50.3489 84.3183 51.0501 84.1344 51.7514C83.9504 52.4526 83.8585 53.0963 83.8585 53.6596C83.8585 53.878 83.9045 54.0619 83.9849 54.1884C84.0654 54.3263 84.1689 54.3953 84.2953 54.3953C84.4677 54.3953 84.7436 54.2228 85.1115 53.8895C85.4908 53.5446 85.8817 53.1193 86.2955 52.6135C86.7093 52.1077 87.1002 51.5444 87.468 50.9352C87.8359 50.3259 88.1118 49.7627 88.3072 49.2569C88.3072 49.2339 88.3187 49.2109 88.3417 49.1879C88.3991 49.1304 88.4336 49.1074 88.4681 49.1074ZM80.7662 40.1296C80.6398 40.1296 80.5133 40.21 80.3639 40.3825C80.2145 40.5549 80.0765 40.7618 79.9271 41.0032C79.7776 41.2446 79.6627 41.4975 79.5592 41.7734C79.4673 42.0378 79.4098 42.2562 79.4098 42.4286C79.4098 42.693 79.4443 42.9114 79.5017 43.0724C79.5592 43.2333 79.7202 43.3942 79.9616 43.5667C80.3064 42.762 80.5478 42.1413 80.6858 41.6814C80.8352 41.2331 80.9042 40.8883 80.9042 40.6469C80.9042 40.302 80.8582 40.1296 80.7662 40.1296Z" fill="#9F9C9C"/>
<path d="M103.021 49.0729C103.285 49.0729 103.458 49.1878 103.527 49.4063C103.596 49.6247 103.607 49.8661 103.561 50.1305C103.515 50.4178 103.423 50.7627 103.308 51.1535C103.239 51.372 103.044 51.7973 102.722 52.418C102.4 53.0388 102.021 53.6825 101.55 54.3492C101.09 55.016 100.561 55.6137 99.9632 56.1195C99.3655 56.6253 98.7677 56.8897 98.1585 56.8897C97.2044 56.8897 96.4801 56.6138 95.9744 56.0505C95.4686 55.4873 95.2042 54.5447 95.2042 53.1997C94.9398 53.6595 94.6409 54.1078 94.3075 54.5447C93.9742 54.9815 93.6408 55.3838 93.3074 55.7287C92.9626 56.085 92.6292 56.3724 92.3073 56.5908C91.974 56.8092 91.6751 56.9242 91.4107 56.9242C90.8244 56.9242 90.2842 56.8092 89.7899 56.5793C89.2956 56.3494 88.8587 56.0391 88.4909 55.6482C88.123 55.2574 87.8357 54.7976 87.6287 54.2803C87.4218 53.763 87.3184 53.1997 87.3184 52.6249C87.3184 51.7743 87.5138 50.7742 87.9161 49.6362C88.3185 48.4981 88.8587 47.3946 89.537 46.3485C90.2152 45.3024 90.9969 44.4173 91.8935 43.7046C92.7787 42.9919 93.6983 42.624 94.6524 42.624C95.0892 42.624 95.4801 42.7045 95.8364 42.8769C96.1928 43.0494 96.5031 43.2448 96.7905 43.4632C97.0664 43.6816 97.2963 43.9 97.4687 44.1184C97.6412 44.3368 97.7446 44.4863 97.8021 44.5552C98.0205 44.0954 98.2159 43.7276 98.3884 43.4632C98.5608 43.1988 98.6758 43.0608 98.7562 43.0608C99.0206 43.0608 99.3425 43.1183 99.7103 43.2218C100.078 43.3367 100.412 43.4747 100.733 43.6586C101.044 43.8425 101.285 44.0379 101.446 44.2449C101.607 44.4518 101.607 44.6357 101.469 44.8081C101.147 45.199 100.825 45.7278 100.504 46.4175C100.17 47.0957 99.8713 47.8544 99.5954 48.6821C99.3195 49.5097 99.0896 50.3604 98.9057 51.2225C98.7217 52.0847 98.6298 52.9008 98.6298 53.648C98.6298 53.8664 98.6758 54.0389 98.7562 54.1768C98.8367 54.3148 98.9401 54.3722 99.0666 54.3722C99.239 54.3722 99.5034 54.1998 99.8713 53.8664C100.239 53.5216 100.607 53.0963 100.986 52.5905C101.366 52.0847 101.734 51.5214 102.078 50.9121C102.435 50.3029 102.699 49.7396 102.895 49.2338C102.895 49.2108 102.906 49.1878 102.929 49.1649C102.964 49.0959 102.998 49.0729 103.021 49.0729ZM91.5257 54.2458C91.6751 54.2458 91.905 54.0963 92.2154 53.809C92.5258 53.5216 92.8821 53.1307 93.25 52.6594C93.6293 52.1881 94.0201 51.6478 94.4225 51.0501C94.8248 50.4523 95.2042 49.8661 95.549 49.2798C95.9054 48.6935 96.2043 48.1418 96.4457 47.6245C96.6871 47.1072 96.848 46.6704 96.917 46.3255C96.9629 46.0381 96.8595 45.7737 96.5836 45.5438C96.3192 45.3139 95.9514 45.199 95.4915 45.199C95.0777 45.199 94.6064 45.4634 94.0891 46.0036C93.5603 46.5439 93.066 47.2107 92.5947 48.0153C92.1234 48.82 91.7211 49.7051 91.4107 50.6822C91.0888 51.6593 90.9394 52.579 90.9394 53.4526C90.9394 53.671 90.9854 53.8549 91.0888 54.0159C91.1923 54.1768 91.3302 54.2458 91.5257 54.2458Z" fill="#9F9C9C"/>
<path d="M116.528 49.1071C116.793 49.1071 116.965 49.2105 117.034 49.4175C117.103 49.6244 117.126 49.8658 117.103 50.1302C117.08 50.4176 117.022 50.7624 116.919 51.1533C116.85 51.3717 116.632 51.797 116.275 52.4292C115.919 53.0615 115.494 53.7167 114.976 54.3834C114.471 55.0502 113.896 55.6479 113.275 56.1537C112.654 56.6595 112.045 56.9239 111.436 56.9239C110.562 56.9239 109.849 56.648 109.298 56.0848C108.746 55.5215 108.481 54.6708 108.481 53.5328C108.481 53.073 108.619 52.4637 108.884 51.705C109.148 50.9463 109.447 50.1991 109.78 49.4405C110.114 48.6818 110.413 47.992 110.689 47.3598C110.964 46.7276 111.114 46.3022 111.114 46.0838C111.114 45.8884 111.068 45.7964 110.964 45.7964C110.873 45.7964 110.631 45.9574 110.275 46.2907C109.907 46.6241 109.493 47.0609 109.01 47.6242C108.539 48.1875 108.033 48.8197 107.493 49.5439C106.953 50.2566 106.47 51.0268 106.033 51.82C105.596 52.6247 105.228 53.4293 104.941 54.234C104.654 55.0387 104.504 55.7859 104.504 56.4986C104.504 56.5676 104.447 56.6365 104.32 56.694C104.194 56.7515 104.067 56.786 103.918 56.786C103.745 56.786 103.527 56.717 103.24 56.5676C102.964 56.4181 102.676 56.2342 102.4 56.0043C102.125 55.7744 101.883 55.4985 101.688 55.1651C101.492 54.8318 101.4 54.4869 101.4 54.1305C101.4 53.7857 101.481 53.3144 101.653 52.6936C101.826 52.0729 102.044 51.3832 102.309 50.613C102.573 49.8428 102.86 49.0611 103.171 48.2449C103.47 47.4288 103.757 46.6701 104.033 45.9689C104.297 45.2676 104.516 44.6469 104.688 44.1296C104.86 43.6123 104.941 43.256 104.941 43.095C104.941 43.0261 104.964 42.9341 105.01 42.8191C105.056 42.7042 105.182 42.6582 105.378 42.6582C105.596 42.6582 105.861 42.7042 106.182 42.8076C106.493 42.8996 106.792 43.0375 107.056 43.21C107.32 43.3824 107.55 43.5778 107.746 43.7962C107.941 44.0147 108.033 44.2331 108.033 44.4515C108.033 44.6469 107.976 44.8998 107.872 45.1987C107.757 45.4976 107.631 45.8309 107.493 46.1873C107.343 46.5436 107.194 46.8885 107.033 47.2448C106.872 47.6012 106.746 47.9231 106.654 48.2104C107.091 47.4862 107.573 46.7965 108.114 46.1528C108.654 45.509 109.183 44.9458 109.723 44.4745C110.263 44.0032 110.769 43.6238 111.252 43.3594C111.735 43.095 112.137 42.9571 112.459 42.9571C113.264 42.9571 113.884 43.1755 114.321 43.6123C114.758 44.0491 114.976 44.7159 114.976 45.624C114.976 46.0838 114.815 46.6586 114.482 47.3368C114.149 48.015 113.804 48.7392 113.424 49.5094C113.045 50.2796 112.7 51.0268 112.367 51.774C112.034 52.5212 111.873 53.1649 111.873 53.7282C111.873 53.9466 111.919 54.1191 111.999 54.257C112.08 54.3949 112.183 54.4524 112.309 54.4524C112.482 54.4524 112.758 54.28 113.126 53.9466C113.505 53.6018 113.907 53.1764 114.333 52.6706C114.758 52.1648 115.149 51.6016 115.517 50.9923C115.884 50.3831 116.16 49.8198 116.356 49.314C116.356 49.291 116.367 49.268 116.39 49.245C116.471 49.1301 116.505 49.1071 116.528 49.1071Z" fill="#9F9C9C"/>
<path d="M124.081 41.7387C124.254 41.9341 124.392 42.1525 124.518 42.3939C124.645 42.6353 124.714 42.8537 124.76 43.0492C124.794 43.2446 124.737 43.3365 124.599 43.3365C124.553 43.3365 124.484 43.3365 124.403 43.3135C124.323 43.302 124.185 43.2906 124.001 43.2906C123.817 43.2906 123.564 43.2906 123.231 43.2676C122.897 43.2561 122.461 43.2446 121.897 43.2446C121.001 45.2907 120.265 47.199 119.69 48.9922C119.115 50.7855 118.828 52.3259 118.828 53.6478C118.828 54.1306 118.989 54.372 119.299 54.372C119.472 54.372 119.736 54.1996 120.081 53.8662C120.437 53.5214 120.805 53.0961 121.196 52.5903C121.587 52.0845 121.955 51.5212 122.311 50.9119C122.668 50.3027 122.932 49.7394 123.127 49.2336C123.127 49.2106 123.139 49.1877 123.162 49.1647C123.208 49.1187 123.242 49.0957 123.277 49.0957C123.541 49.0957 123.702 49.1991 123.748 49.4061C123.794 49.613 123.806 49.8544 123.783 50.1188C123.737 50.4062 123.656 50.751 123.564 51.1419C123.495 51.3603 123.3 51.7856 122.978 52.4178C122.656 53.0501 122.265 53.7053 121.794 54.372C121.323 55.0388 120.794 55.6365 120.208 56.1423C119.621 56.6481 119.012 56.9125 118.38 56.9125C117.506 56.9125 116.793 56.6366 116.242 56.0733C115.69 55.5101 115.425 54.6594 115.425 53.5214C115.425 53.0616 115.494 52.4753 115.644 51.7741C115.793 51.0729 115.989 50.2797 116.242 49.4061C116.495 48.5324 116.805 47.5783 117.173 46.5437C117.541 45.5091 117.954 44.4171 118.414 43.2791H116.368C116.127 43.2791 115.908 43.1641 115.724 42.9342C115.54 42.7043 115.391 42.4514 115.288 42.164C115.173 41.8881 115.104 41.6352 115.069 41.4168C115.035 41.1984 115.046 41.0835 115.127 41.0835C115.494 41.1754 115.828 41.2559 116.127 41.3019C116.426 41.3478 116.736 41.3938 117.035 41.4283C117.334 41.4628 117.656 41.4858 118 41.4973C118.345 41.5088 118.713 41.5203 119.127 41.5203C119.322 41.0605 119.552 40.5202 119.817 39.8994C120.081 39.2787 120.345 38.6809 120.598 38.1062C120.851 37.5314 121.093 37.0256 121.311 36.5888C121.529 36.152 121.69 35.8876 121.782 35.7841C121.955 35.6117 122.242 35.5542 122.645 35.6232C123.047 35.6807 123.438 35.7956 123.817 35.968C124.196 36.1405 124.507 36.3359 124.748 36.5658C124.99 36.7957 125.036 36.9911 124.898 37.1291C124.829 37.198 124.702 37.4165 124.518 37.7728C124.334 38.1292 124.139 38.5315 123.92 38.9798C123.702 39.4281 123.484 39.8764 123.277 40.3248C123.07 40.7731 122.897 41.1409 122.748 41.4398H123.656C123.783 41.4398 123.909 41.5433 124.081 41.7387Z" fill="#9F9C9C"/>
<path d="M85.5826 28.1052C85.4906 27.3695 85.2722 26.6568 84.9503 25.9786C84.617 25.3119 84.1686 24.7026 83.6284 24.1738C83.4904 24.0474 83.3525 23.9209 83.203 23.806C83.0536 23.691 82.9042 23.5761 82.7547 23.4726C82.4443 23.2657 82.111 23.0818 81.7661 22.9438C81.4213 22.7944 81.0649 22.6909 80.6971 22.6105C80.6051 22.5875 80.5131 22.576 80.4212 22.553L80.2832 22.53L80.1453 22.5185C80.0533 22.507 79.9614 22.4955 79.8694 22.4955C79.7774 22.484 79.6855 22.484 79.582 22.484H79.4326H79.3981H79.3751H79.3291H79.2946H79.2716H79.2372C79.1452 22.4955 79.0532 22.507 78.9728 22.5185C78.8003 22.5415 78.6279 22.576 78.4555 22.599C78.1451 22.6564 77.8462 22.7369 77.5473 22.8174C77.5129 22.7714 77.4784 22.7254 77.4439 22.6794C77.3059 22.507 77.168 22.3346 77.0186 22.1736C76.7312 21.8518 76.4208 21.5414 76.0874 21.2655C75.7656 20.9896 75.4207 20.7252 75.0529 20.4838C74.6965 20.2424 74.3287 20.024 73.9378 19.8401C73.7539 19.7366 73.547 19.6562 73.3631 19.5757C73.1676 19.4952 72.9722 19.4148 72.7653 19.3458C72.363 19.1963 71.9606 19.0929 71.5468 19.0009C70.7191 18.8285 69.8915 18.7365 69.0638 18.748C68.8569 18.748 68.65 18.7595 68.4431 18.771L68.2821 18.7825C68.2132 18.7825 68.1672 18.794 68.1097 18.8055C68.0062 18.817 67.9028 18.84 67.7993 18.8515C67.3855 18.9205 66.9946 19.0239 66.5923 19.1389C65.8106 19.3803 65.0519 19.6906 64.3392 20.093C63.6265 20.4953 62.9598 20.9666 62.3735 21.5184C61.8218 22.0357 61.339 22.622 60.9366 23.2427C60.8791 23.2197 60.8217 23.2082 60.7642 23.1852C60.5573 23.1163 60.3504 23.0588 60.1319 23.0013C60.0285 22.9668 59.925 22.9438 59.8101 22.9208L59.4882 22.8404C59.2698 22.7944 59.0514 22.7484 58.8215 22.7139L58.6491 22.6909L58.4766 22.6679C58.3617 22.6564 58.2467 22.6449 58.1203 22.6334C58.0628 22.6334 57.9938 22.622 57.9363 22.622C57.9019 22.622 57.8789 22.622 57.8329 22.622H57.7179H57.6834H57.6605H57.6145L57.5225 22.6334C57.465 22.6334 57.4076 22.6449 57.3501 22.6449C56.8673 22.6909 56.396 22.7944 55.9362 22.9553C55.7063 23.0358 55.4763 23.1277 55.2579 23.2427C55.0395 23.3577 54.8326 23.4726 54.6257 23.5991C54.4188 23.737 54.2234 23.8749 54.0394 24.0244C53.8555 24.1738 53.6831 24.3462 53.5106 24.5072C52.8439 25.2084 52.3266 26.0361 52.0278 26.9442C51.9473 27.1741 51.8898 27.404 51.8323 27.6339L51.7634 27.9788C51.7404 28.0937 51.7289 28.2087 51.7174 28.3236C51.6599 28.7949 51.6484 29.2662 51.6944 29.7261C51.7059 29.841 51.7174 29.956 51.7404 30.0709L51.7634 30.2433L51.7978 30.4158C51.8438 30.6457 51.8898 30.8756 51.9588 31.094C52.0852 31.5423 52.2692 31.9676 52.4991 32.3815C52.7175 32.7953 52.9934 33.1746 53.3037 33.5195C53.6141 33.8644 53.959 34.1747 54.3268 34.4391C54.6947 34.7035 55.097 34.9334 55.5223 35.1059C55.9477 35.2783 56.396 35.3932 56.8443 35.4507C57.7409 35.5657 58.6376 35.4392 59.4537 35.1633C60.2699 34.8874 61.0171 34.4736 61.6608 33.9448C61.2815 34.1288 60.9021 34.2782 60.5113 34.3932C60.1205 34.5081 59.7296 34.6001 59.3273 34.6575C58.5341 34.7725 57.7409 34.7495 57.0167 34.5426C56.2925 34.3472 55.6373 33.9563 55.0855 33.462C54.8096 33.2091 54.5567 32.9447 54.3498 32.6459C54.1314 32.347 53.959 32.0366 53.8095 31.7032C53.5221 31.048 53.3727 30.3123 53.3382 29.5996C53.3267 29.2433 53.3612 28.8869 53.4187 28.5305C53.4302 28.4386 53.4417 28.3581 53.4647 28.2661L53.5221 28.0133C53.5796 27.8408 53.6256 27.6799 53.6946 27.5075C53.821 27.1856 53.9705 26.8637 54.1659 26.5763C54.3613 26.289 54.5797 26.0131 54.8211 25.7717C55.3154 25.2889 55.9017 24.898 56.5454 24.6796C56.8673 24.5647 57.2006 24.4957 57.5455 24.4497L57.7869 24.4267H57.8329C57.8444 24.4267 57.8674 24.4267 57.8904 24.4267C57.9363 24.4267 57.9708 24.4267 58.0168 24.4267C58.0973 24.4267 58.1892 24.4382 58.2812 24.4497L58.4191 24.4612L58.5571 24.4842C58.741 24.5072 58.9249 24.5417 59.1089 24.5762L59.3847 24.6336C59.4767 24.6566 59.5687 24.6681 59.6606 24.7026C59.8446 24.7486 60.04 24.7946 60.2239 24.852C60.4078 24.9095 60.6033 24.9555 60.7872 25.0245L61.0631 25.1164L61.201 25.1624L61.339 25.2084L61.9022 25.4153C62.2701 25.5648 62.6494 25.7027 63.0058 25.8751C63.1897 25.9556 63.3736 26.0361 63.5576 26.1165L64.0978 26.3809C64.2817 26.4614 64.4657 26.5533 64.6381 26.6453L65.1784 26.9212C65.2703 26.9672 65.3738 27.0132 65.4658 27.0591L65.7532 27.1971L66.0405 27.335C66.144 27.381 66.236 27.427 66.3394 27.473L66.9487 27.7144C67.0521 27.7489 67.1441 27.7948 67.2475 27.8293L67.5579 27.9213C68.3741 28.1972 69.2477 28.3581 70.1099 28.4156C70.972 28.4731 71.8572 28.3926 72.6848 28.1742L72.9952 28.0822C73.0987 28.0477 73.2021 28.0133 73.2941 27.9788C73.3975 27.9443 73.4895 27.9098 73.593 27.8638L73.8803 27.7374C74.2597 27.5419 74.616 27.3235 74.9494 27.0706C74.5701 27.2316 74.1792 27.3695 73.7769 27.473C73.5815 27.519 73.386 27.5649 73.1791 27.5879L72.8802 27.6339L72.5814 27.6569C71.7882 27.7259 70.9835 27.6684 70.2133 27.5075L69.9259 27.45L69.6386 27.3695L69.3512 27.289C69.3052 27.2776 69.2592 27.2661 69.2132 27.2546L69.0753 27.2086C68.8914 27.1396 68.7074 27.0821 68.5235 27.0132C68.3396 26.9442 68.1557 26.8522 67.9832 26.7833L67.7188 26.6683C67.6269 26.6223 67.5464 26.5763 67.4545 26.5304L66.9257 26.2545C66.8337 26.2085 66.7532 26.151 66.6728 26.105L66.4199 25.9556L65.9026 25.6452L65.3623 25.3119C65.1784 25.1969 65.006 25.0934 64.8105 24.99L64.2588 24.6796C64.0748 24.5762 63.8794 24.4842 63.6955 24.3807C63.3161 24.1853 62.9253 24.0014 62.5345 23.829C62.1436 23.6565 61.7413 23.4956 61.3275 23.3462C61.1895 23.2887 61.0401 23.2427 60.9021 23.1967C61.3619 22.6105 61.8907 22.0932 62.477 21.6449C63.0977 21.162 63.7875 20.7712 64.5002 20.4608C65.2129 20.1505 65.9601 19.9206 66.7188 19.7711C67.0981 19.7021 67.4774 19.6447 67.8568 19.6102C67.9488 19.5987 68.0407 19.5987 68.1327 19.5872C68.1787 19.5872 68.2246 19.5872 68.2591 19.5872L68.3971 19.5987C68.5925 19.6102 68.7764 19.6102 68.9603 19.6332C69.719 19.7021 70.4662 19.8516 71.1789 20.0815C71.5353 20.2079 71.8802 20.3344 72.225 20.4953C72.3974 20.5643 72.5584 20.6563 72.7193 20.7482C72.8802 20.8402 73.0412 20.9321 73.2021 21.0356C73.5125 21.231 73.8114 21.4494 74.0987 21.6793C74.3861 21.9092 74.6505 22.1621 74.9034 22.4265C75.1563 22.6909 75.3862 22.9668 75.6046 23.2542C75.6391 23.3117 75.6851 23.3577 75.7196 23.4151C75.6391 23.4496 75.5701 23.4841 75.5012 23.5186C74.9034 23.7945 74.3402 24.0934 73.7654 24.3577C73.2021 24.6336 72.6273 24.8635 72.0296 25.0245C71.4318 25.1739 70.7996 25.2429 70.1444 25.2199C70.7536 25.4498 71.4203 25.5648 72.0986 25.5418C72.4319 25.5303 72.7768 25.4958 73.0987 25.4383C73.432 25.3808 73.7539 25.3119 74.0758 25.2199C74.7195 25.0475 75.3287 24.8405 75.938 24.6566C76.0874 24.6106 76.2369 24.5762 76.3863 24.5302C76.5358 24.4957 76.6852 24.4497 76.8346 24.4152C77.1335 24.3462 77.4324 24.2888 77.7313 24.2313C78.0301 24.1738 78.329 24.1393 78.6279 24.1048C78.7773 24.0934 78.9268 24.0819 79.0647 24.0704C79.1337 24.0704 79.2142 24.0589 79.2716 24.0589H79.2946H79.3061H79.3176C79.3176 24.0589 79.3176 24.0589 79.3061 24.0589H79.3291L79.4211 24.0704C79.4786 24.0704 79.5475 24.0819 79.6165 24.0934C79.6855 24.1048 79.7544 24.1163 79.8234 24.1278C79.8924 24.1393 79.9614 24.1508 80.0188 24.1738C80.0878 24.1853 80.1453 24.2083 80.2143 24.2198C80.4786 24.2888 80.72 24.3922 80.9614 24.5072C81.2028 24.6221 81.4328 24.7601 81.6512 24.921C81.7546 25.0015 81.8696 25.0819 81.973 25.1739C82.0765 25.2659 82.1685 25.3578 82.2719 25.4498C82.6513 25.8291 82.9616 26.266 83.203 26.7488C83.4444 27.2316 83.6054 27.7604 83.6858 28.3006C83.7663 28.8409 83.7663 29.3927 83.6858 29.9445C83.6054 30.4962 83.4559 31.025 83.2145 31.5308C83.0996 31.7837 82.9501 32.0136 82.8007 32.2435C82.6398 32.4734 82.4673 32.6918 82.2719 32.8873C81.8696 33.2896 81.4328 33.646 80.9155 33.8874C80.789 33.9563 80.6626 34.0023 80.5246 34.0598C80.3867 34.1058 80.2602 34.1517 80.1223 34.1977C79.8464 34.2782 79.559 34.3357 79.2601 34.3587C78.9843 34.3817 78.7084 34.3932 78.4325 34.3817L78.3865 34.3357L78.352 34.3702C78.0531 34.3587 77.7428 34.3242 77.4324 34.2667C76.8231 34.1517 76.2024 33.9793 75.6046 33.7379C75.846 33.9563 76.1219 34.1403 76.3978 34.3127C76.6852 34.4851 76.9726 34.6346 77.2829 34.761C77.4784 34.8415 77.6853 34.9219 77.8922 34.9794L77.8807 34.9909C77.8002 35.1059 77.7313 35.2208 77.6508 35.3243L77.4324 35.6691C77.1565 36.1289 76.9036 36.6117 76.6737 37.106C76.6047 37.267 76.5358 37.4279 76.4668 37.5888C76.3748 37.5659 76.3058 37.5544 76.2254 37.5314L75.984 37.4739C75.823 37.4394 75.6621 37.4049 75.5012 37.3819C75.1793 37.3245 74.8574 37.267 74.5356 37.221C73.8918 37.129 73.2366 37.0486 72.5929 37.0026C71.2939 36.8991 69.9949 36.8876 68.6959 36.9566C68.0522 36.9911 67.4085 37.0601 66.7647 37.1405C66.6038 37.1635 66.4429 37.1865 66.2819 37.2095C66.121 37.2325 65.9601 37.2555 65.7991 37.29L65.3278 37.3704L64.8565 37.4739C64.6956 37.5084 64.5461 37.5429 64.3852 37.5774C64.2243 37.6118 64.0748 37.6463 63.9139 37.6923C63.6035 37.7843 63.2932 37.8532 62.9828 37.9567C62.362 38.1406 61.7643 38.3705 61.178 38.6004C61.7873 38.4165 62.408 38.2556 63.0288 38.1291C63.3391 38.0602 63.6495 38.0142 63.9714 37.9567C64.1323 37.9337 64.2817 37.9107 64.4427 37.8877C64.6036 37.8647 64.7531 37.8417 64.914 37.8302L65.3853 37.7728L65.8566 37.7383C66.0175 37.7268 66.167 37.7153 66.3279 37.7038C66.4889 37.6923 66.6383 37.6808 66.7992 37.6808C67.4315 37.6578 68.0637 37.6578 68.6959 37.6808C69.9604 37.7268 71.2134 37.8532 72.4434 38.0717C73.0642 38.1751 73.6734 38.3016 74.2827 38.451C74.5816 38.52 74.8919 38.6004 75.1908 38.6924C75.3402 38.7384 75.4897 38.7844 75.6391 38.8303L75.8575 38.8993C75.915 38.9223 75.9725 38.9338 76.03 38.9568L76.007 39.0488C75.9725 39.1867 75.9495 39.3131 75.9265 39.4511L75.8805 39.658L75.869 39.7155C75.7426 39.6925 75.6161 39.658 75.4782 39.635C75.1563 39.566 74.8344 39.5086 74.5126 39.4626C73.8688 39.3591 73.2251 39.2787 72.5814 39.2212C71.2939 39.1062 69.9949 39.0717 68.7074 39.1292C68.0637 39.1637 67.42 39.2097 66.7762 39.2902C66.6153 39.3131 66.4544 39.3361 66.2934 39.3476C66.1325 39.3706 65.9716 39.3936 65.8106 39.4166L65.3393 39.4971L64.868 39.589C64.7071 39.6235 64.5576 39.658 64.3967 39.6925C64.2358 39.727 64.0863 39.7615 63.9254 39.7959C63.615 39.8764 63.3047 39.9569 62.9943 40.0488C62.3735 40.2213 61.7758 40.4397 61.178 40.6696C61.7873 40.4857 62.3965 40.3017 63.0288 40.1753C63.3391 40.0948 63.6495 40.0488 63.9599 39.9914C64.1208 39.9684 64.2703 39.9454 64.4312 39.9109C64.5921 39.8879 64.7416 39.8649 64.9025 39.8419L65.3738 39.7845L65.8451 39.7385C66.006 39.727 66.1555 39.7155 66.3164 39.704C66.4774 39.6925 66.6383 39.681 66.7877 39.6695C67.42 39.635 68.0522 39.635 68.6845 39.6465C69.9489 39.681 71.2134 39.7845 72.4549 39.9914C73.0757 40.0948 73.6964 40.2098 74.3057 40.3477C74.616 40.4167 74.9149 40.4972 75.2138 40.5776C75.3632 40.6236 75.5127 40.6581 75.6621 40.7041C75.8116 40.7501 75.961 40.796 76.0989 40.842L76.6392 41.0259L76.7657 40.4167L76.8346 40.0603L76.8691 39.8879L76.9151 39.7155C76.9496 39.6005 76.9726 39.4856 77.0071 39.3706L77.122 39.0258C77.2944 38.5659 77.4784 38.1176 77.7198 37.6923C77.9497 37.267 78.2141 36.8417 78.49 36.4393L78.7084 36.1404C78.7888 36.0485 78.8578 35.945 78.9268 35.8531C79.0072 35.7611 79.0762 35.6691 79.1567 35.5772C79.1912 35.5312 79.2372 35.4852 79.2716 35.4392L79.3291 35.3703L79.3866 35.3128L79.3751 35.3013C79.674 35.3128 79.9614 35.3013 80.2602 35.2668C80.6166 35.2323 80.9729 35.1518 81.3063 35.0369C81.3983 35.0139 81.4787 34.9794 81.5592 34.9449C81.6397 34.9104 81.7316 34.876 81.8121 34.8415C81.973 34.761 82.1455 34.692 82.2949 34.5886C82.3754 34.5426 82.4558 34.4966 82.5248 34.4506L82.7547 34.3012C82.8352 34.2552 82.9042 34.1977 82.9731 34.1403C83.0421 34.0828 83.1226 34.0368 83.18 33.9678C83.7318 33.508 84.2261 32.9447 84.594 32.301C84.9733 31.6688 85.2147 30.9561 85.3527 30.2433C85.64 29.5766 85.663 28.8294 85.5826 28.1052Z" fill="#9F9C9C"/>
<path d="M63.4542 31.8302C63.937 32.244 64.4657 32.6119 65.029 32.9108C66.1556 33.52 67.4545 33.8994 68.788 33.9223C69.4547 33.9338 70.1214 33.8534 70.7652 33.6809L71.248 33.543C71.4089 33.497 71.5583 33.428 71.7078 33.3706C71.7882 33.3361 71.8572 33.3131 71.9377 33.2786L72.1561 33.1751C72.3055 33.0947 72.455 33.0257 72.5929 32.9452C72.8688 32.7728 73.1447 32.6004 73.3976 32.405L73.593 32.2555C73.6505 32.2095 73.7195 32.1636 73.7769 32.1061L74.1218 31.7727L74.2942 31.6003C74.3517 31.5428 74.3977 31.4853 74.4552 31.4164C74.5586 31.2899 74.6621 31.175 74.7655 31.06C74.869 30.9451 74.9495 30.8071 75.0414 30.6807C75.1334 30.5542 75.2138 30.4163 75.2943 30.2783C75.0069 30.4163 74.7425 30.5772 74.4782 30.7151C74.3402 30.7841 74.2138 30.8531 74.0758 30.9221C74.0068 30.9565 73.9494 30.991 73.8804 31.0255L73.6735 31.1175L73.2711 31.3129C73.1447 31.3704 73.0068 31.4279 72.8688 31.4853C72.7309 31.5428 72.6044 31.6003 72.4665 31.6463C72.3285 31.6922 72.2021 31.7382 72.0641 31.7957C71.5239 31.9681 70.9951 32.1291 70.4433 32.2095C69.903 32.29 69.3627 32.336 68.811 32.336C67.7189 32.313 66.6154 32.1176 65.5233 31.7727C64.9715 31.6003 64.4198 31.4049 63.868 31.175C63.3162 30.9451 62.7644 30.7036 62.2012 30.4278C62.3621 30.7036 62.569 30.9451 62.7759 31.175C62.9829 31.4049 63.2128 31.6233 63.4542 31.8302Z" fill="#9F9C9C"/>
<path d="M47.0146 20.9438C46.6812 24.266 46.4283 27.6916 45.9455 29.1055C45.4627 30.5195 44.5086 30.8068 44.0603 31.4161C43.6119 32.0368 43.4855 31.8414 43.1636 33.2324C42.9567 34.1635 42.336 37.2557 41.8761 39.8767C41.8302 39.9112 41.7842 39.9571 41.7382 40.0031C41.2784 39.9916 40.8416 39.9801 40.4277 39.9801C41.014 37.3017 41.6347 33.9681 41.7957 32.9795C42.0256 31.5655 41.8302 31.692 41.6462 30.9563C41.4623 30.2206 40.6921 29.5998 40.7611 28.1054C40.8416 26.611 41.8991 23.3464 42.8303 20.1392C43.7614 16.932 43.6579 17.5527 43.5775 18.001C43.4855 18.4609 41.8876 26.4616 41.8761 26.9099C41.8646 27.3582 42.4854 27.3812 42.6003 27.0479C42.7153 26.7145 42.7843 26.4501 43.2441 24.7258C43.6924 23.0015 44.796 17.8286 44.8764 17.8746C44.9684 17.9091 43.3705 26.8065 43.2901 27.2318C43.2326 27.6111 43.4855 27.6111 43.5545 27.6226H43.566C43.6234 27.6341 43.8648 27.7376 43.9453 27.3582C44.0373 26.9444 45.8995 18.1045 45.9915 18.093C46.0834 18.093 45.1523 23.2889 44.9224 25.0592C44.6925 26.818 44.6695 27.1053 44.6465 27.4502C44.6235 27.7951 45.2213 28.0135 45.3707 27.5882C45.5202 27.1743 47.0375 19.1506 47.118 18.6908C47.21 18.2309 47.3479 17.6217 47.0146 20.9438Z" fill="#9F9C9C"/>
<path d="M98.0892 27.3698C97.9168 31.0713 95.8016 32.4967 94.2958 33.0485C92.7899 33.6002 92.8359 35.9453 92.537 37.7386C92.376 38.7042 92.0082 40.9917 91.6633 43.2448C91.1001 43.1414 90.5023 43.0379 89.8816 42.9459C90.4104 40.7158 90.9276 38.4398 91.1461 37.4742C91.5369 35.7154 92.4565 33.5543 91.2725 32.4737C90.0885 31.4046 88.6631 29.278 89.8816 25.7834C91.1116 22.2888 93.1577 21.0473 93.8819 20.599C94.4912 20.2197 95.0315 20.3116 95.1924 20.3576C95.3648 20.3806 95.8936 20.5071 96.3189 21.0818C96.8247 21.7486 98.2616 23.6798 98.0892 27.3698Z" fill="#9F9C9C"/>
<path d="M107.193 38.3136C107.17 38.486 107.538 38.4285 107.607 38.4515C107.515 38.1526 107.101 38.3251 107.193 38.3136Z" fill="#9F9C9C"/>
<path d="M106.216 35.4394L106.377 35.4738L105.975 35.083L106.216 35.4394Z" fill="#9F9C9C"/>
<path d="M105.928 32.7607C105.63 32.9332 105.687 33.1746 105.79 33.4275C105.905 33.6804 106.066 33.9678 105.986 34.2206L105.848 34.3126L106.388 34.4735C106.239 33.8988 105.802 33.1976 105.928 32.7607Z" fill="#9F9C9C"/>
<path d="M107.033 31.0947C106.803 31.2326 106.769 30.8188 107.021 31.451C107.044 31.4166 107.056 31.4051 107.067 31.3821C107.056 31.3131 107.033 31.2326 107.033 31.0947Z" fill="#9F9C9C"/>
<path d="M107.066 31.3703C107.135 31.6577 107.239 31.1404 107.066 31.3703V31.3703Z" fill="#9F9C9C"/>
<path d="M106.664 30.0713L106.963 30.4047C107.089 30.3012 107.043 29.9449 107.17 30.0483C106.963 29.692 106.848 29.8069 106.664 30.0713Z" fill="#9F9C9C"/>
<path d="M106.123 29.8184L106.261 29.9908C106.307 29.9448 106.318 29.8873 106.123 29.8184Z" fill="#9F9C9C"/>
<path d="M106.549 30.3591L106.262 29.9912C106.17 30.0717 105.974 30.1177 106.377 30.1636C106.181 30.1751 106.377 30.2096 106.549 30.3591Z" fill="#9F9C9C"/>
<path d="M106.504 30.6113C106.412 30.8527 106.366 31.1401 106.09 30.8067C106.308 31.508 106.734 31.3125 106.504 30.6113Z" fill="#9F9C9C"/>
<path d="M105.251 32.7269C105.205 32.8304 105.159 32.9223 105.102 33.0258L105.343 33.2327C105.228 33.1293 105.458 32.6809 105.251 32.7269Z" fill="#9F9C9C"/>
<path d="M106.387 27.6572C106.249 27.6687 106.077 27.8871 105.916 27.9561L106.146 28.186C106.192 28.0136 106.203 27.7262 106.387 27.6572Z" fill="#9F9C9C"/>
<path d="M105.917 27.9562L105.572 27.6113C105.653 27.9792 105.779 28.0137 105.917 27.9562Z" fill="#9F9C9C"/>
<path d="M105.423 29.9106L106.055 30.4739C105.837 30.244 105.607 30.0141 105.389 29.7842L105.423 29.9106Z" fill="#9F9C9C"/>
<path d="M105.918 26.0823L106.297 26.2087L105.711 25.9443L105.918 26.0823Z" fill="#9F9C9C"/>
<path d="M105.514 25.0591C105.664 25.1051 105.744 25.0016 105.825 24.9097C105.894 24.8177 105.951 24.7372 106.066 24.7947C105.917 24.5303 105.606 24.3694 105.342 24.2314C105.526 24.4269 105.595 24.6798 105.514 25.0591Z" fill="#9F9C9C"/>
<path d="M104.928 23.9902C105.031 24.0822 105.181 24.1512 105.342 24.2431C105.227 24.1397 105.1 24.0592 104.928 23.9902Z" fill="#9F9C9C"/>
<path d="M105.435 26.8987C105.504 26.8413 105.688 26.7148 105.699 26.4619L105.389 26.7378C105.4 26.7838 105.423 26.8413 105.435 26.8987Z" fill="#9F9C9C"/>
<path d="M105.377 26.7489C105.343 26.565 105.308 26.4501 105.297 26.3926C105.308 26.4386 105.331 26.542 105.377 26.7489Z" fill="#9F9C9C"/>
<path d="M105.465 26.9653C105.465 26.9469 105.446 26.9285 105.446 26.9102C105.409 26.9285 105.391 26.9469 105.465 26.9653Z" fill="#9F9C9C"/>
<path d="M105.504 28.7728C105.228 28.5889 104.871 28.1635 104.688 28.7153C104.986 28.8188 105.09 28.4969 105.504 28.7728Z" fill="#9F9C9C"/>
<path d="M105.055 27.2783L105.089 27.7266C105.181 27.6922 105.308 27.5657 105.434 27.6577L105.055 27.2783Z" fill="#9F9C9C"/>
<path d="M104.871 27.1055C104.929 27.1629 104.998 27.2204 105.055 27.2779C105.055 27.2204 105.044 27.1629 105.044 27.1055H104.871Z" fill="#9F9C9C"/>
<path d="M104.871 24.8413C104.641 24.7148 104.549 24.5309 104.445 24.3125C104.468 24.5769 104.526 24.8413 104.618 25.0712C104.744 25.0712 104.986 25.0942 104.871 24.8413Z" fill="#9F9C9C"/>
<path d="M105.131 25.8042C105.112 25.7858 105.094 25.7674 105.076 25.749C105.039 25.8042 105.039 25.841 105.131 25.8042Z" fill="#9F9C9C"/>
<path d="M103.542 22.1514C103.524 22.1882 103.487 22.2249 103.469 22.2617C103.506 22.2433 103.542 22.2433 103.579 22.2249L103.542 22.1514Z" fill="#9F9C9C"/>
<path d="M104.572 25.1403C104.572 25.3472 104.698 25.4161 104.848 25.4851C104.802 25.4276 104.767 25.3587 104.733 25.2897C104.698 25.2207 104.664 25.1518 104.629 25.0713C104.56 25.0828 104.526 25.0943 104.572 25.1403Z" fill="#9F9C9C"/>
<path d="M104.514 23.4385C104.48 23.5649 104.457 23.6914 104.445 23.8293C104.514 23.7029 104.618 23.4385 104.514 23.4385Z" fill="#9F9C9C"/>
<path d="M105.146 25.667C105.165 25.6854 105.183 25.6854 105.183 25.7038C105.275 25.575 105.22 25.5934 105.146 25.667Z" fill="#9F9C9C"/>
<path d="M105.147 25.6453C105.066 25.5648 104.951 25.5304 104.848 25.4844C104.917 25.5878 104.986 25.6798 105.066 25.7488C105.078 25.7143 105.112 25.6798 105.147 25.6453Z" fill="#9F9C9C"/>
<path d="M101.02 22.5879C101.181 22.519 101.399 22.5649 101.549 22.6799C101.687 22.8063 101.767 23.0133 101.687 23.2891C102.089 23.5535 103.043 22.8293 103.48 22.2086C103.33 22.2661 103.204 22.3235 102.836 22.0132C102.733 22.2431 102.825 23.0822 102.388 22.8868C101.986 22.45 102.319 22.404 102.353 22.0821C102.204 22.2776 101.986 22.1971 101.733 22.1051C101.48 22.0132 101.192 21.9327 100.939 22.1281L101.365 22.4615C101.261 22.519 101.031 22.427 101.02 22.5879Z" fill="#9F9C9C"/>
<path d="M103.778 23.0017L103.893 23.1511C103.87 22.9327 103.928 22.7488 104.066 22.3809C103.778 22.174 103.64 22.174 103.525 22.2085L103.847 23.0477L103.778 23.0017Z" fill="#9F9C9C"/>
<path d="M104.215 23.8983C103.801 23.9098 103.502 23.5765 103.215 23.9788C103.433 24.4501 103.64 24.1972 103.916 24.4271C103.514 23.6684 104.203 24.5766 104.18 23.9213C104.307 24.0593 104.376 24.1857 104.445 24.3122C104.433 24.1512 104.433 23.9903 104.445 23.8294C104.445 23.8409 104.433 23.8524 104.433 23.8524C104.433 23.8524 104.433 23.8524 104.422 23.8524C104.387 23.9098 104.364 23.9328 104.376 23.8753L104.364 23.8639C104.318 23.8983 104.272 23.8983 104.215 23.8983C104.203 23.6339 104.295 23.8179 104.364 23.8753C104.387 23.8753 104.399 23.8753 104.422 23.8639L104.169 23.496L103.893 23.1396C103.928 23.3351 104.031 23.542 104.215 23.8983Z" fill="#9F9C9C"/>
<path d="M103.782 28.5534C103.814 28.5042 103.864 28.5042 103.897 28.4878C103.798 28.4221 103.749 28.4056 103.782 28.5534Z" fill="#9F9C9C"/>
<path d="M103.905 28.1285C103.974 28.1744 104.135 28.1744 104.147 28.3814C104.078 28.5768 103.974 28.4273 103.848 28.4733C103.974 28.5538 104.227 28.7952 104.307 28.3928L104.238 28.3469C104.273 27.9905 104.618 27.4387 104.675 27.4732C104.376 27.6571 104.17 27.8181 103.905 28.1285Z" fill="#9F9C9C"/>
<path d="M104.02 26.048C103.882 25.8525 103.755 25.6456 103.606 25.4502C103.548 25.5996 103.491 25.7491 103.422 25.8985L103.606 25.818C103.652 26.2089 103.859 26.048 104.02 26.048Z" fill="#9F9C9C"/>
<path d="M103.653 22.0016L104.055 21.9211C103.825 21.8752 103.595 21.8292 103.365 21.7832L103.653 22.0016Z" fill="#9F9C9C"/>
<path d="M103.193 21.1738L103.527 21.0473L103.228 20.9209L103.193 21.1738Z" fill="#9F9C9C"/>
<path d="M59.7178 5.49414L59.5684 5.64358C59.6373 5.5861 59.6833 5.54012 59.7178 5.49414Z" fill="#9F9C9C"/>
<path d="M61.0383 5.19587L61.0268 5.02344C60.9923 5.1269 60.9808 5.19587 61.0383 5.19587Z" fill="#9F9C9C"/>
<path d="M87.4896 4.81578C87.4321 4.59737 87.3976 4.33297 87.3401 4.16054C87.2941 3.99961 87.2367 3.94213 87.1562 4.12606L87.0527 4.5054C87.2826 4.55138 87.3976 4.67783 87.4896 4.81578Z" fill="#9F9C9C"/>
<path d="M72.3164 2.43618C72.3394 2.47067 72.3624 2.51665 72.3854 2.56263C72.4658 2.43618 72.5463 2.32123 72.6153 2.21777C72.5348 2.27525 72.4314 2.34422 72.3164 2.43618Z" fill="#9F9C9C"/>
<path d="M71.9718 4.01124L71.627 3.73535C71.6959 3.82731 71.8109 3.91928 71.9718 4.01124Z" fill="#9F9C9C"/>
<path d="M53.0037 8.58691L52.9922 9.03523C53.3026 8.8743 53.0727 8.77084 53.0037 8.58691Z" fill="#9F9C9C"/>
<path d="M97.7546 13.3115C97.6972 13.0126 97.6052 12.8057 97.4902 12.6562C97.5477 13.0471 97.4558 13.4609 97.7546 13.3115Z" fill="#9F9C9C"/>
<path d="M59.2116 1.37891C59.1081 1.48236 59.0737 1.57433 59.0967 1.65479C59.2001 1.55134 59.2576 1.45937 59.2116 1.37891Z" fill="#9F9C9C"/>
<path d="M96.9727 12.0928C96.9727 12.1503 96.9957 12.1962 97.0071 12.2537C97.1911 12.3457 97.3635 12.4606 97.5014 12.656C97.467 12.3572 97.352 12.0928 96.9727 12.0928Z" fill="#9F9C9C"/>
<path d="M36.174 28.4854C36.1372 28.5037 36.1188 28.5405 36.082 28.5589C36.1556 28.5957 36.174 28.5589 36.174 28.4854Z" fill="#9F9C9C"/>
<path d="M30.8526 35.9228C30.8296 35.8308 30.8411 35.6929 30.8526 35.5664C30.8181 35.6239 30.8066 35.7273 30.8526 35.9228Z" fill="#9F9C9C"/>
<path d="M101.48 17.8057C101.572 17.8057 101.701 18.0448 101.48 17.8057V17.8057Z" fill="#9F9C9C"/>
<path d="M93.9152 12.41L93.8968 12.3916C93.8785 12.5387 93.8785 12.5203 93.9152 12.41Z" fill="#9F9C9C"/>
<path d="M101.492 18.1509C101.492 18.0589 101.48 17.967 101.457 17.875C101.457 17.921 101.469 18.0129 101.492 18.1509Z" fill="#9F9C9C"/>
<path d="M101.629 18.0127C101.652 18.0817 101.675 18.1276 101.686 18.1851C101.755 18.1736 101.778 18.1276 101.629 18.0127Z" fill="#9F9C9C"/>
<path d="M101.318 17.5762C101.387 17.6681 101.422 17.7716 101.456 17.8751C101.456 17.8291 101.468 17.8061 101.479 17.8061C101.445 17.7601 101.399 17.6911 101.318 17.5762Z" fill="#9F9C9C"/>
<path d="M42.3368 15.3115C42.3253 15.3115 42.3023 15.323 42.2793 15.3115C42.2908 15.5644 42.3138 15.484 42.3368 15.3115Z" fill="#9F9C9C"/>
<path d="M81.3398 6.36572C81.3582 6.36572 81.3582 6.34733 81.3766 6.34733C81.3582 6.32894 81.3582 6.32894 81.3398 6.31055V6.36572Z" fill="#9F9C9C"/>
<path d="M80.6504 6.37933C81.0757 6.02297 81.2022 6.13793 81.3516 6.31036C81.4206 5.94251 81.4895 5.56316 81.5585 5.19531C81.2481 5.58615 80.9378 5.98849 80.6504 6.37933Z" fill="#9F9C9C"/>
<path d="M56.6604 6.60944C56.8443 6.66692 57.0167 6.7129 57.1891 6.77038C56.8903 7.49458 56.4879 7.4486 57.0282 7.75898C56.8443 7.18421 57.2236 6.98879 57.6145 6.82785C58.0053 6.66692 58.3962 6.49449 58.2467 5.90823L58.6031 6.05767C58.5226 6.06916 58.5341 6.14963 58.4421 6.16112C58.7985 6.34505 58.833 6.11514 58.879 5.81626C58.9249 5.52888 58.9709 5.17252 59.3618 5.16103C59.6377 5.18402 59.8561 5.29897 59.7181 5.4829C59.8791 5.33346 60.0285 5.18402 60.1894 5.03458C60.3619 5.02309 60.3734 5.23 60.2009 5.25299L61.0286 4.96561V5.00009C61.1091 4.78168 61.316 4.43682 61.4309 4.28738C61.6838 4.40234 61.3505 4.43682 61.4309 4.57477C61.5689 4.44832 61.7068 4.31037 61.8563 4.18393C61.9827 4.32187 61.9597 4.4828 61.8678 4.60925C61.7758 4.7357 61.6034 4.85066 61.4424 4.86215C61.6149 5.12654 61.7183 5.2415 61.7988 5.26449C61.8792 5.28748 61.9367 5.21851 61.9942 5.13804C62.1321 4.9771 62.3161 4.7357 62.8563 5.00009L62.4425 5.23C62.8563 5.85075 63.1437 5.55187 63.707 5.88524C63.638 5.78178 63.3506 5.56337 63.1322 5.32196C62.9138 5.08056 62.7644 4.80467 63.0058 4.60925C63.0863 4.64374 63.1782 4.65523 63.2702 4.63224C63.3736 4.60925 63.4771 4.52879 63.6035 4.39084C63.6725 4.81617 63.9254 4.67823 64.2703 4.60925L64.3163 5.17252C64.6611 4.96561 64.5921 4.67823 64.7876 4.39084C64.9945 4.39084 65.1324 4.5058 65.2359 4.65523C65.3393 4.80467 65.4083 5.01159 65.4658 5.19552C65.7992 5.21851 65.6727 5.04608 65.5463 4.85066C65.4313 4.65523 65.3163 4.43682 65.7072 4.35636C65.9946 4.44832 66.2245 4.42533 66.4659 4.33336C66.7073 4.2414 66.9602 4.06897 67.2935 3.89654C67.6959 4.08047 67.2361 4.2414 67.3855 4.40234L67.7189 3.94252C67.7993 3.95402 67.7763 4.09196 67.7649 4.16093C68.0522 3.97701 67.7763 3.58617 68.2362 3.42523C68.2706 3.2643 68.3396 3.24131 68.4431 3.28729C68.5006 3.31028 68.558 3.34477 68.6155 3.39075C68.6845 3.43673 68.7535 3.49421 68.8224 3.55168C69.1213 3.78159 69.4547 4 69.7535 3.64365C69.8915 3.80458 69.6731 3.9885 69.7076 4.21841C70.0984 3.9885 70.2708 3.90804 70.4318 3.81607C70.5927 3.71262 70.7306 3.60916 71.0755 3.31028L71.6043 3.72411C71.2364 3.2643 71.7882 2.80449 72.3055 2.42514C72.1791 2.20673 72.0641 2.0228 71.9836 1.93084C72.248 1.85037 72.5124 1.75841 72.7768 1.70093C72.8573 1.80439 72.7653 1.98832 72.6159 2.20673C72.6734 2.16075 72.7308 2.12626 72.7653 2.09177C73.0067 2.33318 72.8343 2.64355 72.6044 2.94243C72.5239 2.81598 72.4549 2.68953 72.3745 2.56308C72.1561 2.89645 71.9492 3.2643 71.9607 3.59766C72.0181 3.54019 72.1101 3.48271 72.2136 3.45972C72.1561 3.55168 72.1216 3.63215 72.1331 3.68963C72.1561 3.7471 72.2365 3.63215 72.3745 3.49421L72.4664 4.14944L72.5354 3.90804L73.4206 4.42533C73.6045 4.28738 73.7999 4.12645 73.9838 3.97701C74.1792 3.81607 74.3747 3.66664 74.5816 3.52869C75.0069 3.2528 75.4782 3.0229 76.053 2.99991C75.6851 3.40224 75.8461 3.73561 75.7196 4.27589C75.6392 3.96551 75.4092 3.98851 75.1563 4.06897C74.892 4.14944 74.5931 4.27589 74.3287 4.16093C74.6046 4.27589 74.5011 4.51729 74.4092 4.59776C74.754 4.4828 75.1104 4.36785 75.4782 4.2529C75.4207 4.47131 75.4552 4.56327 75.5357 4.63224C75.5702 4.66673 75.6162 4.68972 75.6736 4.72421C75.7196 4.75869 75.7771 4.80467 75.8346 4.86215C75.8231 3.94252 76.6737 4.44832 77.145 4.27589C77.0991 4.57477 76.9266 4.85066 76.4668 4.66673C76.6507 5.05757 76.8807 4.83916 77.1221 4.60925C77.237 4.4943 77.3635 4.37935 77.4784 4.33336C77.5934 4.28738 77.6968 4.32187 77.7888 4.4943C77.6738 4.47131 77.6164 4.40234 77.5359 4.54028C77.8807 4.35636 78.49 4.75869 78.2601 4.96561L78.1451 4.94262C78.513 5.10355 79.0993 5.25299 79.628 5.33346C80.1568 5.40243 80.6511 5.33346 80.835 5.00009C80.8121 5.09206 80.4212 5.82776 80.3293 5.95421C80.5132 5.79327 80.6971 5.62084 80.881 5.4714C81.0649 5.31047 81.2489 5.16103 81.4443 5.01159C81.8236 4.70122 82.2145 4.40234 82.6053 4.09196C82.4214 4.36785 82.3064 4.91963 82.134 5.40243C81.9616 5.88524 81.7317 6.31056 81.3638 6.36804C81.5018 6.52898 81.6742 6.7129 82.134 6.64393C82.0536 6.51748 82.1915 5.65533 82.3869 5.66682C82.4789 6.09215 82.5134 6.2186 82.5708 6.33355C82.6283 6.44851 82.7088 6.56346 82.8467 6.9658C82.7318 6.75888 83.341 5.90823 83.6169 6.06916C83.5135 6.18411 83.2146 7.00028 83.0766 7.04627C83.4445 6.85084 83.8238 6.64393 84.2032 6.46C83.9503 6.54047 83.8008 7.2072 83.8353 7.54057C83.8468 7.33365 84.4101 7.85094 84.6285 7.86244L84.4446 7.50608C84.7894 7.77047 85.1458 7.55206 85.5136 7.33365C85.8815 7.11524 86.2493 6.89683 86.6172 7.13823C86.4218 7.26468 85.7665 8.11533 86.0769 8.4487C86.2953 8.27627 86.7896 7.85094 87.3644 7.48309C87.6518 7.29916 87.9507 7.13823 88.238 7.02327C88.5254 6.90832 88.8013 6.85084 89.0197 6.88533L88.9967 7.2187L89.7094 7.27617C89.3301 7.49458 88.6864 7.79346 88.0541 8.08085C87.4219 8.36823 86.8011 8.63262 86.3873 8.77057C86.4678 8.95449 86.4448 9.03496 86.4448 9.10393C86.4563 9.1729 86.4908 9.21889 86.6977 9.33384C86.6977 9.49477 86.5827 9.55225 86.4678 9.55225C86.4103 9.55225 86.3413 9.54076 86.2838 9.52926C86.2264 9.51776 86.1689 9.50627 86.1459 9.48328L86.2493 9.57524L86.3528 9.6672L86.5597 9.85113L86.9736 10.219C87.1115 9.95459 87.3759 9.94309 87.6288 9.94309C87.7552 9.94309 87.8817 9.94309 87.9966 9.9201C88.1001 9.89711 88.1921 9.85113 88.261 9.73618C88.1461 9.71318 88.0311 9.70169 87.9162 9.6902L87.5713 9.65571L86.8931 9.58674C87.031 9.32234 87.4104 9.05795 87.8242 8.92001C88.2495 8.79356 88.7323 8.79356 89.0312 9.08094C89.0657 9.39132 88.2955 9.87412 88.2036 10.0465C88.399 9.9316 89.0427 10.1615 89.0197 10.3224L88.5599 10.3914C88.6749 10.6098 88.9393 10.5523 89.1807 10.5408C89.3071 10.5294 89.4221 10.5408 89.5255 10.5868C89.6175 10.6443 89.6865 10.7478 89.6979 10.9432C89.8244 11.0926 89.652 11.8858 89.8934 11.6329C90.0888 10.9202 91.3303 9.19589 91.8131 8.9315C91.8246 8.96599 91.928 9.26487 92.02 9.58674C92.066 9.74767 92.112 9.9201 92.135 10.081C92.1579 10.242 92.1694 10.3799 92.158 10.4834C92.1005 10.7937 91.8131 10.9547 91.5142 11.1156C91.2268 11.2766 90.9394 11.426 90.8935 11.6904C91.0084 11.5754 91.2613 11.5294 91.3533 11.518C91.4108 11.7479 90.9624 11.8513 91.3303 12.0697C91.7786 11.6559 91.951 12.6675 91.8131 11.8168C92.0315 11.8858 92.089 11.9893 92.1465 12.1042C92.1809 12.1617 92.2039 12.2192 92.2499 12.2881C92.2959 12.3571 92.3534 12.4261 92.4453 12.5066C92.5258 12.3111 92.8247 12.1387 93.1695 12.0352C93.5144 11.9433 93.8937 11.9203 94.1122 12.0008C93.9857 12.0927 93.9167 12.3111 93.8823 12.4031C94.0317 12.564 94.1581 12.7135 94.2616 12.8629C94.3651 13.0123 94.4455 13.1618 94.5375 13.3112C94.7099 13.5986 94.8823 13.886 95.1582 14.1734C95.1237 14.2538 95.1467 14.3918 95.1352 14.5182C95.1237 14.6447 95.0778 14.7596 94.9283 14.7826C95.0778 14.7941 95.3077 14.7366 95.4801 14.9206C95.3996 15.6333 95.0548 14.5642 94.8249 15.2539C95.1123 15.047 95.6066 15.4149 96.0089 15.5298C96.3537 15.093 95.5491 14.8401 95.1582 14.7252C95.4341 14.4723 95.825 14.3343 96.2503 14.3113C96.6756 14.2883 97.1354 14.3918 97.5608 14.6217C98.147 15.047 97.3768 15.162 97.5263 15.1965C97.8826 15.7482 98.308 15.7597 98.6873 15.7942C99.0666 15.8172 99.377 15.8862 99.4805 16.4954C99.3425 17.1277 98.7103 17.0587 98.4919 17.3461C98.0206 17.0012 98.2505 16.4609 97.9861 16.1736C98.0206 16.346 98.0666 16.5069 98.0895 16.6794C97.9746 16.6564 97.8366 16.5874 97.7217 16.4954C97.6067 16.4035 97.5263 16.2885 97.5148 16.1736C97.4803 16.3115 97.5493 16.4839 97.6642 16.6909C97.7217 16.7943 97.7907 16.9093 97.8596 17.0242C97.9401 17.1392 98.0206 17.2656 98.101 17.3921C98.2735 17.645 98.4574 17.9209 98.6183 18.1967C98.7678 18.4726 98.8827 18.7485 98.9287 19.0129C99.1586 19.0704 99.4575 19.2428 99.5494 19.0129L99.3195 18.783C99.492 18.3232 100.09 19.0014 100.032 18.5646C100.262 18.6681 100.538 18.7715 100.768 18.921C100.998 19.0704 101.17 19.2888 101.239 19.6107L100.825 19.9785C100.963 19.8866 100.906 19.4727 100.676 19.4153C100.848 19.4612 100.802 19.7601 100.802 20.0245C100.814 20.2889 100.871 20.5188 101.251 20.4728L101.366 19.921C101.596 20.036 101.906 20.151 102.17 20.3004C102.435 20.4498 102.642 20.6567 102.699 20.9326C103.067 20.4613 102.584 20.8522 102.964 20.2084C102.826 20.3809 102.722 20.3809 102.63 20.3119C102.584 20.2774 102.538 20.2199 102.504 20.151C102.458 20.082 102.423 20.013 102.377 19.944C102.216 19.6567 102.067 19.4038 101.837 19.8406C102.055 19.4842 102.032 19.3003 101.998 19.0934C101.963 18.898 101.894 18.691 102.032 18.3002C101.963 18.3577 101.906 18.4381 101.86 18.4496C101.837 18.4611 101.803 18.4496 101.78 18.4037C101.745 18.3692 101.711 18.3002 101.665 18.1852C101.607 18.1967 101.527 18.1852 101.469 18.1852C101.435 18.1852 101.435 18.1853 101.469 18.1967C101.458 18.3347 101.435 18.4611 101.366 18.5416C100.894 18.5646 100.504 17.9438 100.193 17.8634C100.124 17.5875 100.423 17.8404 100.504 17.6105L100.044 17.484C100.124 17.4151 100.17 17.3231 100.205 17.2311C100.239 17.1392 100.262 17.0357 100.297 16.9552C100.366 16.7943 100.458 16.7138 100.745 16.9093C100.642 16.7483 100.527 16.5874 100.423 16.415C100.412 16.0011 100.205 15.5643 99.8943 15.4264C99.8713 15.3574 99.8138 15.2999 99.7449 15.2654C99.6759 15.2309 99.5954 15.1965 99.5265 15.185C99.3885 15.1505 99.3195 15.1505 99.5265 15.1505L98.7678 14.5757L98.8367 14.5067C98.7103 14.3228 98.5379 14.1619 98.3539 14.0124C98.17 13.863 97.9631 13.7251 97.7792 13.5756C97.5952 13.4262 97.4228 13.2537 97.2849 13.0353C97.2159 12.9319 97.1584 12.8169 97.1124 12.6905C97.0665 12.564 97.0205 12.4261 96.9975 12.2766C96.7101 12.1272 96.4112 11.9778 96.1353 11.5409L96.3078 11.2306C96.1353 11.1271 95.9744 10.8627 95.825 10.6328C95.6755 10.4029 95.5146 10.219 95.3307 10.2994C95.4916 9.81664 95.1812 9.4373 94.7559 9.13842C94.3306 8.82804 93.8248 8.57515 93.6179 8.28776L93.3075 8.62113C92.9511 8.31075 92.5143 8.12683 91.9395 7.90842L91.7211 8.25328C91.5717 8.24178 91.4452 8.17281 91.3303 8.06935C91.2038 7.96589 91.1004 7.83944 90.9854 7.69001C90.7555 7.39113 90.5141 7.04627 90.1808 6.83935C90.3072 6.74739 90.4566 6.89683 90.5141 7.05776C90.3877 6.40253 89.8589 6.26458 89.3416 6.17262C89.0772 6.12664 88.8243 6.08066 88.6059 5.98869C88.5024 5.94271 88.399 5.88524 88.307 5.81626C88.215 5.7358 88.1461 5.64383 88.1001 5.51739C87.8357 5.54038 87.7322 5.41393 87.6518 5.25299C87.6748 5.26449 87.6863 5.26449 87.7093 5.26449C87.6978 5.25299 87.6633 5.23 87.6403 5.21851C87.5943 5.11505 87.5483 4.9886 87.4793 4.88514C87.5138 5.01159 87.5483 5.12654 87.5943 5.19552C87.4449 5.11505 87.2035 5.03458 86.9391 5.00009L87.054 4.57477C87.031 4.57477 87.0195 4.56327 86.9965 4.56327C86.8586 4.31037 86.7322 4.65523 86.6862 5.00009C86.5482 5.01159 86.3988 5.03458 86.2723 5.08056C86.3528 4.72421 86.1804 4.71271 85.9964 4.67823C85.824 4.64374 85.6401 4.60925 85.6861 4.21841C85.5366 4.34486 85.2263 4.2529 84.9044 4.2414C84.5825 4.21841 84.2377 4.2529 84.0193 4.57477C84.0537 4.4828 84.0078 4.41383 84.1227 4.45981C83.9158 4.27589 83.6974 4.08047 83.3985 4.17243L83.5135 3.62065C83.2376 3.77009 82.9617 3.93103 82.6858 4.08047C82.4789 3.64364 82.4099 3.40224 82.9042 3.14935C82.3754 3.28729 82.203 3.28729 82.0306 3.27579C81.8581 3.27579 81.7087 3.2643 81.2604 3.45972L81.4098 3.13785C81.1569 3.06888 80.6051 3.37925 80.5592 3.05738C80.4787 2.85047 80.2603 2.68953 79.9729 2.5286C79.674 2.39065 79.3062 2.2757 78.9038 2.14925C78.6969 2.09177 78.49 2.0228 78.2831 1.95383C78.0762 1.88486 77.8578 1.82738 77.6508 1.75841C77.237 1.62046 76.8347 1.43654 76.4898 1.20663C76.5243 1.74691 76.3864 1.58598 76.1909 1.41355C76.007 1.22962 75.7771 1.01121 75.6736 1.40205C75.6277 1.14916 75.4437 0.965231 75.7311 0.804296C75.3288 0.850277 75.0529 0.712333 74.8 0.62037C74.5471 0.528408 74.3057 0.516912 73.9953 0.815791C73.9378 0.562894 74.2137 0.482426 74.1563 0.321491C74.0873 0.367473 73.8804 0.505417 73.8229 0.344482C73.7654 0.183547 73.9608 0.149061 74.0988 0.0685939C73.2941 0.0111172 73.1217 0.746819 72.9837 1.44803C72.8113 1.25261 72.6619 1.16065 72.5354 1.18364C72.3975 1.20663 72.271 1.32159 72.0986 1.54C71.9836 1.2986 71.7767 1.0342 72.271 0.988221C72.1331 0.965231 71.7307 0.838782 71.3399 0.804296C70.9491 0.76981 70.5927 0.804296 70.5697 1.09168C70.4893 0.94224 70.1904 1.0342 70.1214 1.10317C69.5121 1.05719 69.4547 0.999717 68.8569 1.0457L69.0178 1.13766C68.7764 1.81589 68.5235 1.2871 68.0407 1.37906L68.0522 1.31009C67.5005 1.08018 67.374 1.13766 67.2591 1.19514C67.2016 1.21813 67.1441 1.24112 67.0291 1.22962C66.9717 1.21813 66.9027 1.20663 66.8107 1.17215C66.7188 1.14916 66.6038 1.10317 66.4659 1.0457L66.5464 1.47103C66.5234 1.93084 66.282 1.81589 65.9601 1.63196C65.6382 1.44803 65.2359 1.20663 64.937 1.40205L65.1899 1.63196C65.1094 1.71243 65.006 1.67794 64.8795 1.59747C64.7531 1.50551 64.6151 1.35607 64.4772 1.18364C64.1898 0.850277 63.8909 0.459436 63.707 0.42495C63.615 0.355977 63.8105 0.287005 63.9139 0.206538C62.9138 -0.207294 63.8679 0.781305 63.2012 0.999717C63.0288 0.723828 63.2587 0.218033 62.7759 0.229529C62.6379 0.126071 62.3391 0.436445 61.9942 0.700838C61.8218 0.838782 61.6263 0.96523 61.4424 1.02271C61.2585 1.09168 61.0631 1.08018 60.8791 0.976726C60.9711 1.08018 61.0631 1.17215 61.0976 1.2756C61.132 1.37906 61.1091 1.48252 60.9711 1.60897C60.7412 1.70093 60.3734 1.56299 60.0285 1.50551C59.6836 1.44803 59.3503 1.45953 59.2238 1.87336C59.1434 1.82738 59.1089 1.7814 59.0974 1.72392C58.787 2.01131 58.0053 2.35617 57.9134 2.80449C57.534 2.13776 57.0282 2.49411 56.5799 2.85047C56.3615 3.0229 56.1546 3.20682 55.9706 3.2528C55.8787 3.27579 55.7982 3.27579 55.7177 3.22981C55.6373 3.18383 55.5798 3.08037 55.5108 2.91944L54.4648 3.41374L54.4418 3.27579C54.2578 3.32178 54.1199 3.37925 54.0049 3.44822C53.89 3.5172 53.8095 3.60916 53.7405 3.68963C53.6141 3.87355 53.5566 4.06897 53.5106 4.27589C53.3152 4.26439 53.3842 4.09196 53.3612 4.02299C52.8209 4.11495 52.522 4.19542 52.3036 4.36785C52.0852 4.55178 51.9473 4.82766 51.7059 5.33346L51.4185 4.9886C51.3955 5.06907 51.2805 5.12654 51.0966 5.16103C50.9242 5.20701 50.6828 5.23 50.4414 5.28748C49.9471 5.40243 49.3723 5.60935 49.0505 6.10365C49.0275 6.05767 49.0045 5.9657 49.0505 5.87374C48.8665 6.13813 48.5791 6.31056 48.2688 6.42552C47.9584 6.55197 47.6135 6.63243 47.3032 6.7244C46.6939 6.94281 46.2456 7.23019 46.5445 8.00038L46.3491 8.39122C46.2801 8.51767 46.2226 8.65561 46.1651 8.78206C46.2686 8.71309 46.3605 8.6786 46.4295 8.66711C46.4985 8.65561 46.556 8.65561 46.5905 8.6786C46.6709 8.71309 46.6939 8.81655 46.7054 8.92001C46.7284 9.13842 46.7169 9.41431 46.9583 9.40281C46.7169 9.71319 45.8777 9.63272 46.1996 9.27636L46.3031 9.29935C45.9352 8.52917 45.1535 9.82814 44.8087 9.36832C44.4408 9.69019 44.05 10.0006 43.6591 10.2994C43.5557 10.3684 43.4637 10.4489 43.3603 10.5179C43.2568 10.5868 43.1648 10.6673 43.0729 10.7363C42.8775 10.8857 42.682 11.0351 42.4866 11.1731C42.2912 11.3225 42.0958 11.4605 41.9004 11.6099C41.7164 11.7594 41.5325 11.9203 41.3486 12.0697C41.1647 12.2307 40.9922 12.3801 40.8083 12.541C40.6359 12.702 40.4634 12.8629 40.3025 13.0468L40.9233 13.3227L40.4749 13.7825C40.245 13.8055 39.9347 13.6216 40.268 13.2882C39.8312 13.2308 39.9921 14.0814 40.0956 14.1849C39.7047 14.4378 39.6128 14.2538 39.6013 14.0239C39.5898 13.794 39.6588 13.5181 39.5553 13.6216L39.3369 13.9435L39.4519 13.932C39.4519 14.1389 39.4978 14.2883 39.5093 14.4378C39.5208 14.5872 39.4748 14.7481 39.2909 14.9551C38.969 15.1505 38.8656 14.8516 38.7621 14.9436C38.7276 14.9091 38.6817 14.9436 38.6127 15.1045C38.4288 15.3114 38.2448 15.5183 38.0609 15.7252C38.2563 15.7367 38.4747 15.7597 38.6702 15.7712C38.6702 15.8862 38.6357 15.9667 38.6012 16.0471C38.5667 16.1276 38.5322 16.1851 38.5207 16.2425C38.4862 16.346 38.5437 16.392 38.8886 16.415C38.3713 16.369 37.854 16.9438 37.4402 17.5415C37.0378 18.1623 36.7275 18.7945 36.509 18.8635C36.5665 19.4957 36.3251 19.921 35.9803 20.4268C36.1527 20.3464 36.7045 20.5533 36.3826 20.9671C35.8998 20.5993 35.6814 20.7487 35.4515 21.0016C35.2216 21.243 35.0032 21.5879 34.5204 21.5879C34.6928 21.5649 34.7388 21.6453 34.7388 21.7718C34.7388 21.8293 34.7158 21.9097 34.6928 21.9902C34.6698 22.0707 34.6468 22.1626 34.6238 22.2431C34.5318 22.5995 34.4859 22.9328 34.9802 22.8294C34.7158 23.1972 34.5663 22.6684 34.164 22.8524C34.164 23.1397 34.0835 23.4156 33.9571 23.68C33.8881 23.8065 33.8306 23.9444 33.7617 24.0824C33.6927 24.2203 33.6122 24.3468 33.5203 24.4847C33.3593 24.7491 33.1754 25.025 33.0145 25.3124C32.934 25.4503 32.8765 25.6112 32.8075 25.7607C32.7501 25.9101 32.7041 26.0711 32.6696 26.232C32.8075 26.301 33.1064 26.1745 33.2444 26.5079C32.9225 26.6458 32.6006 26.7838 32.2788 26.9217C32.2673 27.1976 33.0719 27.416 32.4167 27.7149C32.5661 27.6919 32.7846 27.6459 32.7846 27.8298C32.6006 28.1057 32.4627 28.4046 32.3362 28.7035C32.2788 28.8529 32.2098 29.0024 32.1638 29.1633C32.1178 29.3242 32.0833 29.4737 32.0374 29.6346C31.8879 30.2783 31.7845 30.9221 31.7155 31.5888C31.681 31.9222 31.635 32.244 31.5661 32.5659L31.5201 32.8073C31.5086 32.8878 31.4971 32.9683 31.4741 33.0487C31.4396 33.2097 31.4051 33.3706 31.3706 33.5315C31.2902 33.8534 31.1752 34.1753 31.0373 34.4856C30.9683 34.6466 30.8993 34.8075 30.8189 34.957C30.7384 35.1179 30.6464 35.2788 30.543 35.4283C30.8763 35.0949 30.8878 35.3363 30.8763 35.6122C30.9568 35.4398 31.2672 35.6467 31.4741 35.6237L31.1407 36.141L30.9683 36.4054C30.9108 36.4973 30.8533 36.5778 30.8074 36.6698C31.0947 36.7847 31.1062 37.0721 31.1062 37.3595C31.1062 37.6469 31.1062 37.9113 31.3821 37.9687L31.2902 37.6239C31.612 37.8653 31.9914 37.7043 32.3937 37.5089C32.7961 37.3135 33.2099 37.0836 33.6467 37.1296C33.4628 37.0031 33.4398 36.8652 33.4973 36.7042C33.5547 36.5548 33.7042 36.3939 33.8306 36.2214C34.095 35.8766 34.3249 35.5202 33.8191 35.0719C34.0031 34.911 34.0835 35.2443 34.2904 35.1754C33.9341 34.9455 33.8881 34.6926 34.118 34.2672L34.1985 34.3247C34.256 33.0717 34.7158 32.6004 35.2101 31.2899L34.7732 31.3014C34.8997 31.0255 35.0376 30.9911 35.1756 30.8761C34.6238 30.4048 34.9457 31.6808 34.3249 31.2325C34.7962 31.129 34.9112 30.6117 35.0491 30.1174C35.0836 29.991 35.1181 29.876 35.1526 29.7611C35.1986 29.6461 35.2446 29.5426 35.3135 29.4507C35.44 29.2783 35.6124 29.1518 35.8653 29.1633C35.9918 28.7265 35.3595 29.1633 35.486 28.715L35.7733 28.669L35.4745 28.4621C35.5434 28.3241 35.6699 28.2437 35.7963 28.2092C35.9343 28.1747 36.0837 28.1747 36.1872 28.1977C36.1412 28.2552 36.1872 28.4161 36.1872 28.4966C36.2332 28.4621 36.2791 28.4161 36.3136 28.3701C36.3481 28.3241 36.3826 28.2667 36.3941 28.2092C36.4401 28.0942 36.4631 27.9678 36.4746 27.8528C36.4975 27.6114 36.4976 27.3815 36.5665 27.3355L36.2676 27.6919C36.3136 27.3815 36.3941 27.0597 36.4861 26.7378C36.5895 26.4159 36.7275 26.1055 36.8424 25.7837C36.8999 25.6227 36.9574 25.4618 37.0148 25.3009C37.0378 25.2204 37.0608 25.1399 37.0953 25.0595C37.1183 24.979 37.1528 24.8985 37.1758 24.8181C37.2677 24.4962 37.3252 24.1743 37.3367 23.841H37.1183C37.1298 23.5881 37.1643 23.4271 37.2218 23.3122C37.2792 23.1972 37.3597 23.1282 37.4402 23.0593C37.6011 22.9213 37.785 22.7834 37.946 22.2891L37.969 22.3466C37.8885 22.0707 37.9115 21.7718 38.0839 21.5419C38.1644 21.8753 38.7276 21.3465 38.7851 21.7603C38.8656 21.2315 38.8541 21.0821 38.7966 20.9556C38.7391 20.8177 38.6127 20.7027 38.4633 20.2199C38.5897 20.2314 38.7047 20.2429 38.8196 20.2544C38.6932 19.9096 38.5667 19.8061 38.7736 19.3233C38.7736 19.5762 38.9346 19.5762 39.084 19.5877C39.2449 19.5992 39.4059 19.6222 39.4404 19.921C39.7392 19.7946 39.9002 19.6222 39.9921 19.4382C40.0381 19.3463 40.0726 19.2543 40.0956 19.1624C40.1186 19.0704 40.1416 18.9784 40.1531 18.898C40.222 18.5531 40.291 18.2887 40.8658 18.4037C40.406 17.461 39.9117 18.8635 39.9117 18.5301C39.5323 18.5531 39.5898 17.8059 39.8657 17.576C39.9806 17.4381 40.3025 17.4955 40.6474 17.484C41.0037 17.484 41.4061 17.4495 41.659 17.1047C41.6015 17.1737 41.659 17.2196 41.6015 17.2771C41.7969 17.2196 41.8314 17.0472 41.8774 16.8863C41.9348 16.7138 42.0038 16.5529 42.2797 16.5184C42.0038 16.0011 42.6361 16.1506 42.1418 15.6448L41.9463 16.0011C41.8774 16.1161 41.8084 16.231 41.7509 16.3575C41.7854 16.2425 41.7854 16.1046 41.7854 15.9552C41.7854 15.8057 41.7854 15.6448 41.7969 15.4953C41.8314 15.185 41.9463 14.8861 42.3372 14.7366C42.4061 14.8746 42.3947 15.1735 42.3832 15.3574C42.682 15.3344 42.5556 14.9436 42.866 14.9206C43.1074 15.185 42.9809 15.3919 42.797 15.6218C42.6246 15.8517 42.3947 16.1046 42.4406 16.4609C42.82 16.4839 42.6361 15.4494 43.0614 16.1276C42.8085 15.6793 42.9694 15.5413 43.1648 15.4034C43.2683 15.3344 43.3833 15.2654 43.4637 15.162C43.5442 15.0585 43.5902 14.9091 43.5557 14.6677L43.8316 14.9895C43.8431 14.8746 43.8316 14.5987 43.958 14.4838L44.1419 15.0815C44.1305 14.7481 44.3604 14.6562 44.6018 14.5872C44.8432 14.5182 45.1076 14.4838 45.1765 14.2423C44.8432 14.5642 44.7167 14.5067 44.6133 14.3803C44.5098 14.2538 44.4178 14.0469 44.1649 14.0814C44.2109 13.9205 44.2799 13.817 44.3489 13.748C44.4178 13.6676 44.4868 13.6331 44.5673 13.6101C44.7167 13.5641 44.8891 13.6101 45.0616 13.6676C45.234 13.7251 45.4294 13.7825 45.6133 13.7595C45.7053 13.748 45.8088 13.7251 45.9007 13.6676C45.9927 13.6101 46.0962 13.5181 46.1996 13.4032C46.1766 13.4377 46.1191 13.4722 46.0617 13.4952C46.0042 13.5181 45.9237 13.5411 45.8547 13.5411C45.7168 13.5411 45.5904 13.4837 45.6248 13.3227C45.6823 13.2997 45.7513 13.2652 45.8203 13.2423C45.8892 13.2193 45.9697 13.2078 46.0387 13.1848C46.1881 13.1618 46.3376 13.1503 46.4755 13.1848C46.7629 12.8744 46.6709 12.8169 46.51 12.7824C46.3491 12.748 46.1306 12.7365 46.1881 12.518C46.7399 12.7135 46.372 12.0812 46.556 11.7019L46.8319 12.0352C47.763 11.6444 46.464 11.1731 47.3721 10.8857C47.3951 11.1156 47.4181 11.357 47.4411 11.5869L47.7055 11.1846L47.9354 11.6329C48.0159 11.334 48.1078 11.1846 48.2343 11.0811C48.3607 10.9777 48.5332 10.9317 48.7631 10.8512C48.4872 10.6673 48.3607 10.1845 48.7056 9.9201C49.0964 9.95459 48.8091 10.3569 49.2689 9.94309C49.3034 10.242 49.3838 10.6098 48.9355 10.4374C48.993 10.5638 48.9815 10.7363 49.039 10.8627C49.2574 10.8857 49.4183 10.7937 49.5562 10.6673C49.6942 10.5408 49.7976 10.3914 49.8896 10.3339C49.8091 10.3684 49.7172 10.4029 49.6367 10.3799C49.6942 10.2075 49.7747 10.0465 49.8321 9.88562L50.039 9.39132C50.246 9.44879 50.223 9.62122 50.2 9.78216C50.3264 9.64421 50.3264 9.41431 50.5219 9.24188C50.6483 9.57524 50.8552 9.87412 50.6368 10.2075L51.1311 9.4258C51.2576 9.52926 51.7174 9.57524 51.6829 9.73618C51.9358 9.71318 52.0852 9.4258 52.2691 9.13842C52.3611 8.98898 52.4531 8.85103 52.568 8.73608C52.683 8.62113 52.8209 8.55216 52.9934 8.54066C52.9934 8.47169 53.0163 8.37973 53.1083 8.27627C53.3842 8.1843 53.6831 8.17281 53.959 8.09234C54.0969 8.04636 54.2348 8.00038 54.3613 7.91991C54.4877 7.83944 54.6027 7.713 54.7177 7.52907C54.9246 7.66701 55.12 7.80496 55.3269 7.9429C55.5338 7.77047 55.3384 7.64402 55.1775 7.48309C55.0165 7.32215 54.8901 7.13823 55.2464 6.85084C55.3729 6.73589 55.4648 6.7129 55.5338 6.73589C55.6028 6.75888 55.6488 6.81636 55.6833 6.90832C55.7637 7.06926 55.8097 7.29916 55.9362 7.33365C56.0166 7.12673 56.1316 6.82785 56.3155 6.60944C56.4075 6.49449 56.5109 6.41402 56.6489 6.36804C56.7868 6.32206 56.9363 6.32206 57.1202 6.39103C57.0512 6.4715 56.9707 6.51748 56.8903 6.54047C56.8098 6.52898 56.7293 6.55197 56.6604 6.60944ZM62.9943 4.60925C62.8793 4.72421 62.6839 5.04608 62.546 4.80467C62.5919 4.28738 62.7529 4.5058 62.9943 4.60925ZM73.2481 3.37925C73.1332 3.5057 72.9952 3.41374 72.8343 3.22981C72.9607 3.21832 73.0987 3.2528 73.2481 3.37925ZM99.9748 16.1851C99.9633 16.1851 99.9633 16.1851 99.9518 16.1851C99.9058 15.8287 99.9173 15.9552 99.9748 16.1851ZM100.216 16.8403C100.308 16.8633 100.354 16.8288 100.389 16.7713C100.274 16.7943 100.182 16.6794 100.101 16.5184C100.032 16.6219 100.021 16.7368 100.216 16.8403ZM38.8196 15.024L38.992 14.9895C38.9116 15.2884 38.8771 15.162 38.8196 15.024Z" fill="#9F9C9C"/>
<path d="M72.0057 3.82734C71.9712 3.74687 71.9712 3.6664 71.9712 3.58594C71.9137 3.65491 71.9137 3.74687 72.0057 3.82734Z" fill="#9F9C9C"/>
<path d="M53.0164 8.50586C52.9984 8.50586 52.9984 8.50586 52.9805 8.50586C52.9805 8.54178 52.9984 8.59567 53.0164 8.63159V8.50586Z" fill="#9F9C9C"/>
<path d="M90.9382 12.0121C90.8808 11.8856 90.8808 11.7822 90.9038 11.6787C90.8348 11.7592 90.8118 11.8626 90.9382 12.0121Z" fill="#9F9C9C"/>
<path d="M102.709 19.484L102.398 19.1621C102.525 19.3345 102.479 19.4495 102.467 19.5644C102.548 19.507 102.64 19.369 102.709 19.484Z" fill="#9F9C9C"/>
<path d="M101.951 23.9332C102.02 23.9677 102.008 24.0481 102.077 24.0826L102.25 23.9907C102.146 23.7608 101.928 23.6573 101.951 23.9332Z" fill="#9F9C9C"/>
<path d="M101.664 20.5186C101.365 20.714 101.595 20.8979 101.779 21.1163C101.767 21.1048 101.756 21.0933 101.756 21.0703C102.238 20.9209 101.951 20.714 101.664 20.5186Z" fill="#9F9C9C"/>
<path d="M101.824 21.1738C101.882 21.2428 101.928 21.3233 101.951 21.4152C102.146 21.3463 101.939 21.3003 101.824 21.1738Z" fill="#9F9C9C"/>
<path d="M100.882 17.4146C100.882 17.587 101.319 17.2421 101.239 17.3916C101.48 17.3341 101.227 17.2077 100.997 17.1617C100.779 17.1157 100.572 17.1502 100.882 17.4146Z" fill="#9F9C9C"/>
<path d="M100.722 21.2891L101.067 20.9902L100.676 21.0247C100.687 21.1052 100.71 21.1971 100.722 21.2891Z" fill="#9F9C9C"/>
<path d="M99.8711 19.1743C99.9171 19.3237 99.9746 19.4731 100.009 19.6226C100.067 19.5766 100.135 19.6111 100.204 19.6456C100.17 19.5881 100.147 19.5191 100.112 19.4502C100.09 19.3812 100.055 19.3237 100.032 19.2777C99.9746 19.1973 99.9286 19.1398 99.8711 19.1743Z" fill="#9F9C9C"/>
<path d="M100.203 19.6562C100.272 19.7827 100.353 19.9091 100.456 19.9436C100.399 19.8747 100.307 19.7367 100.203 19.6562Z" fill="#9F9C9C"/>
<path d="M100.295 20.8172L100.318 20.6563L100.18 20.3574L100.295 20.8172Z" fill="#9F9C9C"/>
<path d="M97.0763 15.1163L96.6509 14.8174C96.5015 14.8749 96.513 15.0358 96.6854 15.1393C96.8464 15.1622 97.0073 15.2772 97.0763 15.1163Z" fill="#9F9C9C"/>
<path d="M97.0311 17.0473C97.0196 16.8864 97.1 16.8174 97.169 16.668L96.7207 16.9898L97.0311 17.0473Z" fill="#9F9C9C"/>
<path d="M96.0657 16.0245C95.9162 16.082 95.2725 15.7831 95.6978 16.2085C95.8357 16.151 96.2381 16.4499 96.0657 16.0245Z" fill="#9F9C9C"/>
<path d="M91.3301 10.3683L91.4335 10.4373L91.9968 9.72461L91.3301 10.3683Z" fill="#9F9C9C"/>
<path d="M84.8574 8.64423C85.2253 9.10404 85.2368 8.2189 85.5471 8.70171C85.7656 8.57526 85.3057 8.29937 85.5012 8.20741C85.2942 8.2189 85.1793 8.17292 85.0873 8.20741C84.9954 8.25339 84.9379 8.35685 84.8574 8.64423Z" fill="#9F9C9C"/>
<path d="M85.502 8.21906C85.5709 8.21906 85.6399 8.20756 85.7204 8.18457C85.6054 8.18457 85.5479 8.19607 85.502 8.21906Z" fill="#9F9C9C"/>
<path d="M30.3007 37.3477L30.0938 37.75L30.4041 37.4971L30.3007 37.3477Z" fill="#9F9C9C"/>
<path d="M30.9554 38.1182L30.3691 38.2101L30.8864 38.4515C30.8634 38.3596 30.8175 38.1871 30.9554 38.1182Z" fill="#9F9C9C"/>
<path d="M64.1307 5.60965L64.1422 5.47171C64.0732 5.33376 63.9812 5.33376 63.8203 5.32227L64.1307 5.60965Z" fill="#9F9C9C"/>
<path d="M59.4411 6.16076L59.5215 6.14927L59.2227 5.68945L59.4411 6.16076Z" fill="#9F9C9C"/>
<path d="M55.9468 8.09257C56.1077 8.05808 56.2341 7.87415 56.3951 7.83967C56.1077 8.05808 55.6479 7.5063 55.9468 8.09257Z" fill="#9F9C9C"/>
<path d="M5.08008 71.8916C7.40214 71.087 9.75868 70.3972 12.1152 69.7535C13.2992 69.4316 14.4833 69.1328 15.6673 68.8224C16.265 68.6615 16.8513 68.535 17.4491 68.3856L19.2308 67.9602C24.0014 66.8567 28.795 65.9256 33.6115 65.0979C43.2561 63.4771 52.9696 62.3275 62.7177 61.6493C72.4657 60.9596 82.2482 60.7297 92.0193 60.9826C92.6285 60.9941 93.2378 61.0171 93.847 61.0401L95.6748 61.109L97.5026 61.178C97.8129 61.1895 98.1118 61.2125 98.4222 61.224L99.3418 61.2815L101.17 61.3964C101.779 61.4309 102.388 61.4654 102.997 61.5114C103.607 61.5458 104.216 61.6033 104.825 61.6493C105.434 61.6953 106.044 61.7413 106.653 61.7987L108.481 61.9597L109.389 62.0402C109.688 62.0746 109.998 62.1091 110.297 62.1321C111.515 62.2701 112.734 62.3965 113.941 62.5459L114.849 62.6494L115.309 62.7069L115.769 62.7758L117.585 63.0287C118.792 63.2127 120.01 63.3851 121.217 63.592L121.206 63.9369L117.562 63.8334C116.343 63.7989 115.136 63.7644 113.918 63.753L110.274 63.6955L109.366 63.684H108.458L106.641 63.6725C105.423 63.6725 104.216 63.6495 102.997 63.6495L99.3533 63.661C98.744 63.661 98.1348 63.661 97.537 63.6725L95.7208 63.6955L92.0768 63.753L88.4327 63.8449L86.6165 63.8909L84.8002 63.9484L81.1562 64.0748L77.5122 64.2358C76.9029 64.2587 76.2937 64.2817 75.6959 64.3162L73.8796 64.4082L72.0634 64.5001C71.4541 64.5346 70.8564 64.5576 70.2471 64.6036L66.6146 64.8335C66.0053 64.868 65.4076 64.914 64.7983 64.96L62.9821 65.0864C58.1425 65.4313 53.2915 65.8106 48.4635 66.2819C47.2565 66.3854 46.0494 66.5233 44.8424 66.6383L43.0262 66.8222L41.2099 67.0176L39.3936 67.213L37.5889 67.42C36.3819 67.5579 35.1749 67.6958 33.9679 67.8453C29.1398 68.4201 24.3348 69.0753 19.5297 69.788C17.1272 70.1443 14.7247 70.5122 12.3336 70.9145C9.9426 71.3169 7.54008 71.7307 5.16055 72.1905L5.08008 71.8916Z" fill="#9F9C9C"/>
<path d="M49.1309 20.6337C51.6483 17.5069 54.913 14.955 58.58 13.1847C60.4078 12.2996 62.339 11.6098 64.3277 11.1385L64.6955 11.0466C64.822 11.0236 64.9484 11.0006 65.0749 10.9661L65.8221 10.8167C66.3164 10.7017 66.8337 10.6557 67.3394 10.5753L67.7188 10.5178L67.9142 10.4948L68.1096 10.4833L68.8683 10.4258C69.1212 10.4028 69.3741 10.3798 69.627 10.3683L70.3972 10.3453C74.478 10.2304 78.5934 10.9891 82.3408 12.5525C86.0883 14.1158 89.4909 16.4953 92.1693 19.4841C89.1001 16.9092 85.6515 14.863 81.9615 13.541C78.2715 12.2076 74.3401 11.5753 70.4317 11.6903C66.5233 11.7938 62.6379 12.6214 59.0168 14.1618C55.3958 15.6677 52.0507 17.8978 49.1309 20.6337Z" fill="#9F9C9C"/>
</g>
<defs>
<clipPath id="clip0_114_403">
<rect width="125" height="72.2251" fill="white"/>
</clipPath>
</defs>
</svg>
