<svg width="25" height="25" viewBox="0 0 25 25" fill="none" xmlns="http://www.w3.org/2000/svg">
<path fill-rule="evenodd" clip-rule="evenodd" d="M4 1H1V4H4V1ZM1 0H0V1V4V5H1H4H5V4V1V0H4H1ZM4 11H1V14H4V11ZM1 10H0V11V14V15H1H4H5V14V11V10H4H1ZM1 21H4V24H1V21ZM0 20H1H4H5V21V24V25H4H1H0V24V21V20ZM14 1H11V4H14V1ZM11 0H10V1V4V5H11H14H15V4V1V0H14H11ZM11 11H14V14H11V11ZM10 10H11H14H15V11V14V15H14H11H10V14V11V10ZM14 21H11V24H14V21ZM11 20H10V21V24V25H11H14H15V24V21V20H14H11ZM21 1H24V4H21V1ZM20 0H21H24H25V1V4V5H24H21H20V4V1V0ZM24 11H21V14H24V11ZM21 10H20V11V14V15H21H24H25V14V11V10H24H21ZM21 21H24V24H21V21ZM20 20H21H24H25V21V24V25H24H21H20V24V21V20Z" fill="#C33130"/>
</svg>
