<svg width="182" height="45" viewBox="0 0 182 45" fill="none" xmlns="http://www.w3.org/2000/svg">
<g clip-path="url(#clip0_348_1864)">
<path d="M41.9875 11.2475C41.6232 10.6176 40.8173 10.4021 40.1873 10.766L23.8184 20.1178V1.31836C23.8184 0.590273 23.2281 0 22.5 0C16.49 0 10.8398 2.34044 6.59004 6.59004C2.34044 10.8398 0 16.49 0 22.5C0 28.51 2.34044 34.1602 6.59004 38.41C10.8398 42.6596 16.49 45 22.5 45C28.51 45 34.1602 42.6596 38.41 38.41C42.6596 34.1602 45 28.51 45 22.5C45 18.5447 43.9582 14.6537 41.9875 11.2475ZM40.3265 13.7302C41.6623 16.4445 42.3633 19.4503 42.3633 22.5C42.3633 25.593 41.6599 28.5774 40.3311 31.2725L37.5362 29.6588C38.5734 27.4888 39.1551 25.0611 39.1551 22.4999C39.1551 20.0152 38.5977 17.5663 37.5377 15.3402L40.3265 13.7302ZM8.48162 22.5C8.48162 20.4186 8.93821 18.442 9.75551 16.6642L19.8633 22.5L9.75551 28.3358C8.93821 26.558 8.48162 24.5814 8.48162 22.5ZM21.1816 20.2165L11.0776 14.3829C13.381 11.1509 17.0195 8.93303 21.1816 8.54306V20.2165ZM21.1816 24.7835V36.4559C17.0197 36.0658 13.3804 33.8493 11.077 30.6174L21.1816 24.7835ZM23.8184 24.7835L33.923 30.6174C31.6196 33.8493 27.9803 36.0658 23.8184 36.4559V24.7835ZM25.1367 22.5L35.2474 16.6626C36.0816 18.4847 36.5184 20.4782 36.5184 22.5C36.5184 24.5814 36.0618 26.558 35.2444 28.3358L25.1367 22.5ZM8.45455 8.45455C11.8939 5.01521 16.3719 2.99241 21.1816 2.67952V5.89711C16.0461 6.30123 11.5588 9.04518 8.78643 13.0602L5.99027 11.4458C6.70526 10.3826 7.52836 9.38074 8.45455 8.45455ZM4.66893 13.7275L7.46385 15.3412C6.42656 17.5111 5.8449 19.9388 5.8449 22.5C5.8449 25.0612 6.42656 27.4889 7.46385 29.6589L4.66893 31.2725C3.34011 28.5774 2.63672 25.593 2.63672 22.5C2.63672 19.407 3.34011 16.4226 4.66893 13.7275ZM5.99027 33.5543L8.78643 31.9399C11.5588 35.9549 16.0461 38.6989 21.1816 39.103V42.3192C16.3722 42.0062 11.8938 39.9847 8.45455 36.5455C7.52836 35.6193 6.70526 34.6174 5.99027 33.5543ZM36.5454 36.5454C33.1063 39.9846 28.6278 42.0061 23.8184 42.3192V39.1029C28.9539 38.6988 33.4412 35.9548 36.2136 31.9398L39.0097 33.5542C38.2947 34.6174 37.4716 35.6193 36.5454 36.5454Z" fill="#FFB936"/>
<path d="M17.5744 32.3506C18.2639 32.3506 18.9246 31.7442 18.8927 31.0322C18.8607 30.3179 18.3134 29.7139 17.5744 29.7139C16.8848 29.7139 16.2241 30.3202 16.256 31.0322C16.288 31.7465 16.8353 32.3506 17.5744 32.3506Z" fill="#FFB936"/>
<path d="M27.4259 29.7139C26.7363 29.7139 26.0757 30.3202 26.1076 31.0322C26.1395 31.7465 26.6868 32.3506 27.4259 32.3506C28.1155 32.3506 28.7762 31.7442 28.7443 31.0322C28.7123 30.3179 28.165 29.7139 27.4259 29.7139Z" fill="#FFB936"/>
<path d="M17.5744 15.2861C18.2639 15.2861 18.9246 14.6798 18.8927 13.9678C18.8607 13.2535 18.3134 12.6494 17.5744 12.6494C16.8848 12.6494 16.2241 13.2558 16.256 13.9678C16.288 14.6821 16.8353 15.2861 17.5744 15.2861Z" fill="#FFB936"/>
<path d="M32.3517 21.1816C31.6621 21.1816 31.0014 21.788 31.0333 22.5C31.0653 23.2143 31.6126 23.8184 32.3517 23.8184C33.0413 23.8184 33.702 23.212 33.6701 22.5C33.6381 21.7857 33.0908 21.1816 32.3517 21.1816Z" fill="#FFB936"/>
<path d="M12.6486 21.1816C11.959 21.1816 11.2983 21.788 11.3302 22.5C11.3622 23.2143 11.9095 23.8184 12.6486 23.8184C13.3382 23.8184 13.9988 23.212 13.9669 22.5C13.9349 21.7857 13.3876 21.1816 12.6486 21.1816Z" fill="#FFB936"/>
</g>
<path d="M61.62 35C61.5 35 61.44 34.94 61.44 34.82L61.512 10.088C61.512 9.992 61.56 9.944 61.656 9.944H73.176C73.296 9.944 73.356 9.992 73.356 10.088V14.156C73.356 14.252 73.308 14.3 73.212 14.3H65.832V19.88H73.212C73.308 19.88 73.356 19.94 73.356 20.06L73.392 24.128C73.392 24.224 73.332 24.272 73.212 24.272H65.832V34.82C65.832 34.94 65.772 35 65.652 35H61.62ZM81.9516 35.36C80.6556 35.36 79.4676 35.036 78.3876 34.388C77.3316 33.716 76.4796 32.84 75.8316 31.76C75.1836 30.656 74.8596 29.444 74.8596 28.124L74.8956 16.712C74.8956 15.392 75.2076 14.192 75.8316 13.112C76.4796 12.032 77.3436 11.168 78.4236 10.52C79.5036 9.872 80.6796 9.548 81.9516 9.548C83.2476 9.548 84.4236 9.872 85.4796 10.52C86.5356 11.168 87.3756 12.032 87.9996 13.112C88.6476 14.192 88.9716 15.392 88.9716 16.712L89.0076 28.124C89.0076 29.444 88.6836 30.656 88.0356 31.76C87.4116 32.84 86.5596 33.716 85.4796 34.388C84.4236 35.036 83.2476 35.36 81.9516 35.36ZM81.9516 31.004C82.6716 31.004 83.2956 30.716 83.8236 30.14C84.3756 29.54 84.6516 28.868 84.6516 28.124L84.6156 16.712C84.6156 15.92 84.3636 15.248 83.8596 14.696C83.3556 14.144 82.7196 13.868 81.9516 13.868C81.2076 13.868 80.5716 14.144 80.0436 14.696C79.5156 15.224 79.2516 15.896 79.2516 16.712V28.124C79.2516 28.916 79.5156 29.6 80.0436 30.176C80.5716 30.728 81.2076 31.004 81.9516 31.004ZM98.4047 35.36C97.1087 35.36 95.9207 35.036 94.8407 34.388C93.7847 33.716 92.9327 32.84 92.2847 31.76C91.6367 30.656 91.3127 29.444 91.3127 28.124L91.3487 16.712C91.3487 15.392 91.6607 14.192 92.2847 13.112C92.9327 12.032 93.7967 11.168 94.8767 10.52C95.9567 9.872 97.1327 9.548 98.4047 9.548C99.7007 9.548 100.877 9.872 101.933 10.52C102.989 11.168 103.829 12.032 104.453 13.112C105.101 14.192 105.425 15.392 105.425 16.712L105.461 28.124C105.461 29.444 105.137 30.656 104.489 31.76C103.865 32.84 103.013 33.716 101.933 34.388C100.877 35.036 99.7007 35.36 98.4047 35.36ZM98.4047 31.004C99.1247 31.004 99.7487 30.716 100.277 30.14C100.829 29.54 101.105 28.868 101.105 28.124L101.069 16.712C101.069 15.92 100.817 15.248 100.313 14.696C99.8087 14.144 99.1727 13.868 98.4047 13.868C97.6607 13.868 97.0247 14.144 96.4967 14.696C95.9687 15.224 95.7047 15.896 95.7047 16.712V28.124C95.7047 28.916 95.9687 29.6 96.4967 30.176C97.0247 30.728 97.6607 31.004 98.4047 31.004ZM108.378 35C108.258 35 108.198 34.94 108.198 34.82L108.27 10.088C108.27 9.992 108.318 9.944 108.414 9.944L115.146 9.908C116.466 9.884 117.666 10.196 118.746 10.844C119.85 11.492 120.726 12.368 121.374 13.472C122.022 14.552 122.346 15.752 122.346 17.072V27.404C122.346 28.796 122.01 30.068 121.338 31.22C120.666 32.348 119.766 33.248 118.638 33.92C117.51 34.592 116.238 34.94 114.822 34.964L108.378 35ZM112.59 30.572H114.822C115.71 30.572 116.454 30.26 117.054 29.636C117.678 29.012 117.99 28.268 117.99 27.404V17.036C117.99 16.268 117.702 15.608 117.126 15.056C116.574 14.48 115.914 14.204 115.146 14.228L112.626 14.264L112.59 30.572ZM125.322 35C125.226 35 125.178 34.94 125.178 34.82L125.25 10.124C125.25 10.004 125.298 9.944 125.394 9.944H129.426C129.522 9.944 129.57 10.004 129.57 10.124V18.656L135.222 10.088C135.294 9.992 135.378 9.944 135.474 9.944H139.614C139.71 9.944 139.734 9.992 139.686 10.088L133.458 20.024L140.442 34.856C140.49 34.952 140.43 35 140.262 35H135.87C135.75 35 135.678 34.952 135.654 34.856L130.794 24.272L129.534 26.252V34.82C129.534 34.94 129.486 35 129.39 35H125.322ZM142.233 35C142.113 35 142.053 34.94 142.053 34.82L142.089 10.088C142.089 9.992 142.137 9.944 142.233 9.944H146.265C146.361 9.944 146.409 9.992 146.409 10.088L146.445 34.82C146.445 34.94 146.397 35 146.301 35H142.233ZM149.936 35C149.744 35 149.648 34.916 149.648 34.748L149.612 10.232C149.612 10.04 149.708 9.944 149.9 9.944H153.14L159.224 24.128L159.044 10.232C159.044 10.04 159.152 9.944 159.368 9.944H162.932C163.076 9.944 163.148 10.04 163.148 10.232L163.184 34.784C163.184 34.928 163.124 35 163.004 35H159.836L153.608 21.752L153.86 34.712C153.86 34.904 153.752 35 153.536 35H149.936ZM172.899 35.36C171.603 35.36 170.427 35.036 169.371 34.388C168.315 33.74 167.463 32.876 166.815 31.796C166.191 30.692 165.879 29.468 165.879 28.124V16.712C165.879 15.416 166.191 14.228 166.815 13.148C167.463 12.044 168.315 11.168 169.371 10.52C170.451 9.872 171.627 9.548 172.899 9.548C174.219 9.548 175.407 9.872 176.463 10.52C177.543 11.144 178.395 11.996 179.019 13.076C179.643 14.156 179.955 15.368 179.955 16.712V18.368C179.955 18.464 179.895 18.512 179.775 18.512H175.743C175.647 18.512 175.599 18.464 175.599 18.368V17C175.599 16.088 175.335 15.332 174.807 14.732C174.303 14.132 173.667 13.832 172.899 13.832C172.203 13.832 171.579 14.12 171.027 14.696C170.499 15.272 170.235 15.944 170.235 16.712V28.124C170.235 28.916 170.499 29.6 171.027 30.176C171.555 30.728 172.179 31.004 172.899 31.004C173.667 31.004 174.303 30.728 174.807 30.176C175.335 29.624 175.599 28.94 175.599 28.124V26.36H173.079C172.959 26.36 172.899 26.3 172.899 26.18V22.148C172.899 22.028 172.959 21.968 173.079 21.968H179.811C179.907 21.968 179.955 22.028 179.955 22.148V28.124C179.955 29.468 179.631 30.692 178.983 31.796C178.359 32.876 177.519 33.74 176.463 34.388C175.407 35.036 174.219 35.36 172.899 35.36Z" fill="white"/>
<defs>
<clipPath id="clip0_348_1864">
<rect width="45" height="45" fill="white"/>
</clipPath>
</defs>
</svg>
