<svg width="181" height="45" viewBox="0 0 181 45" fill="none" xmlns="http://www.w3.org/2000/svg">
<g clip-path="url(#clip0_341_58)">
<path d="M41.9875 11.2475C41.6232 10.6176 40.8173 10.4021 40.1873 10.766L23.8184 20.1178V1.31836C23.8184 0.590273 23.2281 0 22.5 0C16.49 0 10.8398 2.34044 6.59004 6.59004C2.34044 10.8398 0 16.49 0 22.5C0 28.51 2.34044 34.1602 6.59004 38.41C10.8398 42.6596 16.49 45 22.5 45C28.51 45 34.1602 42.6596 38.41 38.41C42.6596 34.1602 45 28.51 45 22.5C45 18.5447 43.9582 14.6537 41.9875 11.2475ZM40.3265 13.7302C41.6623 16.4445 42.3633 19.4503 42.3633 22.5C42.3633 25.593 41.6599 28.5774 40.3311 31.2725L37.5362 29.6588C38.5734 27.4888 39.1551 25.0611 39.1551 22.4999C39.1551 20.0152 38.5977 17.5663 37.5377 15.3402L40.3265 13.7302ZM8.48162 22.5C8.48162 20.4186 8.93821 18.442 9.75551 16.6642L19.8633 22.5L9.75551 28.3358C8.93821 26.558 8.48162 24.5814 8.48162 22.5ZM21.1816 20.2165L11.0776 14.3829C13.381 11.1509 17.0195 8.93303 21.1816 8.54306V20.2165ZM21.1816 24.7835V36.4559C17.0197 36.0658 13.3804 33.8493 11.077 30.6174L21.1816 24.7835ZM23.8184 24.7835L33.923 30.6174C31.6196 33.8493 27.9803 36.0658 23.8184 36.4559V24.7835ZM25.1367 22.5L35.2474 16.6626C36.0816 18.4847 36.5184 20.4782 36.5184 22.5C36.5184 24.5814 36.0618 26.558 35.2444 28.3358L25.1367 22.5ZM8.45455 8.45455C11.8939 5.01521 16.3719 2.99241 21.1816 2.67952V5.89711C16.0461 6.30123 11.5588 9.04518 8.78643 13.0602L5.99027 11.4458C6.70526 10.3826 7.52836 9.38074 8.45455 8.45455ZM4.66893 13.7275L7.46385 15.3412C6.42656 17.5111 5.8449 19.9388 5.8449 22.5C5.8449 25.0612 6.42656 27.4889 7.46385 29.6589L4.66893 31.2725C3.34011 28.5774 2.63672 25.593 2.63672 22.5C2.63672 19.407 3.34011 16.4226 4.66893 13.7275ZM5.99027 33.5543L8.78643 31.9399C11.5588 35.9549 16.0461 38.6989 21.1816 39.103V42.3192C16.3722 42.0062 11.8938 39.9847 8.45455 36.5455C7.52836 35.6193 6.70526 34.6174 5.99027 33.5543ZM36.5454 36.5454C33.1063 39.9846 28.6278 42.0061 23.8184 42.3192V39.1029C28.9539 38.6988 33.4412 35.9548 36.2136 31.9398L39.0097 33.5542C38.2947 34.6174 37.4716 35.6193 36.5454 36.5454Z" fill="#D12525"/>
<path d="M17.5734 32.3503C18.263 32.3503 18.9236 31.744 18.8917 31.032C18.8597 30.3177 18.3124 29.7136 17.5734 29.7136C16.8838 29.7136 16.2231 30.32 16.255 31.032C16.287 31.7463 16.8343 32.3503 17.5734 32.3503Z" fill="#FFB936"/>
<path d="M27.4269 29.7136C26.7373 29.7136 26.0766 30.32 26.1085 31.032C26.1405 31.7463 26.6878 32.3503 27.4269 32.3503C28.1165 32.3503 28.7772 31.744 28.7453 31.032C28.7133 30.3177 28.166 29.7136 27.4269 29.7136Z" fill="#FFB936"/>
<path d="M17.5734 15.2864C18.263 15.2864 18.9236 14.68 18.8917 13.968C18.8597 13.2537 18.3124 12.6497 17.5734 12.6497C16.8838 12.6497 16.2231 13.256 16.255 13.968C16.287 14.6823 16.8343 15.2864 17.5734 15.2864Z" fill="#FFB936"/>
<path d="M32.3527 21.1816C31.6631 21.1816 31.0024 21.788 31.0343 22.5C31.0663 23.2143 31.6136 23.8184 32.3527 23.8184C33.0423 23.8184 33.7029 23.212 33.671 22.5C33.639 21.7857 33.0917 21.1816 32.3527 21.1816Z" fill="#FFB936"/>
<path d="M12.6476 21.1816C11.958 21.1816 11.2973 21.788 11.3292 22.5C11.3612 23.2143 11.9085 23.8184 12.6476 23.8184C13.3372 23.8184 13.9979 23.212 13.966 22.5C13.934 21.7857 13.3867 21.1816 12.6476 21.1816Z" fill="#FFB936"/>
</g>
<path d="M73.94 13.906C73.94 14.0193 73.8947 14.1213 73.804 14.212C73.736 14.28 73.6453 14.314 73.532 14.314H66.46C66.3467 14.314 66.29 14.3707 66.29 14.484V19.856C66.29 19.9693 66.3467 20.026 66.46 20.026H70.506C70.6193 20.026 70.71 20.0713 70.778 20.162C70.8687 20.23 70.914 20.3207 70.914 20.434V23.732C70.914 23.8453 70.8687 23.9473 70.778 24.038C70.71 24.106 70.6193 24.14 70.506 24.14H66.46C66.3467 24.14 66.29 24.1967 66.29 24.31V33.592C66.29 33.7053 66.2447 33.8073 66.154 33.898C66.086 33.966 65.9953 34 65.882 34H61.904C61.7907 34 61.6887 33.966 61.598 33.898C61.53 33.8073 61.496 33.7053 61.496 33.592V10.608C61.496 10.4947 61.53 10.404 61.598 10.336C61.6887 10.2453 61.7907 10.2 61.904 10.2H73.532C73.6453 10.2 73.736 10.2453 73.804 10.336C73.8947 10.404 73.94 10.4947 73.94 10.608V13.906ZM82.3345 34.272C80.2492 34.272 78.5832 33.66 77.3365 32.436C76.0899 31.212 75.4665 29.58 75.4665 27.54V16.66C75.4665 14.62 76.0899 12.988 77.3365 11.764C78.5832 10.54 80.2492 9.928 82.3345 9.928C84.4199 9.928 86.0859 10.54 87.3325 11.764C88.6019 12.988 89.2365 14.62 89.2365 16.66V27.54C89.2365 29.58 88.6019 31.212 87.3325 32.436C86.0859 33.66 84.4199 34.272 82.3345 34.272ZM82.3345 30.158C82.9692 30.158 83.4792 29.9427 83.8645 29.512C84.2499 29.0587 84.4425 28.4693 84.4425 27.744V16.456C84.4425 15.7307 84.2499 15.1527 83.8645 14.722C83.4792 14.2687 82.9692 14.042 82.3345 14.042C81.6999 14.042 81.1899 14.2687 80.8045 14.722C80.4419 15.1527 80.2605 15.7307 80.2605 16.456V27.744C80.2605 28.4693 80.4419 29.0587 80.8045 29.512C81.1899 29.9427 81.6999 30.158 82.3345 30.158ZM98.4049 34.272C96.3195 34.272 94.6535 33.66 93.4069 32.436C92.1602 31.212 91.5369 29.58 91.5369 27.54V16.66C91.5369 14.62 92.1602 12.988 93.4069 11.764C94.6535 10.54 96.3195 9.928 98.4049 9.928C100.49 9.928 102.156 10.54 103.403 11.764C104.672 12.988 105.307 14.62 105.307 16.66V27.54C105.307 29.58 104.672 31.212 103.403 32.436C102.156 33.66 100.49 34.272 98.4049 34.272ZM98.4049 30.158C99.0395 30.158 99.5495 29.9427 99.9349 29.512C100.32 29.0587 100.513 28.4693 100.513 27.744V16.456C100.513 15.7307 100.32 15.1527 99.9349 14.722C99.5495 14.2687 99.0395 14.042 98.4049 14.042C97.7702 14.042 97.2602 14.2687 96.8749 14.722C96.5122 15.1527 96.3309 15.7307 96.3309 16.456V27.744C96.3309 28.4693 96.5122 29.0587 96.8749 29.512C97.2602 29.9427 97.7702 30.158 98.4049 30.158ZM108.355 34C108.242 34 108.14 33.966 108.049 33.898C107.981 33.8073 107.947 33.7053 107.947 33.592V10.608C107.947 10.4947 107.981 10.404 108.049 10.336C108.14 10.2453 108.242 10.2 108.355 10.2H114.509C116.572 10.2 118.227 10.8007 119.473 12.002C120.72 13.2033 121.343 14.8013 121.343 16.796V27.404C121.343 29.3987 120.72 30.9967 119.473 32.198C118.227 33.3993 116.572 34 114.509 34H108.355ZM112.741 29.716C112.741 29.8293 112.798 29.886 112.911 29.886L114.441 29.852C115.053 29.8293 115.552 29.5687 115.937 29.07C116.323 28.5713 116.527 27.914 116.549 27.098V17.102C116.549 16.2407 116.357 15.5607 115.971 15.062C115.586 14.5633 115.065 14.314 114.407 14.314H112.911C112.798 14.314 112.741 14.3707 112.741 14.484V29.716ZM124.425 34C124.312 34 124.21 33.966 124.119 33.898C124.051 33.8073 124.017 33.7053 124.017 33.592V10.608C124.017 10.4947 124.051 10.404 124.119 10.336C124.21 10.2453 124.312 10.2 124.425 10.2H128.403C128.517 10.2 128.607 10.2453 128.675 10.336C128.766 10.404 128.811 10.4947 128.811 10.608V19.176C128.811 19.2667 128.834 19.3233 128.879 19.346C128.947 19.346 128.993 19.3007 129.015 19.21L133.401 10.506C133.515 10.302 133.673 10.2 133.877 10.2H138.093C138.252 10.2 138.354 10.2453 138.399 10.336C138.467 10.404 138.467 10.5173 138.399 10.676L133.367 20.468C133.345 20.5587 133.333 20.6267 133.333 20.672L138.671 33.524C138.694 33.5693 138.705 33.6373 138.705 33.728C138.705 33.9093 138.592 34 138.365 34H134.115C133.866 34 133.707 33.898 133.639 33.694L130.103 24.786C130.081 24.718 130.047 24.6953 130.001 24.718C129.956 24.718 129.911 24.7407 129.865 24.786L128.879 26.554C128.834 26.6447 128.811 26.7127 128.811 26.758V33.592C128.811 33.7053 128.766 33.8073 128.675 33.898C128.607 33.966 128.517 34 128.403 34H124.425ZM141.127 34C141.013 34 140.911 33.966 140.821 33.898C140.753 33.8073 140.719 33.7053 140.719 33.592V10.608C140.719 10.4947 140.753 10.404 140.821 10.336C140.911 10.2453 141.013 10.2 141.127 10.2H145.105C145.218 10.2 145.309 10.2453 145.377 10.336C145.467 10.404 145.513 10.4947 145.513 10.608V33.592C145.513 33.7053 145.467 33.8073 145.377 33.898C145.309 33.966 145.218 34 145.105 34H141.127ZM158.279 10.608C158.279 10.4947 158.313 10.404 158.381 10.336C158.471 10.2453 158.573 10.2 158.687 10.2H162.631C162.744 10.2 162.835 10.2453 162.903 10.336C162.993 10.404 163.039 10.4947 163.039 10.608V33.592C163.039 33.7053 162.993 33.8073 162.903 33.898C162.835 33.966 162.744 34 162.631 34H158.143C157.916 34 157.769 33.8867 157.701 33.66L153.485 20.502C153.462 20.434 153.417 20.4113 153.349 20.434C153.303 20.434 153.281 20.468 153.281 20.536L153.315 33.592C153.315 33.7053 153.269 33.8073 153.179 33.898C153.111 33.966 153.02 34 152.907 34H148.963C148.849 34 148.747 33.966 148.657 33.898C148.589 33.8073 148.555 33.7053 148.555 33.592V10.608C148.555 10.4947 148.589 10.404 148.657 10.336C148.747 10.2453 148.849 10.2 148.963 10.2H153.417C153.643 10.2 153.791 10.3133 153.859 10.54L158.109 23.698C158.131 23.766 158.165 23.8 158.211 23.8C158.279 23.7773 158.313 23.732 158.313 23.664L158.279 10.608ZM172.445 34.272C170.405 34.272 168.762 33.694 167.515 32.538C166.291 31.3593 165.679 29.7953 165.679 27.846V16.354C165.679 14.4047 166.291 12.852 167.515 11.696C168.762 10.5173 170.405 9.928 172.445 9.928C174.485 9.928 176.129 10.5173 177.375 11.696C178.622 12.8747 179.245 14.4387 179.245 16.388V17.68C179.245 17.7933 179.2 17.8953 179.109 17.986C179.041 18.054 178.951 18.088 178.837 18.088H174.859C174.746 18.088 174.644 18.054 174.553 17.986C174.485 17.8953 174.451 17.7933 174.451 17.68V16.32C174.451 15.64 174.27 15.096 173.907 14.688C173.545 14.2573 173.057 14.042 172.445 14.042C171.856 14.042 171.38 14.2573 171.017 14.688C170.655 15.096 170.473 15.64 170.473 16.32V27.88C170.473 28.56 170.655 29.1153 171.017 29.546C171.38 29.954 171.856 30.158 172.445 30.158C173.057 30.158 173.545 29.954 173.907 29.546C174.27 29.1153 174.451 28.56 174.451 27.88V25.16C174.451 25.0467 174.395 24.99 174.281 24.99H172.785C172.672 24.99 172.57 24.956 172.479 24.888C172.411 24.7973 172.377 24.6953 172.377 24.582V21.556C172.377 21.4427 172.411 21.352 172.479 21.284C172.57 21.1933 172.672 21.148 172.785 21.148H178.837C178.951 21.148 179.041 21.1933 179.109 21.284C179.2 21.352 179.245 21.4427 179.245 21.556V27.846C179.245 29.7953 178.622 31.3593 177.375 32.538C176.129 33.694 174.485 34.272 172.445 34.272Z" fill="#212121"/>
<defs>
<clipPath id="clip0_341_58">
<rect width="45" height="45" fill="white"/>
</clipPath>
</defs>
</svg>
